<?xml version="1.0" encoding="UTF-8" standalone="no"?>
<svg
   xmlns:dc="http://purl.org/dc/elements/1.1/"
   xmlns:cc="http://creativecommons.org/ns#"
   xmlns:rdf="http://www.w3.org/1999/02/22-rdf-syntax-ns#"
   xmlns:svg="http://www.w3.org/2000/svg"
   xmlns="http://www.w3.org/2000/svg"
   xmlns:sodipodi="http://sodipodi.sourceforge.net/DTD/sodipodi-0.dtd"
   xmlns:inkscape="http://www.inkscape.org/namespaces/inkscape"
   inkscape:version="1.0 (4035a4fb49, 2020-05-01)"
   sodipodi:docname="FoldscopeAddOns.svg"
   xml:space="preserve"
   style="enable-background:new 0 0 850.39 850.39;"
   viewBox="0 0 850.39 850.39"
   height="850.39px"
   width="850.39px"
   y="0px"
   x="0px"
   id="Layer_1"
   version="1.0"><metadata
   id="metadata446"><rdf:RDF><cc:Work
       rdf:about=""><dc:format>image/svg+xml</dc:format><dc:type
         rdf:resource="http://purl.org/dc/dcmitype/StillImage" /></cc:Work></rdf:RDF></metadata><defs
   id="defs444">
	
	

		
		
		
		
		
		
		
		
		
		
		
		
		
		
		
		
		
		
		
		
		
		
		
		
		
		
		
		
		
		
		
		
		
		
		
		
		
		
		
		
		
		
		
		
		
		
		
		
		
		
		
		
		
		
		
		
		
		
		
		
		
		
		
		
		
		
		
		
		
		
	</defs><sodipodi:namedview
   inkscape:current-layer="Layer_1"
   inkscape:window-maximized="0"
   inkscape:window-y="60"
   inkscape:window-x="0"
   inkscape:cy="223.00702"
   inkscape:cx="170.078"
   inkscape:zoom="0.94074482"
   showgrid="false"
   id="namedview442"
   inkscape:window-height="765"
   inkscape:window-width="1650"
   inkscape:pageshadow="2"
   inkscape:pageopacity="0"
   guidetolerance="10"
   gridtolerance="10"
   objecttolerance="10"
   borderopacity="1"
   bordercolor="#666666"
   pagecolor="#ffffff" />
<g
   transform="matrix(1.0256387,0,0,1.0256387,-40.154547,-72.679447)"
   id="g2478"><path
     style="fill:none;stroke:#000000;stroke-width:0.324855;stroke-miterlimit:10"
     d="m 820.87831,417.76003 c 0,10.17189 -8.24616,18.41673 -18.41675,18.41673 h -699.8474 c -10.171891,0 -18.416732,-8.24614 -18.416732,-18.41673 V 123.08716 c 0,-10.17189 8.246142,-18.41673 18.416732,-18.41673 h 699.8474 c 10.17059,0 18.41675,8.24614 18.41675,18.41673 z"
     id="path231" /><path
     style="fill:none;stroke:#000000;stroke-width:0.324856;stroke-miterlimit:10"
     d="m 803.68174,212.75908 c 0,2.03359 -1.64898,3.68256 -3.68257,3.68256 H 527.42689 c -2.03359,0 -3.68257,-1.64897 -3.68257,-3.68256 v -88.40239 c 0,-2.03359 1.64898,-3.68257 3.68257,-3.68257 h 272.57228 c 2.03359,0 3.68257,1.64898 3.68257,3.68257 z"
     id="path235" /><path
     style="fill:none;stroke:#000000;stroke-width:0.324856;stroke-miterlimit:10"
     d="m 735.83363,274.54017 c -2.89641,0.18192 -5.73175,0.55874 -8.51252,1.07722 L 445.584,311.25018 c -28.42489,1.7867 -50.01741,26.27954 -48.2294,54.70183 1.7867,28.42489 26.27954,50.01741 54.70313,48.22941 l 283.98251,0.0507 c 2.82495,0.16503 5.68368,0.18322 8.5788,10e-4 38.57599,-2.42602 67.88058,-35.66398 65.45456,-74.23996 -2.42602,-38.57599 -35.66658,-67.87929 -74.23997,-65.45326 z"
     id="path237" /><path
     style="fill:none;stroke:#000000;stroke-width:0.324856;stroke-miterlimit:10"
     d="m 169.36294,170.89555 c 2.90031,0 5.75516,0.19751 8.56321,0.54056 l 283.41726,17.87746 c 28.47946,0 51.56762,23.08817 51.56762,51.56763 0,28.48076 -23.08816,51.56892 -51.56762,51.56892 l -283.41856,17.87487 c -2.80805,0.34305 -5.6603,0.54056 -8.56191,0.54056 -38.65135,0 -69.984348,-31.333 -69.984348,-69.98435 0,-38.65135 31.332998,-69.98565 69.984348,-69.98565 z"
     id="path239" /><path
     style="fill:none;stroke:#000000;stroke-width:0.324856"
     d="m 118.45023,377.38174 h 3.09133 v 20.14627 h 10.97883 v 2.58844 h -14.07016 z"
     id="path247" /><path
     style="fill:none;stroke:#000000;stroke-width:0.324856"
     d="m 150.0769,390.38637 v 9.73008 h -2.81715 v -2.52737 c -0.59903,1.01484 -1.3527,1.76331 -2.261,2.2467 -0.90829,0.48339 -2.0128,0.72378 -3.31223,0.72378 -1.73602,0 -3.12121,-0.48988 -4.15686,-1.46965 -1.03563,-0.97976 -1.5528,-2.29218 -1.5528,-3.93596 0,-1.89845 0.63672,-3.33952 1.91144,-4.32447 1.27474,-0.98497 3.14461,-1.47745 5.61092,-1.47745 h 3.76183 v -0.44181 c -0.0104,-1.36049 -0.35474,-2.34805 -1.03564,-2.96138 -0.6809,-0.61333 -1.76592,-0.9213 -3.25895,-0.9213 -0.95378,0 -1.91926,0.13644 -2.89382,0.41062 -0.97457,0.27418 -1.92315,0.67571 -2.84703,1.20327 v -2.80155 c 1.03563,-0.39633 2.02839,-0.6926 2.97697,-0.89141 0.94858,-0.19881 1.86987,-0.29757 2.76388,-0.29757 1.41116,0 2.61703,0.20791 3.61629,0.62373 0.99926,0.41581 1.8101,1.04084 2.42862,1.87246 0.38593,0.50808 0.66011,1.1344 0.82254,1.88027 0.16243,0.74587 0.24299,1.86597 0.24299,3.35901 z m -5.43549,1.15649 h -0.92908 c -1.63468,0 -2.86524,0.28717 -3.69296,0.86021 -0.82774,0.57305 -1.24096,1.42937 -1.24096,2.56637 0,1.02524 0.30927,1.82179 0.92909,2.39094 0.61983,0.56915 1.47744,0.85242 2.57286,0.85242 1.54372,0 2.75607,-0.53536 3.63968,-1.60609 0.88362,-1.07073 1.32932,-2.55076 1.33971,-4.43883 v -0.62372 h -2.61834 z"
     id="path249" /><path
     style="fill:none;stroke:#000000;stroke-width:0.324856"
     d="m 158.46727,385.23935 c 0.44701,-0.83292 1.06294,-1.47224 1.85039,-1.91924 0.78745,-0.44701 1.69834,-0.67051 2.73398,-0.67051 2.05049,0 3.66438,0.78876 4.84296,2.36755 1.17857,1.5788 1.76591,3.75403 1.76591,6.52441 0,2.81195 -0.59124,5.01707 -1.77371,6.61667 -1.18248,1.59958 -2.80416,2.39873 -4.86504,2.39873 -1.01486,0 -1.91145,-0.2209 -2.68721,-0.66271 -0.77576,-0.4418 -1.39818,-1.08372 -1.86598,-1.92574 v 2.14794 h -2.80155 v -23.69368 h 2.80155 v 8.81658 z m 8.23835,6.36459 c 0,-2.17265 -0.34564,-3.81251 -1.03564,-4.91833 -0.69,-1.10581 -1.71004,-1.65936 -3.06014,-1.65936 -1.36049,0 -2.39094,0.55615 -3.09133,1.66716 -0.70039,1.11101 -1.05124,2.74828 -1.05124,4.91053 0,2.15184 0.35085,3.78651 1.05124,4.90272 0.70039,1.1162 1.73084,1.67496 3.09133,1.67496 1.3501,0 2.37014,-0.55356 3.06014,-1.65937 0.69,-1.10581 1.03564,-2.74568 1.03564,-4.91831 z"
     id="path251" /><path
     style="fill:none;stroke:#000000;stroke-width:0.324856"
     d="m 175.05053,377.38174 h 13.38536 v 2.58845 h -10.29404 v 6.0917 h 9.33506 v 2.58845 h -9.33506 v 11.46611 h -3.09132 z"
     id="path253" /><path
     style="fill:none;stroke:#000000;stroke-width:0.324856"
     d="m 207.86616,386.57906 c -0.59903,-0.46649 -1.20846,-0.80694 -1.82698,-1.02005 -0.61853,-0.21311 -1.29943,-0.31966 -2.0401,-0.31966 -1.74642,0 -3.08093,0.54836 -4.00483,1.64508 -0.92388,1.09671 -1.38518,2.67941 -1.38518,4.75069 v 8.48133 h -2.81715 v -17.05493 h 2.81715 v 3.33432 c 0.4665,-1.20847 1.18507,-2.13495 2.15444,-2.77946 0.96938,-0.64452 2.11936,-0.96678 3.44867,-0.96678 0.69,0 1.33452,0.0858 1.93354,0.25859 0.59904,0.17282 1.17208,0.4418 1.72044,0.80694 z"
     id="path255" /><path
     style="fill:none;stroke:#000000;stroke-width:0.324856"
     d="m 218.43438,382.6509 c 2.36494,0 4.17505,0.76666 5.42898,2.29998 1.25395,1.53332 1.88027,3.75144 1.88027,6.65436 0,2.9133 -0.62372,5.13401 -1.87247,6.66214 -1.24874,1.52812 -3.06014,2.29218 -5.43678,2.29218 -2.36495,0 -4.17246,-0.76406 -5.42121,-2.29218 -1.24874,-1.52813 -1.87246,-3.74884 -1.87246,-6.66214 0,-2.90292 0.62372,-5.12104 1.87246,-6.65436 1.24875,-1.53332 3.05626,-2.29998 5.42121,-2.29998 z m 0,2.37535 c -1.42158,0 -2.49749,0.55355 -3.22777,1.65936 -0.73028,1.10582 -1.09672,2.74568 -1.09672,4.91833 0,2.16223 0.36514,3.7995 1.09672,4.91051 0.73158,1.11101 1.80749,1.66717 3.22777,1.66717 1.43196,0 2.51308,-0.55616 3.24336,-1.66717 0.73027,-1.11101 1.09671,-2.74828 1.09671,-4.91051 0,-2.17265 -0.36514,-3.81251 -1.09671,-4.91833 -0.73158,-1.10581 -1.8127,-1.65936 -3.24336,-1.65936 z"
     id="path257" /><path
     style="fill:none;stroke:#000000;stroke-width:0.324856"
     d="m 238.12324,384.79755 c 0.34565,-0.73027 0.78485,-1.27213 1.31762,-1.62168 0.53276,-0.34954 1.17467,-0.52497 1.92574,-0.52497 1.37089,0 2.33767,0.53017 2.90031,1.5918 0.56265,1.06162 0.84463,3.05884 0.84463,5.99164 v 9.88211 h -2.55856 v -9.76126 c 0,-2.40653 -0.13515,-3.90087 -0.40413,-4.48432 -0.26898,-0.58344 -0.75886,-0.87581 -1.46965,-0.87581 -0.81213,0 -1.36829,0.31186 -1.66715,0.93689 -0.29887,0.62502 -0.44961,2.09857 -0.44961,4.42324 v 9.76126 h -2.55856 v -9.76126 c 0,-2.43642 -0.14423,-3.93856 -0.43401,-4.50771 -0.28977,-0.56915 -0.80954,-0.85242 -1.56061,-0.85242 -0.74066,0 -1.25654,0.31186 -1.54501,0.93689 -0.28847,0.62502 -0.43401,2.09857 -0.43401,4.42324 v 9.76126 h -2.54297 v -17.05493 h 2.54297 v 1.46186 c 0.33526,-0.60943 0.75367,-1.07333 1.25655,-1.39299 0.50287,-0.31966 1.07332,-0.47949 1.71263,-0.47949 0.77186,0 1.41378,0.17802 1.92576,0.53277 0.51196,0.35474 0.91348,0.8927 1.19806,1.61388 z"
     id="path259" /><path
     style="fill:none;stroke:#000000;stroke-width:0.324856"
     d="m 254.12824,377.38174 h 3.73064 l 6.95841,22.73471 h -3.18228 l -1.67496,-5.92406 h -7.96417 l -1.64506,5.92406 h -3.18229 z m 1.85688,2.7106 -3.24337,11.63373 h 6.48673 z"
     id="path261" /><path
     style="fill:none;stroke:#000000;stroke-width:0.324856"
     d="m 281.7202,399.30951 c -0.78225,0.41582 -1.584,0.72898 -2.40654,0.93689 -0.82253,0.20791 -1.69574,0.31186 -2.61963,0.31186 -2.91331,0 -5.17431,-1.03045 -6.78429,-3.09133 -1.60999,-2.06089 -2.41303,-4.9586 -2.41303,-8.69445 0,-3.71505 0.80953,-6.61146 2.42862,-8.68794 1.61908,-2.07648 3.87488,-3.11341 6.7687,-3.11341 0.92389,0 1.7971,0.10395 2.61963,0.31186 0.82254,0.20791 1.62429,0.51977 2.40654,0.93688 v 3.1524 c -0.75107,-0.61982 -1.55801,-1.09151 -2.42083,-1.41637 -0.86282,-0.32486 -1.73083,-0.48729 -2.60404,-0.48729 -1.99981,0 -3.49675,0.77186 -4.49211,2.31427 -0.99535,1.54243 -1.49174,3.87229 -1.49174,6.9896 0,3.10693 0.49769,5.4316 1.49174,6.97401 0.99406,1.54242 2.4923,2.31428 4.49211,2.31428 0.894,0 1.76851,-0.16243 2.62613,-0.48728 0.85762,-0.32486 1.65677,-0.79655 2.39874,-1.41638 z"
     id="path263" /><path
     style="fill:none;stroke:#000000;stroke-width:0.324856"
     d="m 300.16032,389.54824 v 10.56821 h -2.81715 v -10.56821 c 0,-1.53331 -0.26898,-2.65992 -0.80695,-3.3811 -0.53796,-0.72118 -1.37998,-1.08112 -2.52737,-1.08112 -1.30983,0 -2.31687,0.46389 -3.02246,1.39299 -0.70559,0.92909 -1.05773,2.26099 -1.05773,3.99702 v 9.64042 h -2.80156 v -23.69368 h 2.80156 v 9.19731 c 0.49768,-0.97456 1.17208,-1.71263 2.0258,-2.21551 0.85372,-0.50288 1.86337,-0.75367 3.03026,-0.75367 1.73602,0 3.03285,0.57045 3.89047,1.71265 0.85761,1.14218 1.28513,2.87042 1.28513,5.18469 z"
     id="path265" /><path
     style="fill:none;stroke:#000000;stroke-width:0.324856"
     d="m 307.74375,383.12259 h 7.17282 v 14.81603 h 5.55763 v 2.17783 h -13.91812 v -2.17783 h 5.55764 v -12.63949 h -4.36997 z m 4.37127,-6.62446 h 2.80155 v 3.53314 h -2.80155 z"
     id="path267" /><path
     style="fill:none;stroke:#000000;stroke-width:0.324856"
     d="m 327.41832,397.96981 v 8.63467 h -2.81715 v -23.54166 h 2.81715 v 2.17783 c 0.4665,-0.84202 1.08892,-1.48523 1.86598,-1.92574 0.77705,-0.44051 1.67235,-0.66271 2.68721,-0.66271 2.06088,0 3.67736,0.79655 4.84944,2.39094 1.17208,1.5944 1.75942,3.80211 1.75942,6.62446 0,2.77168 -0.58864,4.94691 -1.76592,6.52441 -1.17727,1.5775 -2.79116,2.36755 -4.84294,2.36755 -1.03565,0 -1.94135,-0.2209 -2.7184,-0.66271 -0.77705,-0.4418 -1.38778,-1.08502 -1.83479,-1.92704 z m 8.22276,-6.36587 c 0,-2.17265 -0.34305,-3.81251 -1.02785,-4.91833 -0.6848,-1.10581 -1.70354,-1.65936 -3.05364,-1.65936 -1.3605,0 -2.39094,0.55615 -3.09133,1.66716 -0.70039,1.11101 -1.05124,2.74828 -1.05124,4.91053 0,2.15184 0.35085,3.78651 1.05124,4.90272 0.70039,1.1162 1.73083,1.67496 3.09133,1.67496 1.3501,0 2.36754,-0.55356 3.05364,-1.65937 0.6861,-1.10581 1.02785,-2.74568 1.02785,-4.91831 z"
     id="path269" /><path
     style="fill:none;stroke:#000000;stroke-width:0.324856"
     d="m 128.30636,137.08455 c 0,1.27863 -0.30147,2.248 -0.9057,2.90811 -0.60423,0.6601 -1.49174,0.99015 -2.66512,0.99015 -0.38593,0 -0.78875,-0.0351 -1.21105,-0.10655 -0.42232,-0.0715 -0.84203,-0.17542 -1.26435,-0.31185 v -1.38519 c 0.49768,0.2339 0.94858,0.40542 1.3553,0.51717 0.40672,0.11175 0.77965,0.16763 1.1188,0.16763 0.75627,0 1.30723,-0.20531 1.65157,-0.61723 0.34435,-0.41192 0.51718,-1.06293 0.51718,-1.95694 v -0.0611 -0.95117 c -0.22351,0.47689 -0.52757,0.83293 -0.9135,1.06552 -0.38593,0.2326 -0.85502,0.35084 -1.40858,0.35084 -0.99536,0 -1.7893,-0.39892 -2.38314,-1.19546 -0.59384,-0.79655 -0.89141,-1.86338 -0.89141,-3.19788 0,-1.33971 0.29757,-2.40914 0.89141,-3.20568 0.59384,-0.79655 1.38778,-1.19547 2.38314,-1.19547 0.54836,0 1.01225,0.10915 1.39299,0.32746 0.38073,0.2183 0.68999,0.55615 0.92909,1.01225 v -1.10451 h 1.40077 v 7.94987 z m -1.40077,-3.78392 c 0,-1.05124 -0.17153,-1.84909 -0.51458,-2.39484 -0.34305,-0.54576 -0.84073,-0.81863 -1.49564,-0.81863 -0.6848,0 -1.20847,0.27287 -1.5684,0.81863 -0.35994,0.54575 -0.54056,1.3436 -0.54056,2.39484 0,1.05123 0.18192,1.85167 0.54446,2.40263 0.36253,0.55096 0.8901,0.82644 1.58009,0.82644 0.64452,0 1.1383,-0.27678 1.48135,-0.83034 0.34305,-0.55355 0.51328,-1.3527 0.51328,-2.39873 z"
     id="path271" /><path
     style="fill:none;stroke:#000000;stroke-width:0.324856"
     d="m 132.16695,129.13598 h 3.58641 v 7.40801 h 2.77946 v 1.08891 h -6.95841 v -1.08891 h 2.77946 v -6.31909 h -2.18562 v -1.08892 z m 2.18562,-3.31223 h 1.40079 v 1.76591 h -1.40079 z"
     id="path273" /><path
     style="fill:none;stroke:#000000;stroke-width:0.324856"
     d="m 143.82408,126.68397 v 2.42082 h 3.18229 v 1.08892 h -3.18229 v 4.62854 c 0,0.62892 0.11955,1.06813 0.35734,1.31762 0.23779,0.24949 0.6549,0.37293 1.24874,0.37293 h 1.57621 v 1.1201 h -1.71265 c -1.05124,0 -1.7919,-0.21051 -2.22331,-0.63151 -0.43141,-0.42102 -0.64711,-1.1474 -0.64711,-2.17784 v -4.62854 h -2.27659 v -1.08892 h 2.27659 v -2.42082 h 1.40078 z"
     id="path275" /><path
     style="fill:none;stroke:#000000;stroke-width:0.324856"
     d="m 156.53893,132.34945 v 5.28345 h -1.40857 v -5.28345 c 0,-0.76666 -0.13514,-1.32931 -0.40413,-1.69056 -0.26897,-0.36123 -0.68998,-0.54055 -1.26433,-0.54055 -0.65491,0 -1.15909,0.23259 -1.51123,0.69649 -0.35215,0.46389 -0.52887,1.1305 -0.52887,1.99851 v 4.81956 h -1.40077 v -11.84684 h 1.40077 v 4.59866 c 0.24819,-0.48728 0.58604,-0.85632 1.01225,-1.10841 0.42622,-0.25209 0.93169,-0.37683 1.51514,-0.37683 0.868,0 1.51642,0.28587 1.94523,0.85632 0.42881,0.57044 0.64451,1.43586 0.64451,2.59365 z"
     id="path277" /><path
     style="fill:none;stroke:#000000;stroke-width:0.324856"
     d="m 159.40936,134.40513 v -5.28345 h 1.40078 v 5.28345 c 0,0.76667 0.13514,1.32932 0.40672,1.69056 0.27157,0.36124 0.69129,0.54056 1.26044,0.54056 0.66011,0 1.16428,-0.2326 1.51513,-0.69649 0.35085,-0.4639 0.52497,-1.1305 0.52497,-1.99852 v -4.81956 h 1.40857 v 8.51122 h -1.40857 v -1.27863 c -0.24819,0.49249 -0.58734,0.86541 -1.01615,1.1188 -0.42881,0.25339 -0.93039,0.38073 -1.50344,0.38073 -0.87321,0 -1.52292,-0.28587 -1.94913,-0.85631 -0.42621,-0.57045 -0.63932,-1.43587 -0.63932,-2.59236 z"
     id="path279" /><path
     style="fill:none;stroke:#000000;stroke-width:0.324856"
     d="m 170.18288,130.19371 c 0.2235,-0.41582 0.53147,-0.73548 0.92519,-0.95898 0.39373,-0.2235 0.84852,-0.33525 1.36699,-0.33525 1.02525,0 1.83219,0.39503 2.42083,1.18378 0.58863,0.78874 0.8836,1.87636 0.8836,3.26285 0,1.40597 -0.29626,2.50918 -0.88749,3.30833 -0.59124,0.79914 -1.40209,1.19936 -2.43253,1.19936 -0.50808,0 -0.95507,-0.11045 -1.3436,-0.33135 -0.38853,-0.2209 -0.69909,-0.54185 -0.93299,-0.96287 v 1.07332 h -1.40078 v -11.84684 h 1.40078 z m 4.11918,3.18359 c 0,-1.08633 -0.17283,-1.90626 -0.51718,-2.45982 -0.34434,-0.55356 -0.85502,-0.83032 -1.53072,-0.83032 -0.67959,0 -1.19546,0.27806 -1.54501,0.83422 -0.34955,0.55615 -0.52497,1.37479 -0.52497,2.45592 0,1.07591 0.17542,1.89325 0.52497,2.45201 0.34955,0.55875 0.86542,0.83813 1.54501,0.83813 0.6757,0 1.18508,-0.27678 1.53072,-0.83034 0.34565,-0.55355 0.51718,-1.37349 0.51718,-2.4598 z"
     id="path281" /><path
     style="fill:none;stroke:#000000;stroke-width:0.324856"
     d="m 179.66217,134.55717 h 2.67941 v 3.07573 h -2.67941 z"
     id="path283" /><path
     style="fill:none;stroke:#000000;stroke-width:0.324856"
     d="m 194.16634,137.19889 c -0.37553,0.21831 -0.76276,0.38203 -1.16169,0.49119 -0.39892,0.10915 -0.80563,0.16372 -1.22145,0.16372 -1.32022,0 -2.35196,-0.39632 -3.09522,-1.18766 -0.74328,-0.79135 -1.11491,-1.88807 -1.11491,-3.28884 0,-1.40079 0.37163,-2.4975 1.11491,-3.28884 0.74326,-0.79136 1.775,-1.18768 3.09522,-1.18768 0.41062,0 0.81213,0.0533 1.20326,0.15983 0.39113,0.10655 0.78486,0.27158 1.17988,0.49508 v 1.46964 c -0.37034,-0.33005 -0.74197,-0.56915 -1.11491,-0.71598 -0.37293,-0.14683 -0.79524,-0.22089 -1.26823,-0.22089 -0.87841,0 -1.55281,0.28456 -2.02581,0.85241 -0.47299,0.56785 -0.70818,1.37999 -0.70818,2.43643 0,1.05122 0.23779,1.86207 0.71208,2.43251 0.47429,0.57045 1.1487,0.85633 2.02191,0.85633 0.48729,0 0.92388,-0.0754 1.30981,-0.2248 0.38593,-0.14944 0.74328,-0.38204 1.07333,-0.6965 z"
     id="path285" /><path
     style="fill:none;stroke:#000000;stroke-width:0.324856"
     d="m 200.16578,128.89948 c 1.18248,0 2.08688,0.38333 2.71449,1.14999 0.62762,0.76665 0.94079,1.87507 0.94079,3.32783 0,1.45664 -0.31187,2.56765 -0.93689,3.33042 -0.62502,0.76275 -1.53072,1.14608 -2.71839,1.14608 -1.18247,0 -2.08557,-0.38203 -2.7106,-1.14608 -0.62502,-0.76406 -0.93689,-1.87378 -0.93689,-3.33042 0,-1.45146 0.31187,-2.56118 0.93689,-3.32783 0.62503,-0.76666 1.52813,-1.14999 2.7106,-1.14999 z m 0,1.18768 c -0.71079,0 -1.24874,0.27676 -1.61388,0.83032 -0.36514,0.55356 -0.54836,1.37349 -0.54836,2.45982 0,1.08111 0.18322,1.89975 0.54836,2.4559 0.36514,0.55616 0.90309,0.83424 1.61388,0.83424 0.71598,0 1.25654,-0.27808 1.62168,-0.83424 0.36514,-0.55615 0.54836,-1.37479 0.54836,-2.4559 0,-1.08633 -0.18322,-1.90626 -0.54836,-2.45982 -0.36514,-0.55356 -0.9057,-0.83032 -1.62168,-0.83032 z"
     id="path287" /><path
     style="fill:none;stroke:#000000;stroke-width:0.324856"
     d="m 210.01021,129.97281 c 0.17282,-0.36514 0.39243,-0.63542 0.65881,-0.81085 0.26638,-0.17542 0.58734,-0.26248 0.96287,-0.26248 0.6848,0 1.16819,0.26508 1.45015,0.79525 0.28198,0.53017 0.42232,1.52942 0.42232,2.99647 v 4.9417 h -1.27863 v -4.88063 c 0,-1.20327 -0.0676,-1.95044 -0.20141,-2.24281 -0.13384,-0.29236 -0.37943,-0.4379 -0.73418,-0.4379 -0.40542,0 -0.68349,0.15593 -0.83423,0.46779 -0.15073,0.31186 -0.2248,1.04993 -0.2248,2.21162 v 4.88193 h -1.27863 v -4.88063 c 0,-1.21886 -0.0728,-1.96993 -0.217,-2.25321 -0.14424,-0.28326 -0.40542,-0.4262 -0.78096,-0.4262 -0.37033,0 -0.62762,0.15593 -0.77316,0.46779 -0.14553,0.31186 -0.217,1.04993 -0.217,2.21162 v 4.88063 h -1.27213 v -8.52681 h 1.27213 v 0.73028 c 0.16763,-0.30407 0.37683,-0.53667 0.62762,-0.6965 0.25079,-0.15983 0.53667,-0.24039 0.85633,-0.24039 0.38593,0 0.70688,0.0884 0.96287,0.26638 0.25598,0.17802 0.45739,0.44701 0.59903,0.80695 z"
     id="path289" /><path
     style="fill:none;stroke:#000000;stroke-width:0.324856"
     d="m 221.02023,126.26555 h 1.44626 l -5.98385,12.81361 h -1.45405 z"
     id="path291" /><path
     style="fill:none;stroke:#000000;stroke-width:0.324856"
     d="m 231.71838,137.19889 c -0.37553,0.21831 -0.76276,0.38203 -1.16169,0.49119 -0.39891,0.10915 -0.80563,0.16372 -1.22145,0.16372 -1.32022,0 -2.35196,-0.39632 -3.09522,-1.18766 -0.74328,-0.79135 -1.11491,-1.88807 -1.11491,-3.28884 0,-1.40079 0.37163,-2.4975 1.11491,-3.28884 0.74326,-0.79136 1.775,-1.18768 3.09522,-1.18768 0.41062,0 0.81214,0.0533 1.20326,0.15983 0.39113,0.10655 0.78485,0.27158 1.17988,0.49508 v 1.46964 c -0.37034,-0.33005 -0.74197,-0.56915 -1.11491,-0.71598 -0.37293,-0.14683 -0.79524,-0.22089 -1.26823,-0.22089 -0.87841,0 -1.55281,0.28456 -2.02581,0.85241 -0.47299,0.56785 -0.70817,1.37999 -0.70817,2.43643 0,1.05122 0.23778,1.86207 0.71207,2.43251 0.47429,0.57045 1.1487,0.85633 2.02191,0.85633 0.48729,0 0.92388,-0.0754 1.30981,-0.2248 0.38593,-0.14944 0.74328,-0.38204 1.07333,-0.6965 z"
     id="path293" /><path
     style="fill:none;stroke:#000000;stroke-width:0.324856"
     d="m 241.03005,132.34945 v 5.28345 h -1.40857 v -5.28345 c 0,-0.76666 -0.13514,-1.32931 -0.40412,-1.69056 -0.26899,-0.36123 -0.69,-0.54055 -1.26435,-0.54055 -0.65491,0 -1.15908,0.23259 -1.51122,0.69649 -0.35215,0.46389 -0.52887,1.1305 -0.52887,1.99851 v 4.81956 h -1.40078 v -11.84684 h 1.40078 v 4.59866 c 0.24819,-0.48728 0.58604,-0.85632 1.01226,-1.10841 0.4262,-0.25209 0.93168,-0.37683 1.51512,-0.37683 0.86802,0 1.51643,0.28587 1.94524,0.85632 0.4288,0.57044 0.64451,1.43586 0.64451,2.59365 z"
     id="path295" /><path
     style="fill:none;stroke:#000000;stroke-width:0.324856"
     d="m 250.94205,132.66911 v 0.6848 h -6.06831 v 0.0455 c -0.0403,1.16297 0.18192,1.99721 0.66661,2.50528 0.48469,0.50808 1.16818,0.76147 2.05178,0.76147 0.44701,0 0.9135,-0.0715 1.40079,-0.21311 0.48728,-0.14164 1.00705,-0.35734 1.56061,-0.64711 v 1.39297 c -0.53277,0.21831 -1.04734,0.38203 -1.54242,0.49119 -0.49508,0.10915 -0.97327,0.16372 -1.43457,0.16372 -1.3254,0 -2.35975,-0.39762 -3.10692,-1.19156 -0.74716,-0.79395 -1.1188,-1.88937 -1.1188,-3.28494 0,-1.3605 0.36514,-2.44683 1.09671,-3.25896 0.73158,-0.81214 1.70485,-1.21886 2.92371,-1.21886 1.08631,0 1.94264,0.36774 2.57026,1.10451 0.62762,0.73677 0.96027,1.62428 1.00055,2.66512 z m -1.40077,-0.41192 c -0.0611,-0.58864 -0.27548,-1.09802 -0.64322,-1.52683 -0.36774,-0.42881 -0.89661,-0.6432 -1.58789,-0.6432 -0.6757,0 -1.23056,0.22349 -1.66717,0.67049 -0.4366,0.447 -0.6757,0.94858 -0.71598,1.50734 z"
     id="path297" /><path
     style="fill:none;stroke:#000000;stroke-width:0.324856"
     d="m 259.86649,132.76786 v 4.86504 h -1.40857 v -1.26433 c -0.29887,0.50807 -0.67701,0.8823 -1.1305,1.12269 -0.4535,0.2404 -1.00575,0.36124 -1.65547,0.36124 -0.86801,0 -1.5606,-0.24429 -2.07907,-0.73416 -0.51847,-0.48989 -0.77706,-1.1461 -0.77706,-1.96864 0,-0.94858 0.31836,-1.66975 0.95508,-2.16223 0.63671,-0.49249 1.5723,-0.73808 2.80545,-0.73808 h 1.88027 v -0.2209 c -0.005,-0.6796 -0.17803,-1.17338 -0.51718,-1.48135 -0.33914,-0.30795 -0.8836,-0.45998 -1.62947,-0.45998 -0.47689,0 -0.95898,0.0689 -1.44626,0.20531 -0.48729,0.13643 -0.96157,0.33784 -1.42416,0.60162 v -1.40077 c 0.51717,-0.19752 1.01354,-0.34695 1.48913,-0.44571 0.47559,-0.0988 0.93559,-0.14813 1.38129,-0.14813 0.70559,0 1.30853,0.10395 1.80879,0.31186 0.50028,0.20791 0.90441,0.51977 1.21497,0.93689 0.19231,0.25338 0.33005,0.56784 0.41062,0.94077 0.0806,0.37294 0.12214,0.93299 0.12214,1.67886 z m -2.71839,0.57825 h -0.46519 c -0.81734,0 -1.43327,0.14294 -1.84649,0.4301 -0.41322,0.28717 -0.62111,0.71469 -0.62111,1.28254 0,0.51327 0.15462,0.91089 0.46388,1.19547 0.30926,0.28457 0.73808,0.42621 1.28643,0.42621 0.77186,0 1.3787,-0.26768 1.81919,-0.80305 0.44051,-0.53536 0.66531,-1.27473 0.67051,-2.21941 v -0.31186 z"
     id="path299" /><path
     style="fill:none;stroke:#000000;stroke-width:0.324856"
     d="m 264.04544,136.55958 v 4.31668 h -1.40858 v -11.77147 h 1.40858 v 1.08892 c 0.2339,-0.42102 0.54445,-0.74197 0.93298,-0.96288 0.38853,-0.2209 0.83683,-0.33135 1.34361,-0.33135 1.03045,0 1.83868,0.39892 2.42472,1.19547 0.58604,0.79654 0.87971,1.90105 0.87971,3.31223 0,1.38518 -0.29497,2.4728 -0.88361,3.26285 -0.58864,0.79005 -1.39557,1.18377 -2.42082,1.18377 -0.51717,0 -0.97067,-0.11045 -1.3592,-0.33135 -0.38852,-0.2209 -0.69389,-0.54185 -0.91739,-0.96287 z m 4.11137,-3.18228 c 0,-1.08633 -0.17151,-1.90626 -0.51456,-2.45982 -0.34305,-0.55356 -0.85113,-0.83032 -1.52683,-0.83032 -0.6796,0 -1.19547,0.27806 -1.54501,0.83422 -0.34954,0.55615 -0.52497,1.37479 -0.52497,2.45592 0,1.07591 0.17543,1.89325 0.52497,2.45201 0.34954,0.55875 0.86541,0.83813 1.54501,0.83813 0.6757,0 1.18378,-0.27678 1.52683,-0.83034 0.34305,-0.55355 0.51456,-1.37349 0.51456,-2.4598 z"
     id="path301" /><path
     style="fill:none;stroke:#000000;stroke-width:0.324856"
     d="m 275.14641,137.78493 v -7.59122 h -2.41303 v -1.08892 h 3.81511 v 8.68014 c 0,0.99017 -0.2274,1.75293 -0.6809,2.28829 -0.4535,0.53537 -1.1006,0.80304 -1.93743,0.80304 h -1.93355 v -1.18767 h 1.78151 c 0.4574,0 0.79915,-0.15853 1.02785,-0.47559 0.22869,-0.31706 0.34044,-0.79395 0.34044,-1.42807 z m 0,-11.99887 h 1.40078 v 1.77371 h -1.40078 z"
     id="path303" /><path
     style="fill:none;stroke:#000000;stroke-width:0.324856"
     d="m 288.0289,132.76786 v 4.86504 h -1.40858 v -1.26433 c -0.29886,0.50807 -0.677,0.8823 -1.1305,1.12269 -0.45349,0.2404 -1.00575,0.36124 -1.65546,0.36124 -0.86802,0 -1.56061,-0.24429 -2.07907,-0.73416 -0.51847,-0.48989 -0.77706,-1.1461 -0.77706,-1.96864 0,-0.94858 0.31836,-1.66975 0.95507,-2.16223 0.63672,-0.49249 1.57231,-0.73808 2.80546,-0.73808 h 1.88026 v -0.2209 c -0.005,-0.6796 -0.17802,-1.17338 -0.51717,-1.48135 -0.33915,-0.30795 -0.88361,-0.45998 -1.62947,-0.45998 -0.47689,0 -0.95898,0.0689 -1.44626,0.20531 -0.48729,0.13643 -0.96158,0.33784 -1.42416,0.60162 v -1.40077 c 0.51716,-0.19752 1.01354,-0.34695 1.48913,-0.44571 0.47559,-0.0988 0.93559,-0.14813 1.38129,-0.14813 0.70559,0 1.30851,0.10395 1.80879,0.31186 0.50028,0.20791 0.9044,0.51977 1.21497,0.93689 0.19231,0.25338 0.33005,0.56784 0.41062,0.94077 0.0806,0.37294 0.12214,0.93299 0.12214,1.67886 z m -2.7171,0.57825 h -0.46389 c -0.81734,0 -1.43326,0.14294 -1.84648,0.4301 -0.41322,0.28717 -0.62113,0.71469 -0.62113,1.28254 0,0.51327 0.15463,0.91089 0.4639,1.19547 0.30926,0.28457 0.73807,0.42621 1.28643,0.42621 0.77186,0 1.37868,-0.26768 1.81919,-0.80305 0.4405,-0.53536 0.66531,-1.27473 0.6705,-2.21941 v -0.31186 z"
     id="path305" /><path
     style="fill:none;stroke:#000000;stroke-width:0.324856"
     d="m 297.43283,137.19889 c -0.37554,0.21831 -0.76277,0.38203 -1.16169,0.49119 -0.39892,0.10915 -0.80564,0.16372 -1.22145,0.16372 -1.32022,0 -2.35197,-0.39632 -3.09523,-1.18766 -0.74327,-0.79135 -1.11491,-1.88807 -1.11491,-3.28884 0,-1.40079 0.37164,-2.4975 1.11491,-3.28884 0.74326,-0.79136 1.77501,-1.18768 3.09523,-1.18768 0.41062,0 0.81213,0.0533 1.20326,0.15983 0.39113,0.10655 0.78485,0.27158 1.17988,0.49508 v 1.46964 c -0.37034,-0.33005 -0.74198,-0.56915 -1.11491,-0.71598 -0.37294,-0.14683 -0.79524,-0.22089 -1.26823,-0.22089 -0.87841,0 -1.55282,0.28456 -2.02581,0.85241 -0.47299,0.56785 -0.70819,1.37999 -0.70819,2.43643 0,1.05122 0.2378,1.86207 0.71209,2.43251 0.47429,0.57045 1.14869,0.85633 2.02191,0.85633 0.48727,0 0.92388,-0.0754 1.30981,-0.2248 0.38593,-0.14944 0.74327,-0.38204 1.07333,-0.6965 z"
     id="path307" /><path
     style="fill:none;stroke:#000000;stroke-width:0.324856"
     d="m 300.53845,125.78606 h 1.44626 v 6.85966 l 3.67737,-3.54093 h 1.70484 l -3.35771,3.21347 3.88268,5.31464 h -1.71265 l -3.1524,-4.40114 -1.04343,0.98236 v 3.41878 h -1.44626 v -11.84684 z"
     id="path309" /><path
     style="fill:none;stroke:#000000;stroke-width:0.324856"
     d="m 314.89838,126.26555 h 1.44625 l -5.98384,12.81361 h -1.45405 z"
     id="path311" /><path
     style="fill:none;stroke:#000000;stroke-width:0.324856"
     d="m 319.15529,126.26555 h 1.54501 v 10.07313 h 5.49007 v 1.29422 h -7.03508 z"
     id="path313" /><path
     style="fill:none;stroke:#000000;stroke-width:0.324856"
     d="m 334.96797,132.76786 v 4.86504 h -1.40857 v -1.26433 c -0.29886,0.50807 -0.677,0.8823 -1.1305,1.12269 -0.4535,0.2404 -1.00575,0.36124 -1.65547,0.36124 -0.868,0 -1.5606,-0.24429 -2.07907,-0.73416 -0.51847,-0.48989 -0.77706,-1.1461 -0.77706,-1.96864 0,-0.94858 0.31836,-1.66975 0.95508,-2.16223 0.63672,-0.49249 1.5723,-0.73808 2.80545,-0.73808 h 1.88027 v -0.2209 c -0.005,-0.6796 -0.17803,-1.17338 -0.51717,-1.48135 -0.33915,-0.30795 -0.88361,-0.45998 -1.62948,-0.45998 -0.47689,0 -0.95898,0.0689 -1.44626,0.20531 -0.48728,0.13643 -0.96157,0.33784 -1.42416,0.60162 v -1.40077 c 0.51717,-0.19752 1.01355,-0.34695 1.48913,-0.44571 0.47559,-0.0988 0.93559,-0.14813 1.38129,-0.14813 0.70559,0 1.30853,0.10395 1.80881,0.31186 0.50026,0.20791 0.90439,0.51977 1.21495,0.93689 0.19231,0.25338 0.33005,0.56784 0.41062,0.94077 0.0806,0.37294 0.12214,0.93299 0.12214,1.67886 z m -2.71709,0.57825 h -0.46389 c -0.81734,0 -1.43327,0.14294 -1.84649,0.4301 -0.41321,0.28717 -0.62112,0.71469 -0.62112,1.28254 0,0.51327 0.15464,0.91089 0.4639,1.19547 0.30925,0.28457 0.73806,0.42621 1.28642,0.42621 0.77186,0 1.3787,-0.26768 1.8192,-0.80305 0.44051,-0.53536 0.6653,-1.27473 0.6705,-2.21941 v -0.31186 z"
     id="path315" /><path
     style="fill:none;stroke:#000000;stroke-width:0.324856"
     d="m 339.16382,130.19371 c 0.2235,-0.41582 0.53146,-0.73548 0.92519,-0.95898 0.39371,-0.2235 0.84851,-0.33525 1.36699,-0.33525 1.02524,0 1.83219,0.39503 2.42082,1.18378 0.58864,0.78874 0.88361,1.87636 0.88361,3.26285 0,1.40597 -0.29627,2.50918 -0.88751,3.30833 -0.59123,0.79914 -1.40207,1.19936 -2.43252,1.19936 -0.50807,0 -0.95508,-0.11045 -1.3436,-0.33135 -0.38852,-0.2209 -0.69909,-0.54185 -0.93298,-0.96287 v 1.07332 h -1.40079 v -11.84684 h 1.40079 z m 4.11917,3.18359 c 0,-1.08633 -0.17282,-1.90626 -0.51717,-2.45982 -0.34435,-0.55356 -0.85503,-0.83032 -1.53073,-0.83032 -0.6796,0 -1.19546,0.27806 -1.54501,0.83422 -0.34954,0.55615 -0.52497,1.37479 -0.52497,2.45592 0,1.07591 0.17543,1.89325 0.52497,2.45201 0.34955,0.55875 0.86541,0.83813 1.54501,0.83813 0.6757,0 1.18508,-0.27678 1.53073,-0.83034 0.34565,-0.55355 0.51717,-1.37349 0.51717,-2.4598 z"
     id="path317" /><path
     style="fill:none;stroke:#000000;stroke-width:0.324856"
     d="m 347.45543,126.26555 h 6.69203 v 1.29422 h -5.14701 v 3.04585 h 4.66753 v 1.29423 h -4.66753 v 5.73305 h -1.54502 z"
     id="path319" /><path
     style="fill:none;stroke:#000000;stroke-width:0.324856"
     d="m 363.86326,130.8642 c -0.29887,-0.23389 -0.60423,-0.40412 -0.9135,-0.51067 -0.30926,-0.10654 -0.64971,-0.15982 -1.02005,-0.15982 -0.87321,0 -1.54111,0.27417 -2.00241,0.82253 -0.46129,0.54836 -0.69259,1.33971 -0.69259,2.37535 v 4.24131 h -1.40858 v -8.52681 h 1.40858 v 1.66715 c 0.2339,-0.60422 0.59254,-1.06682 1.07722,-1.38907 0.48469,-0.32226 1.05903,-0.48339 1.72433,-0.48339 0.34565,0 0.66791,0.0429 0.96678,0.12994 0.29887,0.0871 0.58604,0.2209 0.86022,0.40412 z"
     id="path321" /><path
     style="fill:none;stroke:#000000;stroke-width:0.324856"
     d="m 369.14671,128.89948 c 1.18248,0 2.08687,0.38333 2.71449,1.14999 0.62763,0.76665 0.94079,1.87507 0.94079,3.32783 0,1.45664 -0.31186,2.56765 -0.93689,3.33042 -0.62502,0.76275 -1.53071,1.14608 -2.71839,1.14608 -1.18248,0 -2.08557,-0.38203 -2.71059,-1.14608 -0.62503,-0.76406 -0.93689,-1.87378 -0.93689,-3.33042 0,-1.45146 0.31186,-2.56118 0.93689,-3.32783 0.62502,-0.76666 1.52811,-1.14999 2.71059,-1.14999 z m 0,1.18768 c -0.71079,0 -1.24875,0.27676 -1.61388,0.83032 -0.36514,0.55356 -0.54836,1.37349 -0.54836,2.45982 0,1.08111 0.18322,1.89975 0.54836,2.4559 0.36513,0.55616 0.90309,0.83424 1.61388,0.83424 0.71599,0 1.25655,-0.27808 1.62169,-0.83424 0.36514,-0.55615 0.54834,-1.37479 0.54834,-2.4559 0,-1.08633 -0.1832,-1.90626 -0.54834,-2.45982 -0.36514,-0.55356 -0.9057,-0.83032 -1.62169,-0.83032 z"
     id="path323" /><path
     style="fill:none;stroke:#000000;stroke-width:0.324856"
     d="m 378.99114,129.97281 c 0.17283,-0.36514 0.39243,-0.63542 0.65881,-0.81085 0.26638,-0.17542 0.58734,-0.26248 0.96288,-0.26248 0.6848,0 1.16817,0.26508 1.45015,0.79525 0.28197,0.53017 0.42231,1.52942 0.42231,2.99647 v 4.9417 h -1.27862 v -4.88063 c 0,-1.20327 -0.0676,-1.95044 -0.20142,-2.24281 -0.13384,-0.29236 -0.37943,-0.4379 -0.73417,-0.4379 -0.40542,0 -0.6835,0.15593 -0.83423,0.46779 -0.15074,0.31186 -0.22481,1.04993 -0.22481,2.21162 v 4.88193 h -1.27862 v -4.88063 c 0,-1.21886 -0.0728,-1.96993 -0.21701,-2.25321 -0.14423,-0.28326 -0.40542,-0.4262 -0.78095,-0.4262 -0.37034,0 -0.62763,0.15593 -0.77316,0.46779 -0.14554,0.31186 -0.21701,1.04993 -0.21701,2.21162 v 4.88063 h -1.27213 v -8.52681 h 1.27213 v 0.73028 c 0.16763,-0.30407 0.37684,-0.53667 0.62763,-0.6965 0.25079,-0.15983 0.53666,-0.24039 0.85632,-0.24039 0.38593,0 0.70688,0.0884 0.96287,0.26638 0.25598,0.17802 0.45739,0.44701 0.59903,0.80695 z"
     id="path325" /><path
     style="fill:none;stroke:#000000;stroke-width:0.324856"
     d="m 386.99429,126.26555 h 1.86597 l 3.47986,11.36735 h -1.59179 l -0.83813,-2.96138 h -3.98144 l -0.82383,2.96138 h -1.59179 z m 0.9278,1.35529 -1.62169,5.81753 h 3.24336 z"
     id="path327" /><path
     style="fill:none;stroke:#000000;stroke-width:0.324856"
     d="m 400.79027,137.22878 c -0.39112,0.20791 -0.79135,0.36384 -1.20327,0.46779 -0.41191,0.10396 -0.84722,0.15593 -1.30981,0.15593 -1.45666,0 -2.58716,-0.51457 -3.39149,-1.54501 -0.80435,-1.03044 -1.20717,-2.4793 -1.20717,-4.34787 0,-1.85817 0.40542,-3.30573 1.21496,-4.34397 0.80954,-1.03824 1.93744,-1.55671 3.3837,-1.55671 0.46129,0 0.8979,0.052 1.30981,0.15593 0.41192,0.10396 0.81215,0.25989 1.20327,0.4678 v 1.57619 c -0.37553,-0.30926 -0.77965,-0.54576 -1.21106,-0.70819 -0.43141,-0.16242 -0.86542,-0.24429 -1.30202,-0.24429 -1.00056,0 -1.74903,0.38593 -2.24671,1.15779 -0.49768,0.77186 -0.74587,1.93614 -0.74587,3.49415 0,1.55282 0.24819,2.71579 0.74587,3.48765 0.49768,0.77186 1.24615,1.15779 2.24671,1.15779 0.447,0 0.8849,-0.0806 1.31371,-0.24429 0.42881,-0.16373 0.82904,-0.39892 1.19937,-0.70819 z"
     id="path329" /><path
     style="fill:none;stroke:#000000;stroke-width:0.324856"
     d="m 410.00968,132.34945 v 5.28345 h -1.40857 v -5.28345 c 0,-0.76666 -0.13514,-1.32931 -0.40412,-1.69056 -0.26898,-0.36123 -0.69,-0.54055 -1.26434,-0.54055 -0.65491,0 -1.15909,0.23259 -1.51123,0.69649 -0.35214,0.46389 -0.52886,1.1305 -0.52886,1.99851 v 4.81956 h -1.40079 v -11.84684 h 1.40079 v 4.59866 c 0.24819,-0.48728 0.58604,-0.85632 1.01224,-1.10841 0.42621,-0.25209 0.93169,-0.37683 1.51513,-0.37683 0.86802,0 1.51643,0.28587 1.94524,0.85632 0.42881,0.57044 0.64451,1.43586 0.64451,2.59365 z"
     id="path331" /><path
     style="fill:none;stroke:#000000;stroke-width:0.324856"
     d="m 413.8014,129.13598 h 3.58641 v 7.40801 h 2.77946 v 1.08891 h -6.95841 v -1.08891 h 2.77947 v -6.31909 h -2.18563 v -1.08892 z m 2.18563,-3.31223 h 1.40078 v 1.76591 h -1.40078 z"
     id="path333" /><path
     style="fill:none;stroke:#000000;stroke-width:0.324856"
     d="m 423.63933,136.55958 v 4.31668 h -1.40857 v -11.77147 h 1.40857 v 1.08892 c 0.2339,-0.42102 0.54446,-0.74197 0.93299,-0.96288 0.38853,-0.2209 0.83683,-0.33135 1.34361,-0.33135 1.03044,0 1.83868,0.39892 2.42472,1.19547 0.58604,0.79654 0.87971,1.90105 0.87971,3.31223 0,1.38518 -0.29497,2.4728 -0.88361,3.26285 -0.58864,0.79005 -1.39558,1.18377 -2.42082,1.18377 -0.51717,0 -0.97067,-0.11045 -1.3592,-0.33135 -0.38853,-0.2209 -0.69389,-0.54185 -0.9174,-0.96287 z m 4.11138,-3.18228 c 0,-1.08633 -0.17152,-1.90626 -0.51457,-2.45982 -0.34305,-0.55356 -0.85113,-0.83032 -1.52682,-0.83032 -0.6796,0 -1.19547,0.27806 -1.54502,0.83422 -0.34954,0.55615 -0.52497,1.37479 -0.52497,2.45592 0,1.07591 0.17543,1.89325 0.52497,2.45201 0.34955,0.55875 0.86542,0.83813 1.54502,0.83813 0.67569,0 1.18377,-0.27678 1.52682,-0.83034 0.34305,-0.55355 0.51457,-1.37349 0.51457,-2.4598 z"
     id="path335" /></g>

<g
   transform="matrix(1.0256375,0,0,1.0256375,-35.174516,2.8237928)"
   id="g2647"><path
     style="fill:none;stroke:#000000;stroke-width:0.324856;stroke-miterlimit:10"
     d="m 823.51144,700.65539 c 0,10.1706 -8.24615,18.41675 -18.41805,18.41675 H 105.24518 c -10.1719,0 -18.416752,-8.24615 -18.416752,-18.41675 V 405.98218 c 0,-10.1719 8.246151,-18.41675 18.416752,-18.41675 h 699.84821 c 10.1719,0 18.41805,8.24615 18.41805,18.41675 z"
     id="path233" /><polygon
     style="fill:none;stroke:#000000;stroke-width:0.25;stroke-miterlimit:10"
     points="580.791,550.261 569.973,544.591 201.184,544.591 201.184,521.205 110.476,521.205 110.476,613.331 201.184,613.331 201.184,589.945 569.973,589.945 580.791,584.276 609.138,584.276 609.138,550.261 "
     id="polygon241"
     transform="matrix(1.299425,0,0,1.299425,-25.949967,-115.99814)" /><path
     style="fill:none;stroke:#000000;stroke-width:0.324856;stroke-miterlimit:10"
     d="m 786.01524,452.29499 h -2.30388 v -18.72731 c 0.24559,-3.45777 -0.28718,-5.92928 -6.99871,-5.92928 H 563.733 c -7.20272,0 -14.20272,0 -14.20272,6.87526 v 19.55374 h -8.05254 -0.0559 v 41.61539 h 8.10841 v 34.65956 c 0,2.59365 2.63523,5.06256 7.86282,5.06256 h 16.5066 v 2.38835 h 39.43625 v -2.38835 h 72.03622 v 4.5285 h 26.01579 v -4.5285 h 19.92278 v 4.69223 h 26.01449 v -4.69223 h 19.38872 c 6.54391,0 6.9987,-2.34676 6.9987,-7.53276 v -17.12513 h 2.30389 v -58.45203 z"
     id="path243" /><circle
     style="fill:none;stroke:#000000;stroke-width:0.324856;stroke-miterlimit:10"
     cx="392.82352"
     cy="485.99298"
     r="71.827019"
     id="circle245" /><path
     style="fill:none;stroke:#000000;stroke-width:0.324856"
     d="m 117.93536,413.52275 h 13.38538 v 2.58845 H 121.0267 v 6.0917 h 9.33506 v 2.58846 h -9.33506 v 11.46612 h -3.09134 z"
     id="path337" /><path
     style="fill:none;stroke:#000000;stroke-width:0.324856"
     d="m 142.54387,418.79191 c 2.36496,0 4.17506,0.76666 5.429,2.29999 1.25395,1.53332 1.88027,3.75144 1.88027,6.65435 0,2.91331 -0.62372,5.13403 -1.87247,6.66215 -1.24875,1.52813 -3.06015,2.29219 -5.4368,2.29219 -2.36495,0 -4.17245,-0.76406 -5.4212,-2.29219 -1.24874,-1.52812 -1.87247,-3.74884 -1.87247,-6.66215 0,-2.90291 0.62373,-5.12103 1.87247,-6.65435 1.24875,-1.53333 3.05625,-2.29999 5.4212,-2.29999 z m 0,2.37535 c -1.42157,0 -2.49749,0.55356 -3.22777,1.65937 -0.73027,1.10581 -1.09671,2.74568 -1.09671,4.91832 0,2.16225 0.36514,3.79952 1.09671,4.91053 0.73158,1.11101 1.8075,1.66716 3.22777,1.66716 1.43197,0 2.51309,-0.55615 3.24337,-1.66716 0.73028,-1.11101 1.09671,-2.74828 1.09671,-4.91053 0,-2.17264 -0.36514,-3.81251 -1.09671,-4.91832 -0.73158,-1.10581 -1.8114,-1.65937 -3.24337,-1.65937 z"
     id="path339" /><path
     style="fill:none;stroke:#000000;stroke-width:0.324856"
     d="m 162.88767,430.09041 c 0,1.25915 0.2313,2.20773 0.6926,2.84704 0.46129,0.63932 1.14479,0.95898 2.04789,0.95898 h 3.27455 v 2.36105 h -3.54743 c -1.67496,0 -2.97179,-0.53536 -3.89048,-1.60608 -0.91869,-1.07073 -1.37869,-2.59106 -1.37869,-4.56099 V 414.66494 H 155.594 v -2.19343 h 7.29367 z"
     id="path341" /><path
     style="fill:none;stroke:#000000;stroke-width:0.324856"
     d="m 183.77983,421.38037 v -8.8166 h 2.80156 v 23.69371 h -2.80156 v -2.14665 c -0.4665,0.84203 -1.08892,1.48525 -1.86598,1.92575 -0.77705,0.44051 -1.67236,0.66271 -2.68721,0.66271 -2.06089,0 -3.68257,-0.79915 -4.86505,-2.39874 -1.18247,-1.59959 -1.77371,-3.80472 -1.77371,-6.61667 0,-2.77167 0.59384,-4.94691 1.78151,-6.52441 1.18768,-1.57751 2.80676,-2.36756 4.85725,-2.36756 1.02525,0 1.92835,0.22091 2.7106,0.66271 0.78226,0.4418 1.39688,1.08242 1.84259,1.92575 z m -8.23836,6.36458 c 0,2.17264 0.34565,3.81251 1.03564,4.91833 0.69,1.10581 1.71005,1.65936 3.06015,1.65936 1.3501,0 2.37795,-0.55875 3.08354,-1.67496 0.70558,-1.1162 1.05773,-2.75088 1.05773,-4.90273 0,-2.16224 -0.35215,-3.79952 -1.05773,-4.91053 -0.70559,-1.111 -1.73344,-1.66716 -3.08354,-1.66716 -1.3501,0 -2.37015,0.55356 -3.06015,1.65937 -0.68999,1.10581 -1.03564,2.74568 -1.03564,4.91832 z"
     id="path343" /><path
     style="fill:none;stroke:#000000;stroke-width:0.324856"
     d="m 204.30684,419.79637 v 2.74049 c -0.80174,-0.4665 -1.60868,-0.81734 -2.42083,-1.05124 -0.81214,-0.23389 -1.63987,-0.35084 -2.4819,-0.35084 -1.26954,0 -2.21552,0.20531 -2.84054,0.61722 -0.62502,0.41192 -0.93689,1.03824 -0.93689,1.88027 0,0.76146 0.2339,1.32931 0.70039,1.70485 0.4665,0.37553 1.62948,0.74067 3.48766,1.09671 l 1.1266,0.21311 c 1.39039,0.26378 2.44422,0.79135 3.1602,1.584 0.71599,0.79265 1.07333,1.82179 1.07333,3.09133 0,1.68535 -0.59904,3.00297 -1.79711,3.95155 -1.19807,0.94858 -2.86263,1.42417 -4.99499,1.42417 -0.84202,0 -1.72563,-0.0884 -2.64952,-0.26638 -0.92389,-0.17802 -1.92315,-0.44441 -3.00037,-0.79915 v -2.89382 c 1.04603,0.53796 2.04529,0.94209 3.00037,1.21107 0.95507,0.26898 1.85818,0.40412 2.7106,0.40412 1.23835,0 2.19733,-0.25079 2.87822,-0.75367 0.6809,-0.50288 1.02005,-1.20587 1.02005,-2.10897 0,-1.29942 -1.24355,-2.19732 -3.73065,-2.695 l -0.12214,-0.0299 -1.05124,-0.21311 c -1.61388,-0.31446 -2.79116,-0.84462 -3.53313,-1.59179 -0.74198,-0.74717 -1.11101,-1.76332 -1.11101,-3.05365 0,-1.63468 0.55355,-2.89642 1.65936,-3.78393 1.10581,-0.8875 2.68462,-1.33191 4.73641,-1.33191 0.91349,0 1.7919,0.0832 2.63393,0.25079 0.84203,0.16763 1.67106,0.41842 2.4832,0.75367 z"
     id="path345" /><path
     style="fill:none;stroke:#000000;stroke-width:0.324856"
     d="m 224.42324,435.38947 c -0.75107,0.43661 -1.52552,0.76406 -2.32207,0.98236 -0.79655,0.21831 -1.61129,0.32746 -2.44422,0.32746 -2.63913,0 -4.70262,-0.79135 -6.19046,-2.37535 -1.48784,-1.584 -2.23111,-3.77613 -2.23111,-6.57769 0,-2.80156 0.74327,-4.99499 2.23111,-6.57769 1.48784,-1.5827 3.55003,-2.37535 6.19046,-2.37535 0.82254,0 1.62428,0.10656 2.40654,0.31966 0.78225,0.21311 1.5684,0.54316 2.35975,0.99016 v 2.9393 c -0.74067,-0.66011 -1.48524,-1.13699 -2.23111,-1.43196 -0.74587,-0.29497 -1.5918,-0.44181 -2.53518,-0.44181 -1.75682,0 -3.10692,0.56915 -4.05031,1.70485 -0.94338,1.13569 -1.41637,2.76128 -1.41637,4.87284 0,2.10117 0.47429,3.72285 1.42417,4.86505 0.94988,1.14219 2.29738,1.71264 4.04251,1.71264 0.97457,0 1.84778,-0.14943 2.61964,-0.4496 0.77186,-0.30017 1.48784,-0.76406 2.14665,-1.39298 z"
     id="path347" /><path
     style="fill:none;stroke:#000000;stroke-width:0.324856"
     d="m 236.42213,418.79191 c 2.36496,0 4.17505,0.76666 5.429,2.29999 1.25395,1.53332 1.88027,3.75144 1.88027,6.65435 0,2.91331 -0.62373,5.13403 -1.87247,6.66215 -1.24875,1.52813 -3.06015,2.29219 -5.4368,2.29219 -2.36495,0 -4.17245,-0.76406 -5.4212,-2.29219 -1.24875,-1.52812 -1.87247,-3.74884 -1.87247,-6.66215 0,-2.90291 0.62372,-5.12103 1.87247,-6.65435 1.24875,-1.53333 3.05625,-2.29999 5.4212,-2.29999 z m 0,2.37535 c -1.42157,0 -2.49749,0.55356 -3.22777,1.65937 -0.73028,1.10581 -1.09671,2.74568 -1.09671,4.91832 0,2.16225 0.36513,3.79952 1.09671,4.91053 0.73158,1.11101 1.8075,1.66716 3.22777,1.66716 1.43197,0 2.51309,-0.55615 3.24337,-1.66716 0.73027,-1.11101 1.09671,-2.74828 1.09671,-4.91053 0,-2.17264 -0.36514,-3.81251 -1.09671,-4.91832 -0.73158,-1.10581 -1.8114,-1.65937 -3.24337,-1.65937 z"
     id="path349" /><path
     style="fill:none;stroke:#000000;stroke-width:0.324856"
     d="m 251.52795,434.11083 v 8.63468 h -2.81716 v -23.54168 h 2.81716 v 2.17784 c 0.46649,-0.84203 1.08892,-1.48525 1.86597,-1.92575 0.77706,-0.44051 1.67236,-0.66271 2.68721,-0.66271 2.06089,0 3.67738,0.79655 4.84946,2.39094 1.17208,1.5944 1.75942,3.80212 1.75942,6.62447 0,2.77168 -0.58864,4.94691 -1.76592,6.52442 -1.17728,1.5775 -2.79116,2.36755 -4.84296,2.36755 -1.03564,0 -1.94134,-0.2209 -2.71839,-0.66271 -0.77706,-0.4418 -1.38779,-1.08502 -1.83479,-1.92705 z m 8.22276,-6.36588 c 0,-2.17264 -0.34305,-3.81251 -1.02785,-4.91832 -0.68479,-1.10581 -1.70354,-1.65937 -3.05364,-1.65937 -1.3605,0 -2.39095,0.55616 -3.09134,1.66716 -0.70039,1.11101 -1.05123,2.74829 -1.05123,4.91053 0,2.15185 0.35084,3.78653 1.05123,4.90273 0.70039,1.11621 1.73084,1.67496 3.09134,1.67496 1.3501,0 2.36755,-0.55355 3.05364,-1.65936 0.6861,-1.10582 1.02785,-2.74569 1.02785,-4.91833 z"
     id="path351" /><path
     style="fill:none;stroke:#000000;stroke-width:0.324856"
     d="m 281.64862,426.32858 v 1.37089 h -12.13663 v 0.091 c -0.0806,2.32467 0.36254,3.99443 1.33191,5.00929 0.96937,1.01485 2.33767,1.52292 4.10358,1.52292 0.89401,0 1.827,-0.14164 2.80157,-0.42621 0.97456,-0.28457 2.0154,-0.71598 3.12121,-1.29423 v 2.78727 c -1.06552,0.43661 -2.09337,0.76406 -3.08353,0.98236 -0.99016,0.21831 -1.94654,0.32746 -2.87043,0.32746 -2.64953,0 -4.72081,-0.79395 -6.21255,-2.38315 -1.49174,-1.58919 -2.23891,-3.77872 -2.23891,-6.57119 0,-2.72099 0.73028,-4.89363 2.19343,-6.51791 1.46315,-1.62429 3.41099,-2.43643 5.84741,-2.43643 2.17264,0 3.88528,0.73548 5.13923,2.20773 1.25394,1.47225 1.92185,3.24986 2.00371,5.33024 z m -2.80286,-0.82124 c -0.12215,-1.17728 -0.55096,-2.19473 -1.28643,-3.05365 -0.73548,-0.85892 -1.79451,-1.28643 -3.1745,-1.28643 -1.3501,0 -2.46241,0.447 -3.33432,1.33971 -0.87191,0.8927 -1.3501,1.89846 -1.43197,3.01467 z"
     id="path353" /><path
     style="fill:none;stroke:#000000;stroke-width:0.324856"
     d="m 121.9103,450.94619 h 3.73065 l 6.95842,22.73473 h -3.18229 l -1.67496,-5.92407 h -7.96417 l -1.64507,5.92407 h -3.1823 z m 1.85818,2.7106 -3.24336,11.63375 h 6.48673 z"
     id="path355" /><path
     style="fill:none;stroke:#000000;stroke-width:0.324856"
     d="m 146.22904,458.80381 v -8.8166 h 2.80156 v 23.69371 h -2.80156 v -2.14665 c -0.46649,0.84203 -1.08891,1.48525 -1.86597,1.92575 -0.77706,0.44051 -1.67236,0.66271 -2.68721,0.66271 -2.06089,0 -3.68257,-0.79915 -4.86505,-2.39874 -1.18248,-1.59959 -1.77371,-3.80472 -1.77371,-6.61667 0,-2.77167 0.59383,-4.94691 1.78151,-6.52441 1.18767,-1.57751 2.80676,-2.36756 4.85725,-2.36756 1.02524,0 1.92834,0.22091 2.7106,0.66271 0.78225,0.4418 1.39558,1.08242 1.84258,1.92575 z m -8.23835,6.36458 c 0,2.17264 0.34565,3.81251 1.03564,4.91833 0.69,1.10581 1.71004,1.65936 3.06015,1.65936 1.3501,0 2.37794,-0.55875 3.08353,-1.67496 0.70559,-1.1162 1.05773,-2.75088 1.05773,-4.90273 0,-2.16224 -0.35214,-3.79952 -1.05773,-4.91053 -0.70559,-1.111 -1.73343,-1.66716 -3.08353,-1.66716 -1.35011,0 -2.37015,0.55356 -3.06015,1.65937 -0.68999,1.10581 -1.03564,2.74568 -1.03564,4.91832 z"
     id="path357" /><path
     style="fill:none;stroke:#000000;stroke-width:0.324856"
     d="m 165.00444,458.80381 v -8.8166 h 2.80156 v 23.69371 h -2.80156 v -2.14665 c -0.4665,0.84203 -1.08892,1.48525 -1.86598,1.92575 -0.77706,0.44051 -1.67236,0.66271 -2.68721,0.66271 -2.06089,0 -3.68257,-0.79915 -4.86505,-2.39874 -1.18247,-1.59959 -1.77371,-3.80472 -1.77371,-6.61667 0,-2.77167 0.59383,-4.94691 1.78151,-6.52441 1.18767,-1.57751 2.80676,-2.36756 4.85725,-2.36756 1.02525,0 1.92835,0.22091 2.7106,0.66271 0.78225,0.4418 1.39558,1.08242 1.84259,1.92575 z m -8.23836,6.36458 c 0,2.17264 0.34565,3.81251 1.03564,4.91833 0.69,1.10581 1.71005,1.65936 3.06015,1.65936 1.3501,0 2.37795,-0.55875 3.08353,-1.67496 0.70559,-1.1162 1.05774,-2.75088 1.05774,-4.90273 0,-2.16224 -0.35215,-3.79952 -1.05774,-4.91053 -0.70558,-1.111 -1.73343,-1.66716 -3.08353,-1.66716 -1.3501,0 -2.37015,0.55356 -3.06015,1.65937 -0.68999,1.10581 -1.03564,2.74568 -1.03564,4.91832 z"
     id="path359" /><path
     style="fill:none;stroke:#000000;stroke-width:0.324856"
     d="m 172.26822,462.6553 h 16.14146 v 2.57287 h -16.14146 z"
     id="path361" /><path
     style="fill:none;stroke:#000000;stroke-width:0.324856"
     d="m 198.87135,456.21405 c 2.36495,0 4.17505,0.76666 5.429,2.29999 1.25394,1.53332 1.88026,3.75144 1.88026,6.65435 0,2.91331 -0.62372,5.13403 -1.87247,6.66215 -1.24874,1.52813 -3.06014,2.29219 -5.43679,2.29219 -2.36495,0 -4.17245,-0.76406 -5.4212,-2.29219 -1.24875,-1.52812 -1.87247,-3.74884 -1.87247,-6.66215 0,-2.90291 0.62372,-5.12103 1.87247,-6.65435 1.24875,-1.53333 3.05495,-2.29999 5.4212,-2.29999 z m 0,2.37665 c -1.42157,0 -2.4975,0.55356 -3.22777,1.65937 -0.73028,1.10581 -1.09672,2.74568 -1.09672,4.91832 0,2.16225 0.36514,3.79952 1.09672,4.91053 0.73157,1.11101 1.8075,1.66716 3.22777,1.66716 1.43197,0 2.51309,-0.55615 3.24336,-1.66716 0.73028,-1.11101 1.09672,-2.74828 1.09672,-4.91053 0,-2.17264 -0.36514,-3.81251 -1.09672,-4.91832 -0.73157,-1.10581 -1.81269,-1.65937 -3.24336,-1.65937 z"
     id="path363" /><path
     style="fill:none;stroke:#000000;stroke-width:0.324856"
     d="m 224.26991,463.1127 v 10.56822 h -2.81715 V 463.1127 c 0,-1.53332 -0.26898,-2.65992 -0.80695,-3.3811 -0.53796,-0.72118 -1.37999,-1.08112 -2.52738,-1.08112 -1.30982,0 -2.31687,0.46389 -3.02246,1.39298 -0.70559,0.92909 -1.05773,2.261 -1.05773,3.99703 v 9.63914 h -2.80156 v -17.05496 h 2.80156 v 2.55857 c 0.49768,-0.97457 1.17208,-1.71264 2.0258,-2.21552 0.85372,-0.50288 1.86338,-0.75367 3.03026,-0.75367 1.73603,0 3.03286,0.57045 3.89048,1.71265 0.85762,1.14219 1.28513,2.87173 1.28513,5.186 z"
     id="path365" /><path
     style="fill:none;stroke:#000000;stroke-width:0.324856"
     d="m 241.85893,457.21981 v 2.74049 c -0.80175,-0.4665 -1.60869,-0.81734 -2.42083,-1.05124 -0.81214,-0.23389 -1.63988,-0.35084 -2.4819,-0.35084 -1.26954,0 -2.21552,0.20531 -2.84055,0.61722 -0.62502,0.41192 -0.93688,1.03824 -0.93688,1.88027 0,0.76146 0.23389,1.32931 0.70039,1.70485 0.46649,0.37553 1.62948,0.74067 3.48765,1.09671 l 1.12661,0.21311 c 1.39038,0.26378 2.44421,0.79135 3.1602,1.584 0.71598,0.79265 1.07332,1.82179 1.07332,3.09133 0,1.68535 -0.59903,3.00297 -1.7971,3.95155 -1.19807,0.94858 -2.86264,1.42417 -4.99499,1.42417 -0.84203,0 -1.72564,-0.0884 -2.64953,-0.26638 -0.92389,-0.17802 -1.92315,-0.44441 -3.00037,-0.79915 v -2.89382 c 1.04604,0.53796 2.04529,0.94209 3.00037,1.21107 0.95508,0.26898 1.85818,0.40412 2.7106,0.40412 1.23835,0 2.19733,-0.25079 2.87823,-0.75367 0.6809,-0.50288 1.02005,-1.20587 1.02005,-2.10897 0,-1.29942 -1.24355,-2.19732 -3.73065,-2.695 l -0.12215,-0.0299 -1.05123,-0.21311 c -1.61389,-0.31446 -2.79117,-0.84462 -3.53314,-1.59179 -0.74197,-0.74717 -1.11101,-1.76332 -1.11101,-3.05365 0,-1.63468 0.55356,-2.89642 1.65937,-3.78393 1.10581,-0.8875 2.68461,-1.33191 4.7364,-1.33191 0.9135,0 1.79191,0.0832 2.63394,0.25079 0.84202,0.16763 1.67106,0.41842 2.4832,0.75367 z"
     id="path367" /><g
     id="g435"
     transform="matrix(1.299425,0,0,1.299425,-25.949967,-115.99814)">
			<path
   style="fill:none;stroke:#000000;stroke-width:0.25"
   d="m 399.105,614.578 c 0,0.984 -0.232,1.73 -0.697,2.238 -0.465,0.508 -1.148,0.762 -2.051,0.762 -0.297,0 -0.607,-0.027 -0.932,-0.082 -0.325,-0.055 -0.648,-0.135 -0.973,-0.24 v -1.066 c 0.383,0.18 0.73,0.312 1.043,0.398 0.313,0.086 0.6,0.129 0.861,0.129 0.582,0 1.006,-0.158 1.271,-0.475 0.265,-0.317 0.398,-0.818 0.398,-1.506 v -0.047 -0.732 c -0.172,0.367 -0.406,0.641 -0.703,0.82 -0.297,0.179 -0.658,0.27 -1.084,0.27 -0.766,0 -1.377,-0.307 -1.834,-0.92 -0.457,-0.613 -0.686,-1.434 -0.686,-2.461 0,-1.031 0.229,-1.854 0.686,-2.467 0.457,-0.613 1.068,-0.92 1.834,-0.92 0.422,0 0.779,0.084 1.072,0.252 0.293,0.168 0.531,0.428 0.715,0.779 v -0.85 h 1.078 v 6.118 z m -1.078,-2.912 c 0,-0.809 -0.132,-1.423 -0.396,-1.843 -0.264,-0.42 -0.647,-0.63 -1.151,-0.63 -0.527,0 -0.93,0.21 -1.207,0.63 -0.277,0.42 -0.416,1.034 -0.416,1.843 0,0.809 0.14,1.425 0.419,1.849 0.279,0.424 0.685,0.636 1.216,0.636 0.496,0 0.876,-0.213 1.14,-0.639 0.264,-0.426 0.395,-1.041 0.395,-1.846 z"
   id="path369" />
			<path
   style="fill:none;stroke:#000000;stroke-width:0.25"
   d="m 402.076,608.461 h 2.76 v 5.701 h 2.139 V 615 h -5.355 v -0.838 h 2.139 v -4.863 h -1.682 v -0.838 z m 1.682,-2.549 h 1.078 v 1.359 h -1.078 z"
   id="path371" />
			<path
   style="fill:none;stroke:#000000;stroke-width:0.25"
   d="m 411.047,606.574 v 1.863 h 2.449 v 0.838 h -2.449 v 3.562 c 0,0.484 0.092,0.822 0.275,1.014 0.183,0.192 0.504,0.287 0.961,0.287 h 1.213 V 615 h -1.318 c -0.809,0 -1.379,-0.162 -1.711,-0.486 -0.332,-0.324 -0.498,-0.883 -0.498,-1.676 v -3.562 h -1.752 v -0.838 h 1.752 v -1.863 h 1.078 z"
   id="path373" />
			<path
   style="fill:none;stroke:#000000;stroke-width:0.25"
   d="M 420.832,610.934 V 615 h -1.084 v -4.066 c 0,-0.59 -0.104,-1.023 -0.311,-1.301 -0.207,-0.278 -0.531,-0.416 -0.973,-0.416 -0.504,0 -0.892,0.179 -1.163,0.536 -0.271,0.357 -0.407,0.87 -0.407,1.538 V 615 h -1.078 v -9.117 h 1.078 v 3.539 c 0.191,-0.375 0.451,-0.659 0.779,-0.853 0.328,-0.194 0.717,-0.29 1.166,-0.29 0.668,0 1.167,0.22 1.497,0.659 0.33,0.439 0.496,1.105 0.496,1.996 z"
   id="path375" />
			<path
   style="fill:none;stroke:#000000;stroke-width:0.25"
   d="m 423.041,612.516 v -4.066 h 1.078 v 4.066 c 0,0.59 0.104,1.023 0.313,1.301 0.209,0.278 0.532,0.416 0.97,0.416 0.508,0 0.896,-0.179 1.166,-0.536 0.27,-0.357 0.404,-0.87 0.404,-1.538 v -3.709 h 1.084 V 615 h -1.084 v -0.984 c -0.191,0.379 -0.452,0.666 -0.782,0.861 -0.33,0.195 -0.716,0.293 -1.157,0.293 -0.672,0 -1.172,-0.22 -1.5,-0.659 -0.328,-0.439 -0.492,-1.105 -0.492,-1.995 z"
   id="path377" />
			<path
   style="fill:none;stroke:#000000;stroke-width:0.25"
   d="m 431.332,609.275 c 0.172,-0.32 0.409,-0.566 0.712,-0.738 0.303,-0.172 0.653,-0.258 1.052,-0.258 0.789,0 1.41,0.304 1.863,0.911 0.453,0.607 0.68,1.444 0.68,2.511 0,1.082 -0.228,1.931 -0.683,2.546 -0.455,0.615 -1.079,0.923 -1.872,0.923 -0.391,0 -0.735,-0.085 -1.034,-0.255 -0.299,-0.17 -0.538,-0.417 -0.718,-0.741 V 615 h -1.078 v -9.117 h 1.078 z m 3.17,2.45 c 0,-0.836 -0.133,-1.467 -0.398,-1.893 -0.265,-0.426 -0.658,-0.639 -1.178,-0.639 -0.523,0 -0.92,0.214 -1.189,0.642 -0.269,0.428 -0.404,1.058 -0.404,1.89 0,0.828 0.135,1.457 0.404,1.887 0.269,0.43 0.666,0.645 1.189,0.645 0.52,0 0.912,-0.213 1.178,-0.639 0.266,-0.426 0.398,-1.057 0.398,-1.893 z"
   id="path379" />
			<path
   style="fill:none;stroke:#000000;stroke-width:0.25"
   d="m 438.627,612.633 h 2.062 V 615 h -2.062 z"
   id="path381" />
			<path
   style="fill:none;stroke:#000000;stroke-width:0.25"
   d="m 449.789,614.666 c -0.289,0.168 -0.587,0.294 -0.894,0.378 -0.307,0.084 -0.62,0.126 -0.94,0.126 -1.016,0 -1.81,-0.305 -2.382,-0.914 -0.572,-0.609 -0.858,-1.453 -0.858,-2.531 0,-1.078 0.286,-1.922 0.858,-2.531 0.572,-0.609 1.366,-0.914 2.382,-0.914 0.316,0 0.625,0.041 0.926,0.123 0.301,0.082 0.604,0.209 0.908,0.381 v 1.131 c -0.285,-0.254 -0.571,-0.438 -0.858,-0.551 -0.287,-0.113 -0.612,-0.17 -0.976,-0.17 -0.676,0 -1.195,0.219 -1.559,0.656 -0.364,0.437 -0.545,1.062 -0.545,1.875 0,0.809 0.183,1.433 0.548,1.872 0.365,0.439 0.884,0.659 1.556,0.659 0.375,0 0.711,-0.058 1.008,-0.173 0.297,-0.115 0.572,-0.294 0.826,-0.536 z"
   id="path383" />
			<path
   style="fill:none;stroke:#000000;stroke-width:0.25"
   d="m 454.406,608.279 c 0.91,0 1.606,0.295 2.089,0.885 0.483,0.59 0.724,1.443 0.724,2.561 0,1.121 -0.24,1.976 -0.721,2.563 -0.481,0.587 -1.178,0.882 -2.092,0.882 -0.91,0 -1.605,-0.294 -2.086,-0.882 -0.481,-0.588 -0.721,-1.442 -0.721,-2.563 0,-1.117 0.24,-1.971 0.721,-2.561 0.481,-0.59 1.176,-0.885 2.086,-0.885 z m 0,0.914 c -0.547,0 -0.961,0.213 -1.242,0.639 -0.281,0.426 -0.422,1.057 -0.422,1.893 0,0.832 0.141,1.462 0.422,1.89 0.281,0.428 0.695,0.642 1.242,0.642 0.551,0 0.967,-0.214 1.248,-0.642 0.281,-0.428 0.422,-1.058 0.422,-1.89 0,-0.836 -0.141,-1.467 -0.422,-1.893 -0.281,-0.426 -0.697,-0.639 -1.248,-0.639 z"
   id="path385" />
			<path
   style="fill:none;stroke:#000000;stroke-width:0.25"
   d="m 461.982,609.105 c 0.133,-0.281 0.302,-0.489 0.507,-0.624 0.205,-0.135 0.452,-0.202 0.741,-0.202 0.527,0 0.899,0.204 1.116,0.612 0.217,0.408 0.325,1.177 0.325,2.306 V 615 h -0.984 v -3.756 c 0,-0.926 -0.052,-1.501 -0.155,-1.726 -0.103,-0.225 -0.292,-0.337 -0.565,-0.337 -0.312,0 -0.526,0.12 -0.642,0.36 -0.116,0.24 -0.173,0.808 -0.173,1.702 V 615 h -0.984 v -3.756 c 0,-0.938 -0.056,-1.516 -0.167,-1.734 -0.111,-0.218 -0.312,-0.328 -0.601,-0.328 -0.285,0 -0.483,0.12 -0.595,0.36 -0.112,0.24 -0.167,0.808 -0.167,1.702 V 615 h -0.979 v -6.562 h 0.979 V 609 c 0.129,-0.234 0.29,-0.413 0.483,-0.536 0.193,-0.123 0.413,-0.185 0.659,-0.185 0.297,0 0.544,0.068 0.741,0.205 0.197,0.137 0.352,0.344 0.461,0.621 z"
   id="path387" />
			<path
   style="fill:none;stroke:#000000;stroke-width:0.25"
   d="m 470.455,606.252 h 1.113 l -4.605,9.861 h -1.119 z"
   id="path389" />
			<path
   style="fill:none;stroke:#000000;stroke-width:0.25"
   d="m 478.688,614.666 c -0.289,0.168 -0.587,0.294 -0.894,0.378 -0.307,0.084 -0.62,0.126 -0.94,0.126 -1.016,0 -1.81,-0.305 -2.382,-0.914 -0.572,-0.609 -0.858,-1.453 -0.858,-2.531 0,-1.078 0.286,-1.922 0.858,-2.531 0.572,-0.609 1.366,-0.914 2.382,-0.914 0.316,0 0.625,0.041 0.926,0.123 0.301,0.082 0.604,0.209 0.908,0.381 v 1.131 c -0.285,-0.254 -0.571,-0.438 -0.858,-0.551 -0.287,-0.113 -0.612,-0.17 -0.976,-0.17 -0.676,0 -1.195,0.219 -1.559,0.656 -0.364,0.437 -0.545,1.062 -0.545,1.875 0,0.809 0.183,1.433 0.548,1.872 0.365,0.439 0.884,0.659 1.556,0.659 0.375,0 0.711,-0.058 1.008,-0.173 0.297,-0.115 0.572,-0.294 0.826,-0.536 z"
   id="path391" />
			<path
   style="fill:none;stroke:#000000;stroke-width:0.25"
   d="M 485.854,610.934 V 615 h -1.084 v -4.066 c 0,-0.59 -0.104,-1.023 -0.311,-1.301 -0.207,-0.278 -0.531,-0.416 -0.973,-0.416 -0.504,0 -0.892,0.179 -1.163,0.536 -0.271,0.357 -0.407,0.87 -0.407,1.538 V 615 h -1.078 v -9.117 h 1.078 v 3.539 c 0.191,-0.375 0.451,-0.659 0.779,-0.853 0.328,-0.194 0.717,-0.29 1.166,-0.29 0.668,0 1.167,0.22 1.497,0.659 0.33,0.439 0.496,1.105 0.496,1.996 z"
   id="path393" />
			<path
   style="fill:none;stroke:#000000;stroke-width:0.25"
   d="m 493.482,611.18 v 0.527 h -4.67 v 0.035 c -0.031,0.895 0.14,1.537 0.513,1.928 0.373,0.391 0.899,0.586 1.579,0.586 0.344,0 0.703,-0.055 1.078,-0.164 0.375,-0.109 0.775,-0.275 1.201,-0.498 v 1.072 c -0.41,0.168 -0.806,0.294 -1.187,0.378 -0.381,0.084 -0.749,0.126 -1.104,0.126 -1.02,0 -1.816,-0.306 -2.391,-0.917 -0.575,-0.611 -0.861,-1.454 -0.861,-2.528 0,-1.047 0.281,-1.883 0.844,-2.508 0.563,-0.625 1.312,-0.938 2.25,-0.938 0.836,0 1.495,0.283 1.978,0.85 0.483,0.567 0.739,1.25 0.77,2.051 z m -1.078,-0.317 c -0.047,-0.453 -0.212,-0.845 -0.495,-1.175 -0.283,-0.33 -0.69,-0.495 -1.222,-0.495 -0.52,0 -0.947,0.172 -1.283,0.516 -0.336,0.344 -0.52,0.73 -0.551,1.16 z"
   id="path395" />
			<path
   style="fill:none;stroke:#000000;stroke-width:0.25"
   d="M 500.35,611.256 V 615 h -1.084 v -0.973 c -0.23,0.391 -0.521,0.679 -0.87,0.864 -0.349,0.185 -0.774,0.278 -1.274,0.278 -0.668,0 -1.201,-0.188 -1.6,-0.565 -0.399,-0.377 -0.598,-0.882 -0.598,-1.515 0,-0.73 0.245,-1.285 0.735,-1.664 0.49,-0.379 1.21,-0.568 2.159,-0.568 h 1.447 v -0.17 c -0.004,-0.523 -0.137,-0.903 -0.398,-1.14 -0.261,-0.237 -0.68,-0.354 -1.254,-0.354 -0.367,0 -0.738,0.053 -1.113,0.158 -0.375,0.105 -0.74,0.26 -1.096,0.463 v -1.078 c 0.398,-0.152 0.78,-0.267 1.146,-0.343 0.366,-0.076 0.72,-0.114 1.063,-0.114 0.543,0 1.007,0.08 1.392,0.24 0.385,0.16 0.696,0.4 0.935,0.721 0.148,0.195 0.254,0.437 0.316,0.724 0.062,0.287 0.094,0.718 0.094,1.292 z m -2.092,0.445 H 497.9 c -0.629,0 -1.103,0.11 -1.421,0.331 -0.318,0.221 -0.478,0.55 -0.478,0.987 0,0.395 0.119,0.701 0.357,0.92 0.238,0.219 0.568,0.328 0.99,0.328 0.594,0 1.061,-0.206 1.4,-0.618 0.339,-0.412 0.512,-0.981 0.516,-1.708 v -0.24 z"
   id="path397" />
			<path
   style="fill:none;stroke:#000000;stroke-width:0.25"
   d="m 503.566,614.174 v 3.322 h -1.084 v -9.059 h 1.084 v 0.838 c 0.18,-0.324 0.419,-0.571 0.718,-0.741 0.299,-0.17 0.644,-0.255 1.034,-0.255 0.793,0 1.415,0.307 1.866,0.92 0.451,0.613 0.677,1.463 0.677,2.549 0,1.066 -0.227,1.903 -0.68,2.511 -0.453,0.608 -1.074,0.911 -1.863,0.911 -0.398,0 -0.747,-0.085 -1.046,-0.255 -0.299,-0.17 -0.534,-0.417 -0.706,-0.741 z m 3.164,-2.449 c 0,-0.836 -0.132,-1.467 -0.396,-1.893 -0.264,-0.426 -0.655,-0.639 -1.175,-0.639 -0.523,0 -0.92,0.214 -1.189,0.642 -0.269,0.428 -0.404,1.058 -0.404,1.89 0,0.828 0.135,1.457 0.404,1.887 0.269,0.43 0.666,0.645 1.189,0.645 0.52,0 0.911,-0.213 1.175,-0.639 0.264,-0.426 0.396,-1.057 0.396,-1.893 z"
   id="path399" />
			<path
   style="fill:none;stroke:#000000;stroke-width:0.25"
   d="m 512.109,615.117 v -5.842 h -1.857 v -0.838 h 2.936 v 6.68 c 0,0.762 -0.175,1.349 -0.524,1.761 -0.349,0.412 -0.847,0.618 -1.491,0.618 h -1.488 v -0.914 h 1.371 c 0.352,0 0.615,-0.122 0.791,-0.366 0.176,-0.244 0.262,-0.611 0.262,-1.099 z m 0,-9.234 h 1.078 v 1.365 h -1.078 z"
   id="path401" />
			<path
   style="fill:none;stroke:#000000;stroke-width:0.25"
   d="M 522.023,611.256 V 615 h -1.084 v -0.973 c -0.23,0.391 -0.521,0.679 -0.87,0.864 -0.349,0.185 -0.774,0.278 -1.274,0.278 -0.668,0 -1.201,-0.188 -1.6,-0.565 -0.399,-0.377 -0.598,-0.882 -0.598,-1.515 0,-0.73 0.245,-1.285 0.735,-1.664 0.49,-0.379 1.21,-0.568 2.159,-0.568 h 1.447 v -0.17 c -0.004,-0.523 -0.137,-0.903 -0.398,-1.14 -0.261,-0.237 -0.68,-0.354 -1.254,-0.354 -0.367,0 -0.738,0.053 -1.113,0.158 -0.375,0.105 -0.74,0.26 -1.096,0.463 v -1.078 c 0.398,-0.152 0.78,-0.267 1.146,-0.343 0.366,-0.076 0.72,-0.114 1.063,-0.114 0.543,0 1.007,0.08 1.392,0.24 0.385,0.16 0.696,0.4 0.935,0.721 0.148,0.195 0.254,0.437 0.316,0.724 0.062,0.287 0.094,0.718 0.094,1.292 z m -2.091,0.445 h -0.357 c -0.629,0 -1.103,0.11 -1.421,0.331 -0.318,0.221 -0.478,0.55 -0.478,0.987 0,0.395 0.119,0.701 0.357,0.92 0.238,0.219 0.568,0.328 0.99,0.328 0.594,0 1.061,-0.206 1.4,-0.618 0.339,-0.412 0.512,-0.981 0.516,-1.708 v -0.24 z"
   id="path403" />
			<path
   style="fill:none;stroke:#000000;stroke-width:0.25"
   d="m 529.26,614.666 c -0.289,0.168 -0.587,0.294 -0.894,0.378 -0.307,0.084 -0.62,0.126 -0.94,0.126 -1.016,0 -1.81,-0.305 -2.382,-0.914 -0.572,-0.609 -0.858,-1.453 -0.858,-2.531 0,-1.078 0.286,-1.922 0.858,-2.531 0.572,-0.609 1.366,-0.914 2.382,-0.914 0.316,0 0.625,0.041 0.926,0.123 0.301,0.082 0.604,0.209 0.908,0.381 v 1.131 c -0.285,-0.254 -0.571,-0.438 -0.858,-0.551 -0.287,-0.113 -0.612,-0.17 -0.976,-0.17 -0.676,0 -1.195,0.219 -1.559,0.656 -0.364,0.437 -0.545,1.062 -0.545,1.875 0,0.809 0.183,1.433 0.548,1.872 0.365,0.439 0.884,0.659 1.556,0.659 0.375,0 0.711,-0.058 1.008,-0.173 0.297,-0.115 0.572,-0.294 0.826,-0.536 z"
   id="path405" />
			<path
   style="fill:none;stroke:#000000;stroke-width:0.25"
   d="m 531.65,605.883 h 1.113 v 5.279 l 2.83,-2.725 h 1.312 l -2.584,2.473 2.988,4.09 h -1.318 l -2.426,-3.387 -0.803,0.756 V 615 h -1.113 v -9.117 z"
   id="path407" />
			<path
   style="fill:none;stroke:#000000;stroke-width:0.25"
   d="m 542.701,606.252 h 1.113 l -4.605,9.861 h -1.119 z"
   id="path409" />
			<path
   style="fill:none;stroke:#000000;stroke-width:0.25"
   d="m 545.977,606.252 h 1.189 v 7.752 h 4.225 V 615 h -5.414 z"
   id="path411" />
			<path
   style="fill:none;stroke:#000000;stroke-width:0.25"
   d="M 558.146,611.256 V 615 h -1.084 v -0.973 c -0.23,0.391 -0.521,0.679 -0.87,0.864 -0.349,0.185 -0.774,0.278 -1.274,0.278 -0.668,0 -1.201,-0.188 -1.6,-0.565 -0.399,-0.377 -0.598,-0.882 -0.598,-1.515 0,-0.73 0.245,-1.285 0.735,-1.664 0.49,-0.379 1.21,-0.568 2.159,-0.568 h 1.447 v -0.17 c -0.004,-0.523 -0.137,-0.903 -0.398,-1.14 -0.261,-0.237 -0.68,-0.354 -1.254,-0.354 -0.367,0 -0.738,0.053 -1.113,0.158 -0.375,0.105 -0.74,0.26 -1.096,0.463 v -1.078 c 0.398,-0.152 0.78,-0.267 1.146,-0.343 0.366,-0.076 0.72,-0.114 1.063,-0.114 0.543,0 1.007,0.08 1.392,0.24 0.385,0.16 0.696,0.4 0.935,0.721 0.148,0.195 0.254,0.437 0.316,0.724 0.062,0.287 0.094,0.718 0.094,1.292 z m -2.091,0.445 h -0.357 c -0.629,0 -1.103,0.11 -1.421,0.331 -0.318,0.221 -0.478,0.55 -0.478,0.987 0,0.395 0.119,0.701 0.357,0.92 0.238,0.219 0.568,0.328 0.99,0.328 0.594,0 1.061,-0.206 1.4,-0.618 0.339,-0.412 0.512,-0.981 0.516,-1.708 v -0.24 z"
   id="path413" />
			<path
   style="fill:none;stroke:#000000;stroke-width:0.25"
   d="m 561.375,609.275 c 0.172,-0.32 0.409,-0.566 0.712,-0.738 0.303,-0.172 0.653,-0.258 1.052,-0.258 0.789,0 1.41,0.304 1.863,0.911 0.453,0.607 0.68,1.444 0.68,2.511 0,1.082 -0.228,1.931 -0.683,2.546 -0.455,0.615 -1.079,0.923 -1.872,0.923 -0.391,0 -0.735,-0.085 -1.034,-0.255 -0.299,-0.17 -0.538,-0.417 -0.718,-0.741 V 615 h -1.078 v -9.117 h 1.078 z m 3.17,2.45 c 0,-0.836 -0.133,-1.467 -0.398,-1.893 -0.265,-0.426 -0.658,-0.639 -1.178,-0.639 -0.523,0 -0.92,0.214 -1.189,0.642 -0.269,0.428 -0.404,1.058 -0.404,1.89 0,0.828 0.135,1.457 0.404,1.887 0.269,0.43 0.666,0.645 1.189,0.645 0.52,0 0.912,-0.213 1.178,-0.639 0.266,-0.426 0.398,-1.057 0.398,-1.893 z"
   id="path415" />
			<path
   style="fill:none;stroke:#000000;stroke-width:0.25"
   d="m 567.756,606.252 h 5.15 v 0.996 h -3.961 v 2.344 h 3.592 v 0.996 h -3.592 V 615 h -1.189 z"
   id="path417" />
			<path
   style="fill:none;stroke:#000000;stroke-width:0.25"
   d="m 580.383,609.791 c -0.23,-0.18 -0.465,-0.311 -0.703,-0.393 -0.238,-0.082 -0.5,-0.123 -0.785,-0.123 -0.672,0 -1.186,0.211 -1.541,0.633 -0.355,0.422 -0.533,1.031 -0.533,1.828 V 615 h -1.084 v -6.562 h 1.084 v 1.283 c 0.18,-0.465 0.456,-0.821 0.829,-1.069 0.373,-0.248 0.815,-0.372 1.327,-0.372 0.266,0 0.514,0.033 0.744,0.1 0.23,0.067 0.451,0.17 0.662,0.311 z"
   id="path419" />
			<path
   style="fill:none;stroke:#000000;stroke-width:0.25"
   d="m 584.449,608.279 c 0.91,0 1.606,0.295 2.089,0.885 0.483,0.59 0.724,1.443 0.724,2.561 0,1.121 -0.24,1.976 -0.721,2.563 -0.481,0.587 -1.178,0.882 -2.092,0.882 -0.91,0 -1.605,-0.294 -2.086,-0.882 -0.481,-0.588 -0.721,-1.442 -0.721,-2.563 0,-1.117 0.24,-1.971 0.721,-2.561 0.481,-0.59 1.176,-0.885 2.086,-0.885 z m 0,0.914 c -0.547,0 -0.961,0.213 -1.242,0.639 -0.281,0.426 -0.422,1.057 -0.422,1.893 0,0.832 0.141,1.462 0.422,1.89 0.281,0.428 0.695,0.642 1.242,0.642 0.551,0 0.967,-0.214 1.248,-0.642 0.281,-0.428 0.422,-1.058 0.422,-1.89 0,-0.836 -0.141,-1.467 -0.422,-1.893 -0.281,-0.426 -0.697,-0.639 -1.248,-0.639 z"
   id="path421" />
			<path
   style="fill:none;stroke:#000000;stroke-width:0.25"
   d="m 592.025,609.105 c 0.133,-0.281 0.302,-0.489 0.507,-0.624 0.205,-0.135 0.452,-0.202 0.741,-0.202 0.527,0 0.899,0.204 1.116,0.612 0.217,0.408 0.325,1.177 0.325,2.306 V 615 h -0.984 v -3.756 c 0,-0.926 -0.052,-1.501 -0.155,-1.726 -0.103,-0.225 -0.292,-0.337 -0.565,-0.337 -0.312,0 -0.526,0.12 -0.642,0.36 -0.116,0.24 -0.173,0.808 -0.173,1.702 V 615 h -0.984 v -3.756 c 0,-0.938 -0.056,-1.516 -0.167,-1.734 -0.111,-0.218 -0.312,-0.328 -0.601,-0.328 -0.285,0 -0.483,0.12 -0.595,0.36 -0.112,0.24 -0.167,0.808 -0.167,1.702 V 615 h -0.979 v -6.562 h 0.979 V 609 c 0.129,-0.234 0.29,-0.413 0.483,-0.536 0.193,-0.123 0.413,-0.185 0.659,-0.185 0.297,0 0.544,0.068 0.741,0.205 0.197,0.137 0.352,0.344 0.461,0.621 z"
   id="path423" />
			<path
   style="fill:none;stroke:#000000;stroke-width:0.25"
   d="m 598.184,606.252 h 1.436 l 2.678,8.748 h -1.225 l -0.645,-2.279 h -3.064 L 596.73,615 h -1.225 z m 0.714,1.043 -1.248,4.477 h 2.496 z"
   id="path425" />
			<path
   style="fill:none;stroke:#000000;stroke-width:0.25"
   d="m 608.801,614.689 c -0.301,0.16 -0.609,0.28 -0.926,0.36 -0.317,0.08 -0.652,0.12 -1.008,0.12 -1.121,0 -1.991,-0.396 -2.61,-1.189 -0.619,-0.793 -0.929,-1.908 -0.929,-3.346 0,-1.43 0.312,-2.544 0.935,-3.343 0.623,-0.799 1.491,-1.198 2.604,-1.198 0.355,0 0.691,0.04 1.008,0.12 0.317,0.08 0.625,0.2 0.926,0.36 v 1.213 c -0.289,-0.238 -0.6,-0.42 -0.932,-0.545 -0.332,-0.125 -0.666,-0.188 -1.002,-0.188 -0.77,0 -1.346,0.297 -1.729,0.891 -0.383,0.594 -0.574,1.49 -0.574,2.689 0,1.195 0.191,2.09 0.574,2.684 0.383,0.594 0.959,0.891 1.729,0.891 0.344,0 0.681,-0.062 1.011,-0.188 0.33,-0.126 0.638,-0.307 0.923,-0.545 z"
   id="path427" />
			<path
   style="fill:none;stroke:#000000;stroke-width:0.25"
   d="M 615.896,610.934 V 615 h -1.084 v -4.066 c 0,-0.59 -0.104,-1.023 -0.311,-1.301 -0.207,-0.278 -0.531,-0.416 -0.973,-0.416 -0.504,0 -0.892,0.179 -1.163,0.536 -0.271,0.357 -0.407,0.87 -0.407,1.538 V 615 h -1.078 v -9.117 h 1.078 v 3.539 c 0.191,-0.375 0.451,-0.659 0.779,-0.853 0.328,-0.194 0.717,-0.29 1.166,-0.29 0.668,0 1.167,0.22 1.497,0.659 0.33,0.439 0.496,1.105 0.496,1.996 z"
   id="path429" />
			<path
   style="fill:none;stroke:#000000;stroke-width:0.25"
   d="m 618.814,608.461 h 2.76 v 5.701 h 2.139 V 615 h -5.355 v -0.838 h 2.139 v -4.863 h -1.682 v -0.838 z m 1.682,-2.549 h 1.078 v 1.359 h -1.078 z"
   id="path431" />
			<path
   style="fill:none;stroke:#000000;stroke-width:0.25"
   d="m 626.385,614.174 v 3.322 h -1.084 v -9.059 h 1.084 v 0.838 c 0.18,-0.324 0.419,-0.571 0.718,-0.741 0.299,-0.17 0.644,-0.255 1.034,-0.255 0.793,0 1.415,0.307 1.866,0.92 0.451,0.613 0.677,1.463 0.677,2.549 0,1.066 -0.227,1.903 -0.68,2.511 -0.453,0.608 -1.074,0.911 -1.863,0.911 -0.398,0 -0.747,-0.085 -1.046,-0.255 -0.299,-0.17 -0.534,-0.417 -0.706,-0.741 z m 3.164,-2.449 c 0,-0.836 -0.132,-1.467 -0.396,-1.893 -0.264,-0.426 -0.655,-0.639 -1.175,-0.639 -0.523,0 -0.92,0.214 -1.189,0.642 -0.269,0.428 -0.404,1.058 -0.404,1.89 0,0.828 0.135,1.457 0.404,1.887 0.269,0.43 0.666,0.645 1.189,0.645 0.52,0 0.911,-0.213 1.175,-0.639 0.264,-0.426 0.396,-1.057 0.396,-1.893 z"
   id="path433" />
		</g><circle
     id="circle2590"
     r="71.827019"
     cy="485.99298"
     cx="392.82352"
     style="fill:none;stroke:#000000;stroke-width:0.324856;stroke-miterlimit:10" /></g></svg>
