<?xml version="1.0" encoding="UTF-8" standalone="no"?>
<svg
   xmlns:dc="http://purl.org/dc/elements/1.1/"
   xmlns:cc="http://creativecommons.org/ns#"
   xmlns:rdf="http://www.w3.org/1999/02/22-rdf-syntax-ns#"
   xmlns:svg="http://www.w3.org/2000/svg"
   xmlns="http://www.w3.org/2000/svg"
   xmlns:sodipodi="http://sodipodi.sourceforge.net/DTD/sodipodi-0.dtd"
   xmlns:inkscape="http://www.inkscape.org/namespaces/inkscape"
   inkscape:version="1.0 (4035a4fb49, 2020-05-01)"
   sodipodi:docname="FoldscopeAddOn1.svg"
   xml:space="preserve"
   viewBox="0 0 755.90545 340.34066"
   height="340.34067"
   width="755.90546"
   y="0px"
   x="0px"
   id="Layer_1"
   version="1.0"><metadata
   id="metadata1297"><rdf:RDF><cc:Work
       rdf:about=""><dc:format>image/svg+xml</dc:format><dc:type
         rdf:resource="http://purl.org/dc/dcmitype/StillImage" /><dc:title /></cc:Work></rdf:RDF></metadata><defs
   id="defs1295">
	
	

		
		
		
		
		
		
		
		
		
		
		
		
		
		
		
		
		
		
		
		
		
		
		
		
		
		
		
		
		
		
		
		
		
		
		
		
		
		
		
		
		
		
		
		
		
		
		
		
		
		
		
		
		
		
		
		
		
		
		
		
		
		
		
		
		
		
		
		
		
		
	</defs><sodipodi:namedview
   inkscape:document-rotation="0"
   inkscape:current-layer="Layer_1"
   inkscape:window-maximized="0"
   inkscape:window-y="114"
   inkscape:window-x="163"
   inkscape:cy="167.60976"
   inkscape:cx="334.33992"
   inkscape:zoom="1.0975916"
   showgrid="false"
   id="namedview1293"
   inkscape:window-height="1020"
   inkscape:window-width="1723"
   inkscape:pageshadow="2"
   inkscape:pageopacity="0"
   guidetolerance="10"
   gridtolerance="10"
   objecttolerance="10"
   borderopacity="1"
   bordercolor="#666666"
   pagecolor="#ffffff" />


<path
   inkscape:connector-curvature="0"
   id="path1082"
   d="m 755.73498,321.28339 c 0,10.43268 -8.45756,18.88891 -18.88891,18.88891 H 19.055502 c -10.4326807,0 -18.88890963,-8.45756 -18.88890963,-18.88891 V 19.055502 C 0.16659237,8.6228213 8.6241541,0.16659237 19.055502,0.16659237 H 736.84607 c 10.43135,0 18.88891,8.45756173 18.88891,18.88890963 z"
   style="fill:none;stroke:#ff0000;stroke-width:0.333185;stroke-miterlimit:10;stroke-opacity:1" /><path
   inkscape:connector-curvature="0"
   id="path1088"
   d="m 661.52565,177.05704 c -3.24265,0.18659 -6.41691,0.57308 -9.53009,1.10484 L 336.5803,214.70825 c -31.82273,1.83252 -55.99637,26.95331 -53.99463,56.10431 2.00029,29.15367 29.42094,51.29979 61.24221,49.46595 l 317.92908,0.052 c 3.16263,0.16926 6.36308,0.18792 9.60427,10e-4 43.18726,-2.48823 75.99487,-36.57836 73.27885,-76.14338 -2.71603,-39.56502 -39.93008,-69.61962 -83.11443,-67.1314 z"
   style="fill:none;stroke:#000000;stroke-width:0.348102;stroke-miterlimit:10" /><path
   inkscape:connector-curvature="0"
   id="path1090"
   d="m 92.481052,60.093202 c 3.180448,0 6.311025,0.202576 9.390308,0.554419 L 412.6636,78.983444 c 31.23027,0 56.54849,23.680106 56.54849,52.889746 0,29.21097 -25.31822,52.89108 -56.54849,52.89108 l -310.79367,18.33316 c -3.079279,0.35184 -6.207004,0.55442 -9.388878,0.55442 -42.384646,0 -76.74407,-32.13634 -76.74407,-71.77866 0,-39.64232 34.359424,-71.779988 76.74407,-71.779988 z"
   style="fill:none;stroke:#000000;stroke-width:0.344517;stroke-miterlimit:10" /><path
   inkscape:connector-curvature="0"
   id="path1098"
   d="m 35.297592,279.86986 h 3.170586 v 20.66278 H 49.72849 v 2.65482 H 35.297592 Z"
   style="fill:none;stroke:#b800d4;stroke-width:0.333185;stroke-opacity:1" /><path
   inkscape:connector-curvature="0"
   id="path1100"
   d="m 67.735127,293.20791 v 9.97955 h -2.889378 v -2.59218 c -0.614393,1.04087 -1.387382,1.80853 -2.318966,2.30431 -0.931585,0.49578 -2.064413,0.74233 -3.397152,0.74233 -1.780539,0 -3.201239,-0.50244 -4.263432,-1.50732 -1.062193,-1.00489 -1.592623,-2.35095 -1.592623,-4.03687 0,-1.94713 0.653042,-3.42514 1.960459,-4.43536 1.307417,-1.01021 3.225228,-1.51532 5.754767,-1.51532 h 3.85828 v -0.45313 c -0.01066,-1.39538 -0.363838,-2.40826 -1.062193,-3.03731 -0.698356,-0.62906 -1.811193,-0.94491 -3.34251,-0.94491 -0.97823,0 -1.968455,0.13993 -2.96801,0.42114 -0.999554,0.28121 -1.972453,0.69303 -2.920031,1.23412 v -2.87339 c 1.062193,-0.40648 2.080406,-0.71035 3.053305,-0.91426 0.9729,-0.20391 1.917812,-0.30519 2.834736,-0.30519 1.447355,0 2.684136,0.21323 3.709013,0.63971 1.024876,0.42648 1.856505,1.06752 2.490889,1.92048 0.395823,0.5211 0.677031,1.16348 0.843624,1.92847 0.166592,0.76499 0.249222,1.91381 0.249222,3.44513 z m -5.574847,1.18614 h -0.952909 c -1.676585,0 -2.938689,0.29453 -3.787644,0.88227 -0.848955,0.58774 -1.272766,1.46601 -1.272766,2.63216 0,1.05153 0.317192,1.8685 0.952909,2.45224 0.635716,0.58374 1.515324,0.87428 2.638823,0.87428 1.583294,0 2.826739,-0.54909 3.733002,-1.64727 0.906262,-1.09817 1.363392,-2.61616 1.374054,-4.55263 v -0.63972 H 62.16028 Z"
   style="fill:none;stroke:#b800d4;stroke-width:0.333185;stroke-opacity:1" /><path
   inkscape:connector-curvature="0"
   id="path1102"
   d="m 76.340623,287.92893 c 0.458462,-0.85428 1.09018,-1.50999 1.89782,-1.96845 0.80764,-0.45847 1.74189,-0.6877 2.804083,-0.6877 2.103062,0 3.758324,0.80898 4.967118,2.42825 1.208794,1.61928 1.811192,3.85029 1.811192,6.69169 0,2.88404 -0.606396,5.1457 -1.819188,6.7863 -1.212793,1.6406 -2.876051,2.46024 -4.989775,2.46024 -1.040869,0 -1.960459,-0.22657 -2.756104,-0.6797 -0.795646,-0.45313 -1.434028,-1.1115 -1.913814,-1.97512 v 2.20302 H 73.46857 V 278.8863 h 2.873385 v 9.04263 z m 8.449565,6.52776 c 0,-2.22834 -0.354509,-3.91026 -1.062193,-5.04442 -0.707684,-1.13416 -1.753885,-1.70191 -3.1386,-1.70191 -1.395378,0 -2.45224,0.57041 -3.170586,1.70991 -0.718347,1.13949 -1.078186,2.81874 -1.078186,5.03642 0,2.20701 0.359839,3.8836 1.078186,5.02842 0.718346,1.14482 1.775208,1.7179 3.170586,1.7179 1.384715,0 2.430916,-0.56774 3.1386,-1.70191 0.707684,-1.13416 1.062193,-2.81607 1.062193,-5.04441 z"
   style="fill:none;stroke:#b800d4;stroke-width:0.333185;stroke-opacity:1" /><path
   inkscape:connector-curvature="0"
   id="path1104"
   d="m 93.349038,279.86986 h 13.728542 v 2.65482 H 96.519624 v 6.24788 h 9.574396 v 2.65481 h -9.574396 v 11.76009 h -3.170586 z"
   style="fill:none;stroke:#b800d4;stroke-width:0.333185;stroke-opacity:1" /><path
   inkscape:connector-curvature="0"
   id="path1106"
   d="m 127.00603,289.30299 c -0.61439,-0.47846 -1.23945,-0.82764 -1.87383,-1.0462 -0.63439,-0.21857 -1.33274,-0.32786 -2.0924,-0.32786 -1.7912,0 -3.15993,0.56242 -4.1075,1.68725 -0.94758,1.12483 -1.4207,2.74811 -1.4207,4.87249 v 8.69879 h -2.88938 v -17.4922 h 2.88938 v 3.41981 c 0.47845,-1.23945 1.21545,-2.18969 2.20968,-2.85073 0.99422,-0.66104 2.17369,-0.99156 3.53709,-0.99156 0.70768,0 1.36872,0.088 1.98311,0.26522 0.61439,0.17725 1.20213,0.45313 1.76455,0.82763 z"
   style="fill:none;stroke:#b800d4;stroke-width:0.333185;stroke-opacity:1" /><path
   inkscape:connector-curvature="0"
   id="path1108"
   d="m 137.84519,285.27412 c 2.42559,0 4.2821,0.78631 5.56819,2.35894 1.28609,1.57264 1.92847,3.84762 1.92847,6.82496 0,2.988 -0.63971,5.26565 -1.92048,6.83295 -1.28076,1.5673 -3.1386,2.35095 -5.57618,2.35095 -2.42558,0 -4.27942,-0.78365 -5.56018,-2.35095 -1.28076,-1.5673 -1.92048,-3.84495 -1.92048,-6.83295 0,-2.97734 0.63972,-5.25232 1.92048,-6.82496 1.28076,-1.57263 3.1346,-2.35894 5.56018,-2.35894 z m 0,2.43624 c -1.45801,0 -2.56152,0.56775 -3.31052,1.70191 -0.749,1.13416 -1.12483,2.81608 -1.12483,5.04442 0,2.21768 0.3745,3.89693 1.12483,5.03642 0.75033,1.13949 1.85384,1.7099 3.31052,1.7099 1.46868,0 2.57752,-0.57041 3.32652,-1.7099 0.749,-1.13949 1.12483,-2.81874 1.12483,-5.03642 0,-2.22834 -0.3745,-3.91026 -1.12483,-5.04442 -0.75033,-1.13416 -1.85917,-1.70191 -3.32652,-1.70191 z"
   style="fill:none;stroke:#b800d4;stroke-width:0.333185;stroke-opacity:1" /><path
   inkscape:connector-curvature="0"
   id="path1110"
   d="m 158.03886,287.4758 c 0.3545,-0.749 0.80497,-1.30475 1.35139,-1.66326 0.54643,-0.3585 1.2048,-0.53842 1.97512,-0.53842 1.40604,0 2.3976,0.54375 2.97468,1.6326 0.57707,1.08885 0.86628,3.13727 0.86628,6.14526 v 10.13548 h -2.62417 v -10.01153 c 0,-2.46824 -0.1386,-4.00089 -0.41448,-4.59929 -0.27588,-0.5984 -0.77832,-0.89826 -1.50733,-0.89826 -0.83296,0 -1.40337,0.31985 -1.7099,0.9609 -0.30653,0.64105 -0.46113,2.15238 -0.46113,4.53665 v 10.01153 h -2.62416 v -10.01153 c 0,-2.49889 -0.14794,-4.03954 -0.44514,-4.62328 -0.2972,-0.58374 -0.83029,-0.87427 -1.60062,-0.87427 -0.75966,0 -1.28875,0.31985 -1.58462,0.9609 -0.29587,0.64105 -0.44514,2.15238 -0.44514,4.53665 v 10.01153 h -2.60817 v -17.4922 h 2.60817 v 1.49933 c 0.34385,-0.62505 0.77299,-1.10084 1.28876,-1.42869 0.51577,-0.32786 1.10084,-0.49178 1.75655,-0.49178 0.79165,0 1.45002,0.18258 1.97512,0.54642 0.5251,0.36384 0.93692,0.91559 1.22879,1.65526 z"
   style="fill:none;stroke:#b800d4;stroke-width:0.333185;stroke-opacity:1" /><path
   inkscape:connector-curvature="0"
   id="path1112"
   d="m 174.4542,279.86986 h 3.8263 l 7.13681,23.3176 h -3.26387 l -1.71791,-6.07596 h -8.16835 l -1.68725,6.07596 h -3.26388 z m 1.90449,2.78009 -3.32652,11.93201 h 6.65303 z"
   style="fill:none;stroke:#b800d4;stroke-width:0.333185;stroke-opacity:1" /><path
   inkscape:connector-curvature="0"
   id="path1114"
   d="m 202.75358,302.35983 c -0.80231,0.42648 -1.62461,0.74767 -2.46823,0.9609 -0.84362,0.21324 -1.73922,0.31986 -2.6868,0.31986 -2.988,0 -5.30697,-1.05686 -6.95823,-3.17058 -1.65127,-2.11373 -2.4749,-5.08574 -2.4749,-8.91736 0,-3.8103 0.8303,-6.78098 2.49089,-8.91069 1.66059,-2.12972 3.97423,-3.19325 6.94224,-3.19325 0.94758,0 1.84318,0.10662 2.6868,0.31986 0.84362,0.21324 1.66592,0.5331 2.46823,0.96091 v 3.23322 c -0.77032,-0.63572 -1.59795,-1.1195 -2.48289,-1.45268 -0.88494,-0.33319 -1.77521,-0.49978 -2.67081,-0.49978 -2.05108,0 -3.5864,0.79164 -4.60728,2.37361 -1.02088,1.58196 -1.52998,3.97156 -1.52998,7.1688 0,3.18658 0.51044,5.57085 1.52998,7.15281 1.01955,1.58196 2.5562,2.37361 4.60728,2.37361 0.91693,0 1.81386,-0.16659 2.69347,-0.49978 0.8796,-0.33318 1.69924,-0.81697 2.46023,-1.45269 z"
   style="fill:none;stroke:#b800d4;stroke-width:0.333185;stroke-opacity:1" /><path
   inkscape:connector-curvature="0"
   id="path1116"
   d="m 221.66648,292.34829 v 10.83917 h -2.88938 v -10.83917 c 0,-1.57263 -0.27587,-2.72811 -0.82763,-3.46778 -0.55175,-0.73967 -1.41537,-1.10884 -2.59217,-1.10884 -1.34341,0 -2.37628,0.47579 -3.09996,1.42869 -0.72367,0.95291 -1.08485,2.31897 -1.08485,4.09951 v 9.88759 h -2.87338 V 278.8863 h 2.87338 v 9.43312 c 0.51044,-0.99955 1.20214,-1.75655 2.07774,-2.27232 0.87561,-0.51577 1.91115,-0.77298 3.10795,-0.77298 1.78054,0 3.11061,0.58507 3.99022,1.75655 0.87961,1.17147 1.31808,2.94402 1.31808,5.31762 z"
   style="fill:none;stroke:#b800d4;stroke-width:0.333185;stroke-opacity:1" /><path
   inkscape:connector-curvature="0"
   id="path1118"
   d="m 229.44435,285.7579 h 7.35672 v 15.19589 h 5.70012 v 2.23367 h -14.27497 v -2.23367 h 5.70013 v -12.96355 h -4.482 z m 4.48333,-6.7943 h 2.87339 v 3.62371 h -2.87339 z"
   style="fill:none;stroke:#b800d4;stroke-width:0.333185;stroke-opacity:1" /><path
   inkscape:connector-curvature="0"
   id="path1120"
   d="m 249.62335,300.98578 v 8.85605 h -2.88938 v -24.14524 h 2.88938 v 2.23367 c 0.47845,-0.86361 1.11683,-1.52332 1.91381,-1.97511 0.79698,-0.4518 1.71524,-0.6797 2.7561,-0.6797 2.11373,0 3.77166,0.81697 4.97379,2.45224 1.20213,1.63527 1.80453,3.89959 1.80453,6.7943 0,2.84273 -0.60374,5.07374 -1.8112,6.69168 -1.20746,1.61795 -2.86272,2.42825 -4.96712,2.42825 -1.06219,0 -1.99111,-0.22656 -2.78809,-0.67969 -0.79697,-0.45313 -1.42336,-1.11284 -1.88182,-1.97645 z m 8.43357,-6.52909 c 0,-2.22834 -0.35184,-3.91026 -1.0542,-5.04442 -0.70235,-1.13416 -1.74722,-1.70191 -3.13193,-1.70191 -1.39538,0 -2.45224,0.57041 -3.17059,1.70991 -0.71835,1.13949 -1.07819,2.81874 -1.07819,5.03642 0,2.20701 0.35984,3.8836 1.07819,5.02842 0.71835,1.14482 1.77521,1.7179 3.17059,1.7179 1.38471,0 2.42825,-0.56774 3.13193,-1.70191 0.70369,-1.13416 1.0542,-2.81607 1.0542,-5.04441 z"
   style="fill:none;stroke:#b800d4;stroke-width:0.333185;stroke-opacity:1" /><path
   inkscape:connector-curvature="0"
   id="path1122"
   d="m 136.03267,33.411767 c 0,1.311415 -0.3092,2.305638 -0.92892,2.98267 -0.61972,0.677031 -1.52998,1.015547 -2.73345,1.015547 -0.39582,0 -0.80897,-0.03598 -1.24211,-0.109285 -0.43314,-0.0733 -0.86361,-0.17992 -1.29675,-0.319857 v -1.4207 c 0.51043,0.239893 0.97289,0.415815 1.39004,0.53043 0.41715,0.114616 0.79965,0.171923 1.14749,0.171923 0.77565,0 1.34074,-0.210572 1.69391,-0.633051 0.35318,-0.422478 0.53043,-1.09018 0.53043,-2.007105 v -0.06264 -0.975565 c -0.22923,0.489115 -0.54109,0.854286 -0.93691,1.092846 -0.39583,0.23856 -0.87695,0.359839 -1.44469,0.359839 -1.02088,0 -1.83518,-0.409151 -2.44425,-1.22612 -0.60906,-0.816969 -0.91426,-1.911147 -0.91426,-3.27987 0,-1.374054 0.3052,-2.470898 0.91426,-3.287867 0.60907,-0.816969 1.42337,-1.22612 2.44425,-1.22612 0.56241,0 1.0382,0.11195 1.42869,0.33585 0.3905,0.2239 0.70769,0.570412 0.95291,1.038204 V 25.25807 H 136.03 v 8.153697 z m -1.43669,-3.880936 c 0,-1.078186 -0.17592,-1.896488 -0.52777,-2.456238 -0.35184,-0.559751 -0.86228,-0.839626 -1.53398,-0.839626 -0.70235,0 -1.23945,0.279875 -1.60862,0.839626 -0.36916,0.55975 -0.55442,1.378052 -0.55442,2.456238 0,1.078186 0.18659,1.899153 0.55842,2.464234 0.37184,0.565082 0.91293,0.847622 1.62061,0.847622 0.66104,0 1.16748,-0.283873 1.51933,-0.85162 0.35184,-0.567747 0.52643,-1.387381 0.52643,-2.460236 z"
   style="fill:none;stroke:#00ff00;stroke-width:0.333185;stroke-opacity:1" /><path
   inkscape:connector-curvature="0"
   id="path1124"
   d="m 139.99224,25.259402 h 3.67836 v 7.597945 h 2.85073 v 1.116836 h -7.13682 v -1.116836 h 2.85073 v -6.481109 h -2.24167 v -1.116836 z m 2.24166,-3.397151 h 1.4367 v 1.811192 h -1.4367 z"
   style="fill:none;stroke:#00ff00;stroke-width:0.333185;stroke-opacity:1" /><path
   inkscape:connector-curvature="0"
   id="path1126"
   d="m 151.94824,22.744524 v 2.482893 h 3.26388 v 1.116835 h -3.26388 v 4.747216 c 0,0.645046 0.12261,1.095512 0.3665,1.351397 0.24389,0.255886 0.6717,0.382497 1.28076,0.382497 h 1.61662 v 1.148821 h -1.75655 c -1.07819,0 -1.83785,-0.215904 -2.28032,-0.647712 -0.44247,-0.431807 -0.6637,-1.176808 -0.6637,-2.23367 v -4.747216 h -2.33496 v -1.116836 h 2.33496 v -2.482892 h 1.43669 z"
   style="fill:none;stroke:#00ff00;stroke-width:0.333185;stroke-opacity:1" /><path
   inkscape:connector-curvature="0"
   id="path1128"
   d="m 164.98909,28.555266 v 5.418917 h -1.44469 v -5.418917 c 0,-0.786316 -0.1386,-1.363392 -0.41448,-1.733894 -0.27588,-0.370501 -0.70769,-0.554419 -1.29676,-0.554419 -0.6717,0 -1.1888,0.23856 -1.54997,0.714348 -0.36117,0.475788 -0.54243,1.159483 -0.54243,2.049753 v 4.943129 h -1.43669 V 21.823601 h 1.43669 v 4.716563 c 0.25456,-0.499777 0.60107,-0.878275 1.03821,-1.136826 0.43714,-0.258551 0.95557,-0.386494 1.55397,-0.386494 0.89027,0 1.55531,0.293202 1.99511,0.878275 0.43981,0.585072 0.66104,1.472676 0.66104,2.660147 z"
   style="fill:none;stroke:#00ff00;stroke-width:0.333185;stroke-opacity:1" /><path
   inkscape:connector-curvature="0"
   id="path1130"
   d="m 167.93311,30.663659 v -5.418917 h 1.43669 v 5.418917 c 0,0.786316 0.13861,1.363392 0.41715,1.733893 0.27854,0.370502 0.70902,0.55442 1.29276,0.55442 0.67703,0 1.19413,-0.238561 1.55397,-0.714348 0.35984,-0.475788 0.53843,-1.159483 0.53843,-2.049753 v -4.943129 h 1.44469 v 8.729441 h -1.44469 v -1.311416 c -0.25456,0.505108 -0.6024,0.887605 -1.0422,1.147489 -0.43981,0.259884 -0.95425,0.390492 -1.54198,0.390492 -0.8956,0 -1.56197,-0.293202 -1.99911,-0.878275 -0.43714,-0.585072 -0.65571,-1.472676 -0.65571,-2.658814 z"
   style="fill:none;stroke:#00ff00;stroke-width:0.333185;stroke-opacity:1" /><path
   inkscape:connector-curvature="0"
   id="path1132"
   d="m 178.98285,26.344252 c 0.22923,-0.426477 0.54509,-0.75433 0.94891,-0.983562 0.40382,-0.229231 0.87028,-0.343846 1.40204,-0.343846 1.05153,0 1.87916,0.405152 2.48289,1.214125 0.60373,0.808973 0.90627,1.924475 0.90627,3.346508 0,1.442023 -0.30387,2.573519 -0.91026,3.393153 -0.6064,0.819635 -1.43803,1.230118 -2.49489,1.230118 -0.5211,0 -0.97956,-0.113283 -1.37805,-0.339848 -0.39849,-0.226566 -0.71702,-0.555752 -0.95691,-0.98756 v 1.100843 h -1.43669 V 21.823601 h 1.43669 z m 4.22478,3.26521 c 0,-1.114169 -0.17725,-1.955128 -0.53043,-2.522875 -0.35317,-0.567746 -0.87694,-0.85162 -1.56996,-0.85162 -0.69703,0 -1.22612,0.285206 -1.58463,0.855619 -0.35851,0.570412 -0.53843,1.410038 -0.53843,2.518876 0,1.103508 0.17992,1.941801 0.53843,2.514879 0.35851,0.573078 0.8876,0.859617 1.58463,0.859617 0.69302,0 1.21545,-0.283874 1.56996,-0.851621 0.35451,-0.567747 0.53043,-1.408705 0.53043,-2.522875 z"
   style="fill:none;stroke:#00ff00;stroke-width:0.333185;stroke-opacity:1" /><path
   inkscape:connector-curvature="0"
   id="path1134"
   d="m 188.70518,30.819589 h 2.74811 v 3.154594 h -2.74811 z"
   style="fill:none;stroke:#00ff00;stroke-width:0.333185;stroke-opacity:1" /><path
   inkscape:connector-curvature="0"
   id="path1136"
   d="m 203.58121,33.529048 c -0.38516,0.2239 -0.78231,0.391825 -1.19147,0.503775 -0.40915,0.11195 -0.82629,0.167925 -1.25277,0.167925 -1.35406,0 -2.41226,-0.406485 -3.17458,-1.218123 -0.76233,-0.811638 -1.14349,-1.93647 -1.14349,-3.373163 0,-1.436692 0.38116,-2.561524 1.14349,-3.373162 0.76232,-0.811638 1.82052,-1.218123 3.17458,-1.218123 0.42115,0 0.83296,0.05464 1.23412,0.163926 0.40115,0.109285 0.80497,0.278543 1.21012,0.507774 v 1.507328 c -0.37983,-0.338516 -0.76099,-0.58374 -1.14349,-0.734339 -0.38249,-0.1506 -0.81563,-0.226566 -1.30075,-0.226566 -0.90093,0 -1.59262,0.29187 -2.07774,0.874277 -0.48512,0.582407 -0.72634,1.415369 -0.72634,2.498885 0,1.078186 0.24389,1.909815 0.73034,2.494888 0.48645,0.585072 1.17814,0.878275 2.07374,0.878275 0.49978,0 0.94758,-0.0773 1.3434,-0.230564 0.39582,-0.153265 0.76233,-0.391825 1.10084,-0.714348 z"
   style="fill:none;stroke:#00ff00;stroke-width:0.333185;stroke-opacity:1" /><path
   inkscape:connector-curvature="0"
   id="path1138"
   d="m 209.73447,25.016844 c 1.21279,0 2.14038,0.393158 2.78409,1.179474 0.64371,0.786316 0.9649,1.923142 0.9649,3.413144 0,1.494001 -0.31985,2.633493 -0.9609,3.41581 -0.64105,0.782318 -1.56997,1.175476 -2.78809,1.175476 -1.21279,0 -2.13905,-0.391825 -2.78009,-1.175476 -0.64105,-0.78365 -0.96091,-1.921809 -0.96091,-3.41581 0,-1.488669 0.31986,-2.626828 0.96091,-3.413144 0.64104,-0.786316 1.5673,-1.179474 2.78009,-1.179474 z m 0,1.218123 c -0.72901,0 -1.28076,0.283874 -1.65526,0.85162 -0.3745,0.567747 -0.56242,1.408706 -0.56242,2.522875 0,1.108839 0.18792,1.948465 0.56242,2.518877 0.3745,0.570412 0.92625,0.855619 1.65526,0.855619 0.73434,0 1.28876,-0.285207 1.66326,-0.855619 0.3745,-0.570412 0.56241,-1.410038 0.56241,-2.518877 0,-1.114169 -0.18791,-1.955128 -0.56241,-2.522875 -0.3745,-0.567746 -0.92892,-0.85162 -1.66326,-0.85162 z"
   style="fill:none;stroke:#00ff00;stroke-width:0.333185;stroke-opacity:1" /><path
   inkscape:connector-curvature="0"
   id="path1140"
   d="m 219.8313,26.117686 c 0.17725,-0.374499 0.40249,-0.651709 0.6757,-0.831629 0.27321,-0.17992 0.6024,-0.269213 0.98756,-0.269213 0.70235,0 1.19813,0.271879 1.48733,0.815636 0.28921,0.543758 0.43315,1.568634 0.43315,3.073296 v 5.068407 h -1.31142 v -5.005768 c 0,-1.234116 -0.0693,-2.000441 -0.20657,-2.300308 -0.13728,-0.299866 -0.38916,-0.449133 -0.753,-0.449133 -0.41582,0 -0.70102,0.159929 -0.85562,0.479786 -0.1546,0.319858 -0.23056,1.076853 -0.23056,2.268322 v 5.007101 h -1.31142 v -5.005768 c 0,-1.250109 -0.0746,-2.020432 -0.22257,-2.31097 -0.14793,-0.290537 -0.41581,-0.437138 -0.80097,-0.437138 -0.37983,0 -0.64372,0.159929 -0.79298,0.479786 -0.14927,0.319857 -0.22257,1.076853 -0.22257,2.268322 v 5.005768 h -1.30475 v -8.745434 h 1.30475 v 0.749 c 0.17192,-0.311861 0.38649,-0.550422 0.64371,-0.714349 0.25722,-0.163926 0.55042,-0.246556 0.87828,-0.246556 0.39582,0 0.72501,0.09063 0.98756,0.273211 0.26255,0.182586 0.46912,0.458462 0.61439,0.827631 z"
   style="fill:none;stroke:#00ff00;stroke-width:0.333185;stroke-opacity:1" /><path
   inkscape:connector-curvature="0"
   id="path1142"
   d="m 231.1236,22.315382 h 1.48334 l -6.13727,13.142139 h -1.49133 z"
   style="fill:none;stroke:#00ff00;stroke-width:0.333185;stroke-opacity:1" /><path
   inkscape:connector-curvature="0"
   id="path1144"
   d="m 39.51971,33.529048 c -0.385162,0.2239 -0.782318,0.391825 -1.191469,0.503775 -0.409151,0.11195 -0.826298,0.167925 -1.252775,0.167925 -1.354063,0 -2.412257,-0.406485 -3.174584,-1.218123 -0.762327,-0.811638 -1.14349,-1.93647 -1.14349,-3.373163 0,-1.436692 0.381163,-2.561524 1.14349,-3.373162 0.762327,-0.811638 1.820521,-1.218123 3.174584,-1.218123 0.421146,0 0.832962,0.05464 1.234117,0.163926 0.401154,0.109285 0.804974,0.278543 1.210127,0.507774 v 1.507328 c -0.379831,-0.338516 -0.760994,-0.58374 -1.14349,-0.734339 -0.382497,-0.1506 -0.815637,-0.226566 -1.300754,-0.226566 -0.900931,0 -1.592623,0.29187 -2.07774,0.874277 -0.485117,0.582407 -0.726343,1.415369 -0.726343,2.498885 0,1.078186 0.243892,1.909815 0.730341,2.494888 0.48645,0.585072 1.178142,0.878275 2.073742,0.878275 0.499777,0 0.947578,-0.0773 1.343401,-0.230564 0.395824,-0.153265 0.762327,-0.391825 1.100843,-0.714348 z"
   style="fill:none;stroke:#00ff00;stroke-width:0.333185;stroke-opacity:1" /><path
   inkscape:connector-curvature="0"
   id="path1146"
   d="m 49.070117,28.555266 v 5.418917 h -1.444689 v -5.418917 c 0,-0.786316 -0.138605,-1.363392 -0.414482,-1.733894 -0.275877,-0.370501 -0.707684,-0.554419 -1.296755,-0.554419 -0.6717,0 -1.188803,0.23856 -1.549975,0.714348 -0.361172,0.475788 -0.542425,1.159483 -0.542425,2.049753 v 4.943129 H 42.385098 V 21.823601 h 1.436693 v 4.716563 c 0.254553,-0.499777 0.601065,-0.878275 1.038204,-1.136826 0.437138,-0.258551 0.955574,-0.386494 1.553973,-0.386494 0.89027,0 1.555307,0.293202 1.995111,0.878275 0.439804,0.585072 0.661038,1.472676 0.661038,2.660147 z"
   style="fill:none;stroke:#00ff00;stroke-width:0.333185;stroke-opacity:1" /><path
   inkscape:connector-curvature="0"
   id="path1148"
   d="m 59.23625,28.88312 v 0.702353 h -6.223891 v 0.04665 c -0.04131,1.192801 0.186584,2.04842 0.683695,2.569521 0.497112,0.521101 1.198133,0.780985 2.104395,0.780985 0.458462,0 0.936916,-0.0733 1.436693,-0.218569 0.499777,-0.145269 1.032873,-0.366504 1.600619,-0.663704 v 1.428696 c -0.546423,0.2239 -1.074187,0.391825 -1.581961,0.503775 -0.507773,0.11195 -0.998221,0.167925 -1.471344,0.167925 -1.359393,0 -2.420254,-0.407818 -3.186579,-1.222121 -0.766325,-0.814304 -1.147488,-1.937803 -1.147488,-3.369165 0,-1.395377 0.3745,-2.509547 1.124832,-3.342509 0.750332,-0.832962 1.748553,-1.250109 2.998663,-1.250109 1.114169,0 1.992444,0.377165 2.636157,1.132828 0.643713,0.755663 0.984894,1.665924 1.026209,2.733448 z m -1.436692,-0.422479 c -0.06264,-0.60373 -0.282541,-1.126164 -0.659706,-1.565968 -0.377165,-0.439804 -0.91959,-0.659706 -1.628607,-0.659706 -0.693024,0 -1.262104,0.229231 -1.709904,0.687694 -0.447801,0.458462 -0.693025,0.972899 -0.734339,1.545977 z"
   style="fill:none;stroke:#00ff00;stroke-width:0.333185;stroke-opacity:1" /><path
   inkscape:connector-curvature="0"
   id="path1150"
   d="m 68.389502,28.984408 v 4.989775 h -1.444689 v -1.296755 c -0.30653,0.5211 -0.694357,0.904929 -1.159483,1.151486 -0.465126,0.246557 -1.03154,0.370501 -1.69791,0.370501 -0.890269,0 -1.600619,-0.250554 -2.132382,-0.752997 -0.531763,-0.502443 -0.796978,-1.175476 -0.796978,-2.0191 0,-0.972899 0.326521,-1.712569 0.979563,-2.217677 0.653042,-0.505108 1.612614,-0.756996 2.877384,-0.756996 h 1.928473 v -0.226566 c -0.0053,-0.697022 -0.182585,-1.203463 -0.53043,-1.519322 -0.347845,-0.315859 -0.906263,-0.47179 -1.671255,-0.47179 -0.489115,0 -0.983561,0.07063 -1.483338,0.210573 -0.499777,0.139938 -0.986227,0.346512 -1.460682,0.617058 v -1.436693 c 0.53043,-0.202576 1.039536,-0.355841 1.527319,-0.457129 0.487782,-0.101288 0.959572,-0.151932 1.416701,-0.151932 0.723677,0 1.342068,0.106619 1.855173,0.319857 0.513104,0.213238 0.927586,0.533096 1.246111,0.960905 0.197245,0.259884 0.338516,0.582407 0.421145,0.964903 0.08263,0.382496 0.125278,0.956907 0.125278,1.721899 z m -2.78809,0.593069 h -0.477121 c -0.838293,0 -1.470011,0.146601 -1.893822,0.441136 -0.423811,0.294536 -0.637049,0.733007 -0.637049,1.315414 0,0.526432 0.158596,0.93425 0.475788,1.22612 0.317192,0.291869 0.756995,0.437138 1.319411,0.437138 0.791647,0 1.414036,-0.274544 1.865835,-0.823633 0.451798,-0.549088 0.682362,-1.307417 0.687693,-2.276318 v -0.319857 z"
   style="fill:none;stroke:#00ff00;stroke-width:0.333185;stroke-opacity:1" /><path
   inkscape:connector-curvature="0"
   id="path1152"
   d="m 72.67559,32.87334 v 4.427359 H 71.230901 V 25.227417 h 1.444689 v 1.116835 c 0.239893,-0.431808 0.558418,-0.760994 0.956907,-0.98756 0.398489,-0.226565 0.858284,-0.339848 1.378052,-0.339848 1.056862,0 1.885826,0.409151 2.486891,1.22612 0.601065,0.816969 0.902264,1.949797 0.902264,3.397151 0,1.4207 -0.302531,2.536203 -0.906262,3.346508 -0.603731,0.810305 -1.431362,1.214125 -2.482893,1.214125 -0.53043,0 -0.995556,-0.113283 -1.394045,-0.339848 -0.398489,-0.226566 -0.711682,-0.555752 -0.940914,-0.98756 z m 4.216787,-3.263878 c 0,-1.114169 -0.175922,-1.955128 -0.527765,-2.522875 -0.351843,-0.567746 -0.872944,-0.85162 -1.565968,-0.85162 -0.697023,0 -1.22612,0.285206 -1.584627,0.855619 -0.358507,0.570412 -0.538427,1.410038 -0.538427,2.518876 0,1.103508 0.17992,1.941801 0.538427,2.514879 0.358507,0.573078 0.887604,0.859617 1.584627,0.859617 0.693024,0 1.214125,-0.283874 1.565968,-0.851621 0.351843,-0.567747 0.527765,-1.408705 0.527765,-2.522875 z"
   style="fill:none;stroke:#00ff00;stroke-width:0.333185;stroke-opacity:1" /><path
   inkscape:connector-curvature="0"
   id="path1154"
   d="m 84.06118,34.130113 v -7.785861 h -2.474897 v -1.116835 h 3.912922 v 8.902696 c 0,1.015547 -0.233229,1.797865 -0.698355,2.346953 -0.465126,0.549089 -1.12883,0.823633 -1.987114,0.823633 H 80.83062 v -1.218123 h 1.827186 c 0.469124,0 0.819634,-0.162594 1.054196,-0.487783 0.234562,-0.325188 0.349178,-0.814303 0.349178,-1.46468 z m 0,-12.306512 h 1.436692 V 23.64279 H 84.06118 Z"
   style="fill:none;stroke:#00ff00;stroke-width:0.333185;stroke-opacity:1" /><path
   inkscape:connector-curvature="0"
   id="path1156"
   d="m 97.273954,28.984408 v 4.989775 h -1.444689 v -1.296755 c -0.30653,0.5211 -0.694357,0.904929 -1.159483,1.151486 -0.465126,0.246557 -1.03154,0.370501 -1.697909,0.370501 -0.89027,0 -1.60062,-0.250554 -2.132383,-0.752997 -0.531763,-0.502443 -0.796978,-1.175476 -0.796978,-2.0191 0,-0.972899 0.326521,-1.712569 0.979563,-2.217677 0.653043,-0.505108 1.612615,-0.756996 2.877384,-0.756996 h 1.928473 v -0.226566 c -0.0053,-0.697022 -0.182585,-1.203463 -0.53043,-1.519322 -0.347845,-0.315859 -0.906262,-0.47179 -1.671255,-0.47179 -0.489115,0 -0.983561,0.07063 -1.483338,0.210573 -0.499777,0.139938 -0.986227,0.346512 -1.460682,0.617058 v -1.436693 c 0.53043,-0.202576 1.039536,-0.355841 1.527319,-0.457129 0.487782,-0.101288 0.959572,-0.151932 1.416701,-0.151932 0.723678,0 1.342069,0.106619 1.855173,0.319857 0.513105,0.213238 0.927587,0.533096 1.246111,0.960905 0.197246,0.259884 0.338516,0.582407 0.421146,0.964903 0.08263,0.382496 0.125277,0.956907 0.125277,1.721899 z m -2.786757,0.593069 h -0.475788 c -0.838293,0 -1.470011,0.146601 -1.893822,0.441136 -0.423811,0.294536 -0.637049,0.733007 -0.637049,1.315414 0,0.526432 0.158596,0.93425 0.475788,1.22612 0.317191,0.291869 0.756995,0.437138 1.319411,0.437138 0.791647,0 1.414036,-0.274544 1.865835,-0.823633 0.451798,-0.549088 0.682362,-1.307417 0.687693,-2.276318 v -0.319857 z"
   style="fill:none;stroke:#00ff00;stroke-width:0.333185;stroke-opacity:1" /><path
   inkscape:connector-curvature="0"
   id="path1158"
   d="m 106.91899,33.529048 c -0.38517,0.2239 -0.78232,0.391825 -1.19147,0.503775 -0.40915,0.11195 -0.8263,0.167925 -1.25278,0.167925 -1.35406,0 -2.41225,-0.406485 -3.17458,-1.218123 -0.76233,-0.811638 -1.14349,-1.93647 -1.14349,-3.373163 0,-1.436692 0.38116,-2.561524 1.14349,-3.373162 0.76233,-0.811638 1.82052,-1.218123 3.17458,-1.218123 0.42115,0 0.83296,0.05464 1.23412,0.163926 0.40115,0.109285 0.80497,0.278543 1.21013,0.507774 v 1.507328 c -0.37983,-0.338516 -0.761,-0.58374 -1.14349,-0.734339 -0.3825,-0.1506 -0.81564,-0.226566 -1.30076,-0.226566 -0.90093,0 -1.59262,0.29187 -2.07774,0.874277 -0.48511,0.582407 -0.72634,1.415369 -0.72634,2.498885 0,1.078186 0.24389,1.909815 0.73034,2.494888 0.48645,0.585072 1.17814,0.878275 2.07374,0.878275 0.49978,0 0.94758,-0.0773 1.3434,-0.230564 0.39583,-0.153265 0.76233,-0.391825 1.10085,-0.714348 z"
   style="fill:none;stroke:#00ff00;stroke-width:0.333185;stroke-opacity:1" /><path
   inkscape:connector-curvature="0"
   id="path1160"
   d="m 110.10423,21.823601 h 1.48334 v 7.035529 l 3.77165,-3.631713 h 1.74856 l -3.4438,3.295863 3.98222,5.450903 h -1.75655 l -3.23322,-4.513987 -1.07019,1.00755 v 3.506437 H 110.1029 V 21.823601 Z"
   style="fill:none;stroke:#00ff00;stroke-width:0.333185;stroke-opacity:1" /><path
   inkscape:connector-curvature="0"
   id="path1164"
   d="m 235.8175,22.315382 h 1.58463 v 10.331393 h 5.63082 v 1.327408 h -7.21545 z"
   style="fill:none;stroke:#00ff00;stroke-width:0.333185;stroke-opacity:1" /><path
   inkscape:connector-curvature="0"
   id="path1166"
   d="m 252.03561,28.984408 v 4.989775 h -1.44469 v -1.296755 c -0.30653,0.5211 -0.69436,0.904929 -1.15949,1.151486 -0.46512,0.246557 -1.03154,0.370501 -1.69791,0.370501 -0.89027,0 -1.60062,-0.250554 -2.13238,-0.752997 -0.53176,-0.502443 -0.79698,-1.175476 -0.79698,-2.0191 0,-0.972899 0.32652,-1.712569 0.97957,-2.217677 0.65304,-0.505108 1.61261,-0.756996 2.87738,-0.756996 h 1.92847 v -0.226566 c -0.005,-0.697022 -0.18258,-1.203463 -0.53043,-1.519322 -0.34784,-0.315859 -0.90626,-0.47179 -1.67125,-0.47179 -0.48912,0 -0.98356,0.07063 -1.48334,0.210573 -0.49978,0.139938 -0.98623,0.346512 -1.46068,0.617058 v -1.436693 c 0.53043,-0.202576 1.03953,-0.355841 1.52732,-0.457129 0.48778,-0.101288 0.95957,-0.151932 1.4167,-0.151932 0.72368,0 1.34207,0.106619 1.85517,0.319857 0.51311,0.213238 0.92759,0.533096 1.24611,0.960905 0.19725,0.259884 0.33852,0.582407 0.42115,0.964903 0.0826,0.382496 0.12528,0.956907 0.12528,1.721899 z m -2.78676,0.593069 h -0.47579 c -0.83829,0 -1.47001,0.146601 -1.89382,0.441136 -0.42381,0.294536 -0.63705,0.733007 -0.63705,1.315414 0,0.526432 0.15859,0.93425 0.47579,1.22612 0.31719,0.291869 0.75699,0.437138 1.31941,0.437138 0.79164,0 1.41403,-0.274544 1.86583,-0.823633 0.4518,-0.549088 0.68236,-1.307417 0.6877,-2.276318 v -0.319857 z"
   style="fill:none;stroke:#00ff00;stroke-width:0.333185;stroke-opacity:1" /><path
   inkscape:connector-curvature="0"
   id="path1168"
   d="m 256.33902,26.344252 c 0.22923,-0.426477 0.54509,-0.75433 0.94891,-0.983562 0.40382,-0.229231 0.87028,-0.343846 1.40204,-0.343846 1.05153,0 1.87916,0.405152 2.48289,1.214125 0.60373,0.808973 0.90627,1.924475 0.90627,3.346508 0,1.442023 -0.30387,2.573519 -0.91026,3.393153 -0.6064,0.819635 -1.43803,1.230118 -2.49489,1.230118 -0.5211,0 -0.97957,-0.113283 -1.37805,-0.339848 -0.39849,-0.226566 -0.71702,-0.555752 -0.95691,-0.98756 v 1.100843 h -1.43669 V 21.823601 h 1.43669 z m 4.22478,3.26521 c 0,-1.114169 -0.17725,-1.955128 -0.53043,-2.522875 -0.35317,-0.567746 -0.87694,-0.85162 -1.56996,-0.85162 -0.69703,0 -1.22612,0.285206 -1.58463,0.855619 -0.35851,0.570412 -0.53843,1.410038 -0.53843,2.518876 0,1.103508 0.17992,1.941801 0.53843,2.514879 0.35851,0.573078 0.8876,0.859617 1.58463,0.859617 0.69302,0 1.21545,-0.283874 1.56996,-0.851621 0.35451,-0.567747 0.53043,-1.408705 0.53043,-2.522875 z"
   style="fill:none;stroke:#00ff00;stroke-width:0.333185;stroke-opacity:1" /><path
   inkscape:connector-curvature="0"
   id="path1170"
   d="m 264.84323,22.315382 h 6.8636 v 1.327408 h -5.27898 v 3.12394 h 4.7872 v 1.327408 h -4.7872 v 5.880045 h -1.58462 z"
   style="fill:none;stroke:#00ff00;stroke-width:0.333185;stroke-opacity:1" /><path
   inkscape:connector-curvature="0"
   id="path1172"
   d="m 281.67172,27.031945 c -0.30653,-0.239893 -0.61972,-0.414482 -0.93691,-0.523766 -0.3172,-0.109285 -0.66637,-0.163927 -1.0462,-0.163927 -0.8956,0 -1.58063,0.281208 -2.05375,0.843624 -0.47313,0.562415 -0.71035,1.374054 -0.71035,2.436246 v 4.350061 h -1.44469 v -8.745434 h 1.44469 v 1.709904 c 0.23989,-0.619723 0.60772,-1.094178 1.10484,-1.424698 0.49711,-0.330519 1.08618,-0.495778 1.76854,-0.495778 0.35451,0 0.68503,0.04398 0.99156,0.133273 0.30653,0.08929 0.60106,0.226566 0.88227,0.414482 z"
   style="fill:none;stroke:#00ff00;stroke-width:0.333185;stroke-opacity:1" /><path
   inkscape:connector-curvature="0"
   id="path1174"
   d="m 287.09064,25.016844 c 1.21279,0 2.14038,0.393158 2.78409,1.179474 0.64371,0.786316 0.9649,1.923142 0.9649,3.413144 0,1.494001 -0.31985,2.633493 -0.9609,3.41581 -0.64105,0.782318 -1.56997,1.175476 -2.78809,1.175476 -1.21279,0 -2.13905,-0.391825 -2.78009,-1.175476 -0.64105,-0.78365 -0.96091,-1.921809 -0.96091,-3.41581 0,-1.488669 0.31986,-2.626828 0.96091,-3.413144 0.64104,-0.786316 1.5673,-1.179474 2.78009,-1.179474 z m 0,1.218123 c -0.72901,0 -1.28076,0.283874 -1.65526,0.85162 -0.3745,0.567747 -0.56242,1.408706 -0.56242,2.522875 0,1.108839 0.18792,1.948465 0.56242,2.518877 0.3745,0.570412 0.92625,0.855619 1.65526,0.855619 0.73434,0 1.28876,-0.285207 1.66326,-0.855619 0.3745,-0.570412 0.56241,-1.410038 0.56241,-2.518877 0,-1.114169 -0.18791,-1.955128 -0.56241,-2.522875 -0.3745,-0.567746 -0.92892,-0.85162 -1.66326,-0.85162 z"
   style="fill:none;stroke:#00ff00;stroke-width:0.333185;stroke-opacity:1" /><path
   inkscape:connector-curvature="0"
   id="path1176"
   d="m 297.18747,26.117686 c 0.17725,-0.374499 0.40249,-0.651709 0.6757,-0.831629 0.27321,-0.17992 0.6024,-0.269213 0.98756,-0.269213 0.70235,0 1.19813,0.271879 1.48733,0.815636 0.28921,0.543758 0.43314,1.568634 0.43314,3.073296 v 5.068407 h -1.31141 v -5.005768 c 0,-1.234116 -0.0693,-2.000441 -0.20657,-2.300308 -0.13728,-0.299866 -0.38916,-0.449133 -0.753,-0.449133 -0.41582,0 -0.70102,0.159929 -0.85562,0.479786 -0.1546,0.319858 -0.23056,1.076853 -0.23056,2.268322 v 5.007101 h -1.31142 v -5.005768 c 0,-1.250109 -0.0746,-2.020432 -0.22257,-2.31097 -0.14793,-0.290537 -0.41581,-0.437138 -0.80097,-0.437138 -0.37983,0 -0.64372,0.159929 -0.79298,0.479786 -0.14927,0.319857 -0.22257,1.076853 -0.22257,2.268322 v 5.005768 h -1.30475 v -8.745434 h 1.30475 v 0.749 c 0.17192,-0.311861 0.38649,-0.550422 0.64371,-0.714349 0.25722,-0.163926 0.55042,-0.246556 0.87828,-0.246556 0.39582,0 0.72501,0.09063 0.98756,0.273211 0.26255,0.182586 0.46912,0.458462 0.61439,0.827631 z"
   style="fill:none;stroke:#00ff00;stroke-width:0.333185;stroke-opacity:1" /><path
   inkscape:connector-curvature="0"
   id="path1178"
   d="m 305.39581,22.315382 h 1.91381 l 3.56908,11.658801 h -1.63261 l -0.85961,-3.037313 h -4.08352 l -0.84495,3.037313 h -1.63261 z m 0.95157,1.390047 -1.66325,5.966672 h 3.32651 z"
   style="fill:none;stroke:#00ff00;stroke-width:0.333185;stroke-opacity:1" /><path
   inkscape:connector-curvature="0"
   id="path1180"
   d="m 319.5455,33.559701 c -0.40116,0.213238 -0.81164,0.373167 -1.23412,0.479786 -0.42248,0.106619 -0.86894,0.159928 -1.3434,0.159928 -1.494,0 -2.65348,-0.527764 -3.47845,-1.584626 -0.82496,-1.056862 -1.23811,-2.542866 -1.23811,-4.459345 0,-1.905817 0.41581,-3.390488 1.24611,-4.455346 0.8303,-1.064859 1.98711,-1.596622 3.47045,-1.596622 0.47312,0 0.92092,0.05331 1.3434,0.159929 0.42248,0.106619 0.83296,0.266548 1.23412,0.479786 v 1.616612 c -0.38516,-0.317191 -0.79964,-0.55975 -1.24211,-0.726342 -0.44247,-0.166593 -0.88761,-0.250555 -1.33541,-0.250555 -1.02621,0 -1.79386,0.395823 -2.3043,1.18747 -0.51044,0.791647 -0.765,1.985781 -0.765,3.583735 0,1.592623 0.25456,2.785425 0.765,3.577072 0.51044,0.791647 1.27809,1.18747 2.3043,1.18747 0.45846,0 0.9076,-0.08263 1.3474,-0.250555 0.4398,-0.167925 0.85029,-0.409151 1.23012,-0.726342 z"
   style="fill:none;stroke:#00ff00;stroke-width:0.333185;stroke-opacity:1" /><path
   inkscape:connector-curvature="0"
   id="path1182"
   d="m 329.00128,28.555266 v 5.418917 h -1.44469 v -5.418917 c 0,-0.786316 -0.1386,-1.363392 -0.41448,-1.733894 -0.27588,-0.370501 -0.70768,-0.554419 -1.29675,-0.554419 -0.6717,0 -1.18881,0.23856 -1.54998,0.714348 -0.36117,0.475788 -0.54242,1.159483 -0.54242,2.049753 v 4.943129 h -1.4367 V 21.823601 h 1.4367 v 4.716563 c 0.25455,-0.499777 0.60106,-0.878275 1.0382,-1.136826 0.43714,-0.258551 0.95557,-0.386494 1.55397,-0.386494 0.89027,0 1.55531,0.293202 1.99511,0.878275 0.43981,0.585072 0.66104,1.472676 0.66104,2.660147 z"
   style="fill:none;stroke:#00ff00;stroke-width:0.333185;stroke-opacity:1" /><path
   inkscape:connector-curvature="0"
   id="path1184"
   d="m 332.89021,25.259402 h 3.67836 v 7.597945 h 2.85073 v 1.116836 h -7.13681 v -1.116836 h 2.85072 v -6.481109 h -2.24166 v -1.116836 z m 2.24167,-3.397151 h 1.43669 v 1.811192 h -1.43669 z"
   style="fill:none;stroke:#00ff00;stroke-width:0.333185;stroke-opacity:1" /><path
   inkscape:connector-curvature="0"
   id="path1186"
   d="m 342.98038,32.87334 v 4.427359 h -1.44469 V 25.227417 h 1.44469 v 1.116835 c 0.23989,-0.431808 0.55842,-0.760994 0.95691,-0.98756 0.39849,-0.226565 0.85828,-0.339848 1.37805,-0.339848 1.05686,0 1.88583,0.409151 2.48689,1.22612 0.60107,0.816969 0.90227,1.949797 0.90227,3.397151 0,1.4207 -0.30254,2.536203 -0.90627,3.346508 -0.60373,0.810305 -1.43136,1.214125 -2.48289,1.214125 -0.53043,0 -0.99556,-0.113283 -1.39404,-0.339848 -0.39849,-0.226566 -0.71169,-0.555752 -0.94092,-0.98756 z m 4.21679,-3.263878 c 0,-1.114169 -0.17592,-1.955128 -0.52777,-2.522875 -0.35184,-0.567746 -0.87294,-0.85162 -1.56597,-0.85162 -0.69702,0 -1.22612,0.285206 -1.58462,0.855619 -0.35851,0.570412 -0.53843,1.410038 -0.53843,2.518876 0,1.103508 0.17992,1.941801 0.53843,2.514879 0.3585,0.573078 0.8876,0.859617 1.58462,0.859617 0.69303,0 1.21413,-0.283874 1.56597,-0.851621 0.35185,-0.567747 0.52777,-1.408705 0.52777,-2.522875 z"
   style="fill:none;stroke:#00ff00;stroke-width:0.333185;stroke-opacity:1" /><path
   inkscape:connector-curvature="0"
   id="path1188"
   d="m 38.035225,217.12916 h 9.648937 v 1.8659 h -7.420531 v 4.39124 h 6.729239 v 1.86592 h -6.729239 v 8.26542 h -2.228406 z"
   style="fill:none;stroke:#0000ff;stroke-width:0.234174;stroke-opacity:1" /><path
   inkscape:connector-curvature="0"
   id="path1190"
   d="m 55.774434,220.92748 c 1.704787,0 3.009605,0.55264 3.913522,1.65795 0.903916,1.10531 1.355408,2.70425 1.355408,4.79684 0,2.10007 -0.449626,3.70089 -1.349784,4.80245 -0.900172,1.10155 -2.205923,1.65233 -3.919146,1.65233 -1.7048,0 -3.007752,-0.55078 -3.90791,-1.65233 -0.900172,-1.10156 -1.349785,-2.70238 -1.349785,-4.80245 0,-2.09259 0.449613,-3.69153 1.349785,-4.79684 0.900158,-1.10531 2.20311,-1.65795 3.90791,-1.65795 z m 0,1.71227 c -1.024756,0 -1.800344,0.39904 -2.326762,1.19618 -0.526432,0.79712 -0.790581,1.97923 -0.790581,3.5454 0,1.55867 0.263216,2.7389 0.790581,3.53978 0.527351,0.80089 1.302939,1.20179 2.326762,1.20179 1.032233,0 1.811566,-0.4009 2.337997,-1.20179 0.526419,-0.80088 0.790568,-1.98111 0.790568,-3.53978 0,-1.56617 -0.263203,-2.74828 -0.790568,-3.5454 -0.527364,-0.79714 -1.305764,-1.19618 -2.337997,-1.19618 z"
   style="fill:none;stroke:#0000ff;stroke-width:0.234174;stroke-opacity:1" /><path
   inkscape:connector-curvature="0"
   id="path1192"
   d="m 70.439388,229.07207 c 0,0.90766 0.166725,1.59145 0.499257,2.0523 0.332532,0.46086 0.825232,0.69129 1.476235,0.69129 h 2.360481 v 1.70198 h -2.55718 c -1.207408,0 -2.142231,-0.38591 -2.804483,-1.15775 -0.662238,-0.77185 -0.993836,-1.86778 -0.993836,-3.28782 v -11.11956 h -3.23817 v -1.58115 h 5.257696 z"
   style="fill:none;stroke:#0000ff;stroke-width:0.234174;stroke-opacity:1" /><path
   inkscape:connector-curvature="0"
   id="path1194"
   d="m 85.499632,222.79338 v -6.3555 h 2.019526 v 17.07976 h -2.019526 v -1.54742 c -0.336277,0.60698 -0.784957,1.07064 -1.345094,1.38818 -0.56015,0.31754 -1.205542,0.47772 -1.937096,0.47772 -1.485604,0 -2.654603,-0.57608 -3.507009,-1.72915 -0.852394,-1.15307 -1.27859,-2.74265 -1.27859,-4.76967 0,-1.99798 0.428075,-3.56601 1.284214,-4.70316 0.856138,-1.13716 2.023271,-1.70666 3.501385,-1.70666 0.739057,0 1.39006,0.15923 1.953955,0.4777 0.563882,0.31849 1.006951,0.78028 1.328235,1.3882 z m -5.938672,4.58795 c 0,1.56616 0.249169,2.74827 0.746547,3.54541 0.497391,0.79712 1.232704,1.19616 2.205923,1.19616 0.973233,0 1.714169,-0.40278 2.222795,-1.20741 0.508627,-0.80463 0.762474,-1.98298 0.762474,-3.53416 0,-1.55868 -0.253847,-2.73891 -0.762474,-3.53979 -0.508626,-0.80087 -1.249562,-1.20179 -2.222795,-1.20179 -0.973219,0 -1.708532,0.39904 -2.205923,1.19618 -0.497378,0.79712 -0.746547,1.97923 -0.746547,3.5454 z"
   style="fill:none;stroke:#0000ff;stroke-width:0.234174;stroke-opacity:1" /><path
   inkscape:connector-curvature="0"
   id="path1196"
   d="m 100.29666,221.65154 v 1.97549 c -0.577943,-0.33626 -1.15963,-0.58917 -1.745062,-0.75778 -0.585446,-0.1686 -1.182113,-0.25291 -1.789096,-0.25291 -0.915152,0 -1.597074,0.148 -2.047633,0.44493 -0.450546,0.29694 -0.675352,0.74843 -0.675352,1.35541 0,0.5489 0.168604,0.95824 0.504881,1.22895 0.336277,0.2707 1.174623,0.53392 2.514092,0.79056 l 0.812118,0.15363 c 1.002273,0.19014 1.761934,0.57045 2.278062,1.14184 0.51612,0.57138 0.77371,1.31325 0.77371,2.2284 0,1.2149 -0.43182,2.16472 -1.295462,2.84851 -0.863628,0.68378 -2.063546,1.02662 -3.600661,1.02662 -0.606982,0 -1.243938,-0.0637 -1.909935,-0.19204 -0.665996,-0.12834 -1.386315,-0.32035 -2.162835,-0.57606 v -2.08603 c 0.754037,0.3878 1.474369,0.67911 2.162835,0.87301 0.68848,0.19389 1.339483,0.29131 1.953956,0.29131 0.892668,0 1.58396,-0.18078 2.074794,-0.54329 0.490821,-0.3625 0.735299,-0.86925 0.735299,-1.52025 0,-0.93671 -0.896413,-1.58397 -2.689254,-1.94273 l -0.08809,-0.0216 -0.757795,-0.15362 c -1.163375,-0.22669 -2.012023,-0.60885 -2.546878,-1.14745 -0.534855,-0.53861 -0.800883,-1.27111 -0.800883,-2.20124 0,-1.17837 0.399036,-2.08791 1.196173,-2.72768 0.797125,-0.63976 1.935217,-0.96011 3.414264,-0.96011 0.658494,0 1.291704,0.06 1.898687,0.18078 0.606983,0.12088 1.204596,0.30162 1.790025,0.54329 z"
   style="fill:none;stroke:#0000ff;stroke-width:0.234174;stroke-opacity:1" /><path
   inkscape:connector-curvature="0"
   id="path1198"
   d="m 114.7977,232.89193 c -0.54141,0.31473 -1.09968,0.55078 -1.67388,0.70814 -0.5742,0.15737 -1.16151,0.23605 -1.76194,0.23605 -1.90243,0 -3.38991,-0.57045 -4.46243,-1.71229 -1.07251,-1.14184 -1.60831,-2.72204 -1.60831,-4.74156 0,-2.01953 0.5358,-3.60068 1.60831,-4.74157 1.07252,-1.1409 2.55907,-1.71229 4.46243,-1.71229 0.59294,0 1.17088,0.0768 1.73478,0.23043 0.56389,0.15361 1.13059,0.39153 1.70104,0.71376 v 2.11882 c -0.53392,-0.47584 -1.07064,-0.81962 -1.60831,-1.03225 -0.53767,-0.21262 -1.14746,-0.31847 -1.82751,-0.31847 -1.2664,0 -2.23964,0.41027 -2.91968,1.22895 -0.68004,0.81867 -1.021,1.99048 -1.021,3.51262 0,1.51464 0.34189,2.68364 1.02661,3.50699 0.68474,0.82337 1.65609,1.23457 2.91407,1.23457 0.70253,0 1.332,-0.10768 1.88839,-0.32409 0.5564,-0.21637 1.07252,-0.55079 1.54743,-1.00414 z"
   style="fill:none;stroke:#0000ff;stroke-width:0.234174;stroke-opacity:1" /><path
   inkscape:connector-curvature="0"
   id="path1200"
   d="m 123.44718,220.92748 c 1.7048,0 3.00961,0.55264 3.91353,1.65795 0.9039,1.10531 1.3554,2.70425 1.3554,4.79684 0,2.10007 -0.44962,3.70089 -1.34979,4.80245 -0.90016,1.10155 -2.20592,1.65233 -3.91914,1.65233 -1.70479,0 -3.00774,-0.55078 -3.90792,-1.65233 -0.90015,-1.10156 -1.34978,-2.70238 -1.34978,-4.80245 0,-2.09259 0.44963,-3.69153 1.34978,-4.79684 0.90018,-1.10531 2.20313,-1.65795 3.90792,-1.65795 z m 0,1.71227 c -1.02475,0 -1.80033,0.39904 -2.32677,1.19618 -0.52642,0.79712 -0.79056,1.97923 -0.79056,3.5454 0,1.55867 0.26321,2.7389 0.79056,3.53978 0.52737,0.80089 1.30296,1.20179 2.32677,1.20179 1.03224,0 1.81157,-0.4009 2.33799,-1.20179 0.52643,-0.80088 0.79058,-1.98111 0.79058,-3.53978 0,-1.56617 -0.26321,-2.74828 -0.79058,-3.5454 -0.52735,-0.79714 -1.30575,-1.19618 -2.33799,-1.19618 z"
   style="fill:none;stroke:#0000ff;stroke-width:0.234174;stroke-opacity:1" /><path
   inkscape:connector-curvature="0"
   id="path1202"
   d="m 134.33631,231.97022 v 6.22436 h -2.03076 v -16.97017 h 2.03076 v 1.5699 c 0.33627,-0.60698 0.78494,-1.07064 1.34509,-1.38818 0.56015,-0.31755 1.20553,-0.47772 1.9371,-0.47772 1.4856,0 2.65085,0.5742 3.49576,1.72353 0.8449,1.14932 1.26828,2.74077 1.26828,4.77529 0,1.99798 -0.42431,3.56601 -1.27297,4.70316 -0.84865,1.13716 -2.01203,1.70666 -3.49107,1.70666 -0.74655,0 -1.39943,-0.15923 -1.95958,-0.4777 -0.56014,-0.31849 -1.0004,-0.78215 -1.32261,-1.38913 z m 5.92742,-4.58889 c 0,-1.56617 -0.24729,-2.74828 -0.74092,-3.5454 -0.49365,-0.79714 -1.22802,-1.19618 -2.20125,-1.19618 -0.98072,0 -1.72352,0.40092 -2.2284,1.20179 -0.50489,0.80088 -0.7578,1.98111 -0.7578,3.53979 0,1.55118 0.25291,2.72953 0.7578,3.53416 0.50488,0.80463 1.24768,1.20741 2.2284,1.20741 0.97323,0 1.70667,-0.39904 2.20125,-1.19616 0.49458,-0.79714 0.74092,-1.97925 0.74092,-3.54541 z"
   style="fill:none;stroke:#0000ff;stroke-width:0.234174;stroke-opacity:1" /><path
   inkscape:connector-curvature="0"
   id="path1204"
   d="m 156.04898,226.36032 v 0.98823 h -8.74876 v 0.0656 c -0.0581,1.67574 0.26134,2.87941 0.96012,3.61096 0.69877,0.73157 1.68511,1.09782 2.95809,1.09782 0.64445,0 1.317,-0.10209 2.01951,-0.30724 0.70253,-0.20513 1.45284,-0.51611 2.24996,-0.93296 v 2.00923 c -0.7681,0.31473 -1.50902,0.55078 -2.22278,0.70814 -0.71378,0.15737 -1.40318,0.23605 -2.06917,0.23605 -1.90994,0 -3.40303,-0.57232 -4.47837,-1.7179 -1.07532,-1.14558 -1.61393,-2.72393 -1.61393,-4.73689 0,-1.96146 0.52643,-3.52761 1.58115,-4.69849 1.05473,-1.17086 2.45884,-1.75631 4.21515,-1.75631 1.56616,0 2.80073,0.53018 3.70464,1.59145 0.90391,1.06129 1.38538,2.34269 1.44439,3.84234 z m -2.02046,-0.59199 c -0.0881,-0.84865 -0.39715,-1.58208 -0.92733,-2.20124 -0.53018,-0.61915 -1.29358,-0.92734 -2.28835,-0.92734 -0.97323,0 -1.77505,0.32223 -2.40357,0.96575 -0.62853,0.64351 -0.97323,1.36851 -1.03225,2.17313 z"
   style="fill:none;stroke:#0000ff;stroke-width:0.234174;stroke-opacity:1" /><path
   inkscape:connector-curvature="0"
   id="path1206"
   d="m 40.900587,244.10609 h 2.689267 l 5.016017,16.38848 h -2.293977 l -1.207408,-4.27041 h -5.741027 l -1.185858,4.27041 h -2.293977 z m 1.339483,1.95395 -2.338011,8.38626 h 4.676008 z"
   style="fill:none;stroke:#0000ff;stroke-width:0.234174;stroke-opacity:1" /><path
   inkscape:connector-curvature="0"
   id="path1208"
   d="m 58.430903,249.77031 v -6.3555 h 2.019526 v 17.07976 h -2.019526 v -1.54742 c -0.336277,0.60697 -0.784957,1.07064 -1.345094,1.38818 -0.56015,0.31754 -1.205529,0.47772 -1.937096,0.47772 -1.485604,0 -2.654603,-0.57608 -3.506996,-1.72915 -0.852406,-1.15307 -1.278603,-2.74266 -1.278603,-4.76967 0,-1.99798 0.428076,-3.56601 1.284214,-4.70316 0.856151,-1.13716 2.023271,-1.70666 3.501385,-1.70666 0.739057,0 1.39006,0.15923 1.953955,0.4777 0.563896,0.31849 1.006019,0.78028 1.328235,1.3882 z m -5.938672,4.58795 c 0,1.56616 0.249169,2.74827 0.746547,3.54541 0.497392,0.79712 1.232704,1.19616 2.205936,1.19616 0.97322,0 1.714156,-0.40278 2.222783,-1.20741 0.508626,-0.80463 0.762473,-1.983 0.762473,-3.53416 0,-1.55868 -0.253847,-2.73891 -0.762473,-3.53979 -0.508627,-0.80087 -1.249563,-1.20179 -2.222783,-1.20179 -0.973232,0 -1.708544,0.39904 -2.205936,1.19618 -0.497378,0.79712 -0.746547,1.97923 -0.746547,3.5454 z"
   style="fill:none;stroke:#0000ff;stroke-width:0.234174;stroke-opacity:1" /><path
   inkscape:connector-curvature="0"
   id="path1210"
   d="m 71.965267,249.77031 v -6.3555 h 2.019526 v 17.07976 h -2.019526 v -1.54742 c -0.336277,0.60697 -0.784956,1.07064 -1.345093,1.38818 -0.560151,0.31754 -1.205543,0.47772 -1.937096,0.47772 -1.485605,0 -2.654603,-0.57608 -3.506997,-1.72915 -0.852406,-1.15307 -1.278603,-2.74266 -1.278603,-4.76967 0,-1.99798 0.428076,-3.56601 1.284214,-4.70316 0.856152,-1.13716 2.023271,-1.70666 3.501386,-1.70666 0.739057,0 1.39006,0.15923 1.953955,0.4777 0.563895,0.31849 1.006018,0.78028 1.328234,1.3882 z m -5.938671,4.58795 c 0,1.56616 0.249168,2.74827 0.746547,3.54541 0.497391,0.79712 1.232703,1.19616 2.205936,1.19616 0.973219,0 1.714155,-0.40278 2.222782,-1.20741 0.508626,-0.80463 0.762473,-1.983 0.762473,-3.53416 0,-1.55868 -0.253847,-2.73891 -0.762473,-3.53979 -0.508627,-0.80087 -1.249563,-1.20179 -2.222782,-1.20179 -0.973233,0 -1.708545,0.39904 -2.205936,1.19618 -0.497379,0.79712 -0.746547,1.97923 -0.746547,3.5454 z"
   style="fill:none;stroke:#0000ff;stroke-width:0.234174;stroke-opacity:1" /><path
   inkscape:connector-curvature="0"
   id="path1212"
   d="M 77.201412,252.54668 H 88.83709 v 1.85467 H 77.201412 Z"
   style="fill:none;stroke:#0000ff;stroke-width:0.234174;stroke-opacity:1" /><path
   inkscape:connector-curvature="0"
   id="path1214"
   d="m 96.378447,247.90346 c 1.7048,0 3.009618,0.55266 3.913533,1.65796 0.90392,1.1053 1.3554,2.70426 1.3554,4.79684 0,2.10008 -0.44962,3.7009 -1.34977,4.80245 -0.900176,1.10156 -2.205941,1.65234 -3.919163,1.65234 -1.704787,0 -3.007739,-0.55078 -3.907897,-1.65234 -0.900172,-1.10155 -1.349785,-2.70237 -1.349785,-4.80245 0,-2.09258 0.449613,-3.69154 1.349785,-4.79684 0.900158,-1.1053 2.202177,-1.65796 3.907897,-1.65796 z m 0,1.71322 c -1.024743,0 -1.800331,0.39904 -2.326749,1.19618 -0.526432,0.79712 -0.790581,1.97923 -0.790581,3.5454 0,1.55867 0.263216,2.7389 0.790581,3.53978 0.527351,0.80087 1.302939,1.20179 2.326749,1.20179 1.032246,0 1.811579,-0.40092 2.338011,-1.20179 0.526418,-0.80088 0.790567,-1.98111 0.790567,-3.53978 0,-1.56617 -0.263216,-2.74828 -0.790567,-3.5454 -0.527365,-0.79714 -1.306698,-1.19618 -2.338011,-1.19618 z"
   style="fill:none;stroke:#0000ff;stroke-width:0.234174;stroke-opacity:1" /><path
   inkscape:connector-curvature="0"
   id="path1216"
   d="m 114.68718,252.8764 v 7.61817 h -2.03078 v -7.61817 c 0,-1.1053 -0.19389,-1.91742 -0.58169,-2.4373 -0.38778,-0.51986 -0.99477,-0.77933 -1.82188,-0.77933 -0.94419,0 -1.67013,0.33441 -2.17876,1.00414 -0.50863,0.66974 -0.76247,1.62986 -0.76247,2.88129 v 6.94843 h -2.01951 v -12.29417 h 2.01951 v 1.84437 c 0.35876,-0.70253 0.8449,-1.23457 1.46032,-1.59708 0.61541,-0.3625 1.34323,-0.54329 2.18437,-0.54329 1.25143,0 2.18627,0.41122 2.80449,1.23457 0.61821,0.82337 0.9264,2.0701 0.9264,3.73837 z"
   style="fill:none;stroke:#0000ff;stroke-width:0.234174;stroke-opacity:1" /><path
   inkscape:connector-curvature="0"
   id="path1218"
   d="m 127.36632,248.62847 v 1.97549 c -0.57794,-0.33627 -1.15963,-0.58917 -1.74506,-0.75778 -0.58545,-0.1686 -1.18211,-0.25291 -1.7891,-0.25291 -0.91515,0 -1.59707,0.148 -2.04763,0.44493 -0.45055,0.29694 -0.67535,0.74843 -0.67535,1.3554 0,0.54891 0.1686,0.95825 0.50488,1.22896 0.33628,0.2707 1.17462,0.53391 2.51409,0.79056 l 0.81212,0.15363 c 1.00227,0.19014 1.76193,0.57045 2.27806,1.14184 0.51612,0.57138 0.77371,1.31324 0.77371,2.2284 0,1.2149 -0.43182,2.1647 -1.29546,2.84851 -0.86363,0.68378 -2.06355,1.02662 -3.60066,1.02662 -0.60698,0 -1.24394,-0.0637 -1.90994,-0.19204 -0.66599,-0.12834 -1.38631,-0.32035 -2.16283,-0.57606 v -2.08603 c 0.75404,0.38779 1.47437,0.67911 2.16283,0.873 0.68848,0.1939 1.33949,0.29132 1.95396,0.29132 0.89267,0 1.58396,-0.18078 2.07479,-0.54329 0.49083,-0.3625 0.7353,-0.86925 0.7353,-1.52026 0,-0.9367 -0.89641,-1.58396 -2.68925,-1.94272 l -0.0881,-0.0216 -0.75779,-0.15362 c -1.16338,-0.22669 -2.01202,-0.60885 -2.54688,-1.14746 -0.53485,-0.5386 -0.80088,-1.2711 -0.80088,-2.20123 0,-1.17837 0.39903,-2.08791 1.19617,-2.72768 0.79713,-0.63976 1.93522,-0.96011 3.41427,-0.96011 0.65849,0 1.2917,0.06 1.89868,0.18078 0.60699,0.12088 1.2046,0.30162 1.79003,0.54329 z"
   style="fill:none;stroke:#0000ff;stroke-width:0.234174;stroke-opacity:1" /><path
   style="fill:none;stroke:#00ff00;stroke-width:0.333185;stroke-opacity:1"
   d="m 122.06823,30.819589 h 2.74811 v 3.154594 h -2.74811 z"
   id="path1515"
   inkscape:connector-curvature="0" /><circle
   id="circle1096-1"
   r="73.66848"
   cy="94.256462"
   cx="572.30505"
   style="fill:none;stroke:#000000;stroke-width:0.333185;stroke-miterlimit:10" /></svg>
