<?xml version="1.0" encoding="UTF-8" standalone="no"?>
<svg
   xmlns:dc="http://purl.org/dc/elements/1.1/"
   xmlns:cc="http://creativecommons.org/ns#"
   xmlns:rdf="http://www.w3.org/1999/02/22-rdf-syntax-ns#"
   xmlns:svg="http://www.w3.org/2000/svg"
   xmlns="http://www.w3.org/2000/svg"
   xmlns:sodipodi="http://sodipodi.sourceforge.net/DTD/sodipodi-0.dtd"
   xmlns:inkscape="http://www.inkscape.org/namespaces/inkscape"
   width="132.50302mm"
   height="66.365135mm"
   viewBox="0 0 132.50302 66.365135"
   version="1.1"
   id="svg8"
   inkscape:version="1.0.2 (1.0.2+r75+1)"
   sodipodi:docname="PSEdit.svg">
  <defs
     id="defs2" />
  <sodipodi:namedview
     id="base"
     pagecolor="#ffffff"
     bordercolor="#666666"
     borderopacity="1.0"
     inkscape:pageopacity="0.0"
     inkscape:pageshadow="2"
     inkscape:zoom="1.3494444"
     inkscape:cx="289.36634"
     inkscape:cy="153.14536"
     inkscape:document-units="mm"
     inkscape:current-layer="layer1"
     inkscape:document-rotation="0"
     showgrid="false"
     fit-margin-top="0"
     fit-margin-left="0"
     fit-margin-right="0"
     fit-margin-bottom="0"
     inkscape:window-width="1600"
     inkscape:window-height="847"
     inkscape:window-x="0"
     inkscape:window-y="27"
     inkscape:window-maximized="1" />
  <metadata
     id="metadata5">
    <rdf:RDF>
      <cc:Work
         rdf:about="">
        <dc:format>image/svg+xml</dc:format>
        <dc:type
           rdf:resource="http://purl.org/dc/dcmitype/StillImage" />
        <dc:title></dc:title>
      </cc:Work>
    </rdf:RDF>
  </metadata>
  <g
     inkscape:label="Layer 1"
     inkscape:groupmode="layer"
     id="layer1"
     transform="translate(-42.485262,-118.3485)">
    <path
       id="path1095"
       style="fill:#020202;stroke:none;stroke-width:0.634326"
       transform="scale(0.26458333)"
       d="m 258.87891,447.38672 c -12.56744,-0.57111 -25.96554,1.6818 -34.5,8.08984 -1.6391,1.23062 -1.57747,3.20034 -2.68946,4.76563 -1.36444,1.92098 -3.87407,2.79896 -5.41992,4.64258 -18.23627,21.74543 -26.80712,50.60285 -34.04492,77.35937 -9.32347,34.46605 -17.43302,70.64956 -21.65039,106.74805 0.77868,1.2796 1.47452,2.50181 2.35937,3.84375 1.65392,2.50824 3.49452,5.10794 5.53321,7.73633 2.03868,2.62838 4.27534,5.28488 6.71679,7.90625 2.44146,2.62136 5.08896,5.20814 7.95118,7.69531 2.86221,2.48717 5.93925,4.8738 9.24023,7.09961 3.30098,2.2258 6.82625,4.28968 10.58398,6.12695 1.87887,0.91864 3.81412,1.78047 5.81055,2.57813 1.99643,0.79765 4.05368,1.53062 6.16992,2.1914 2.11625,0.66079 4.29295,1.2498 6.53125,1.75781 2.23831,0.50802 4.53778,0.93605 6.90039,1.27539 2.36262,0.33936 4.78817,0.58936 7.27735,0.74415 2.48918,0.15478 5.04216,0.21363 7.66015,0.16796 2.61799,-0.0457 5.29978,-0.195 8.04883,-0.45703 2.74905,-0.26202 5.56491,-0.63658 8.44727,-1.13086 2.88236,-0.49427 5.83169,-1.10914 8.84961,-1.85156 2.55583,-0.62874 5.18724,-1.4015 7.84179,-2.21875 0.99774,-3.11692 2.1474,-6.51311 3.08594,-9.39258 2.04318,-6.26717 3.8977,-12.65368 5.57422,-19.02929 0.83034,-3.15833 1.1554,-6.89505 3.81641,-9.11328 7.76226,-6.46889 12.47155,-1.09819 20.21289,2.21679 6.48725,2.77833 15.10242,4.89449 22.20117,4.25 7.98808,-0.72438 15.78668,-2.89228 22.83594,-6.73633 3.56556,-1.94419 6.81111,-5.96119 10.78515,-6.91015 9.13304,-2.18083 21.04656,-0.19922 30.44727,-0.19922 19.60388,0 39.4086,-0.82739 58.99219,0.0117 4.30771,0.18519 7.32739,3.66661 10.7832,5.88867 4.8342,3.10753 10.25631,5.26222 15.85742,6.51562 9.6291,2.15483 19.21969,1.4076 28.54492,-1.85156 8.53932,-2.98454 14.29575,-10.23293 22.75196,-3.18554 2.93438,2.44594 3.1966,6.91299 4.16015,10.38085 2.18272,7.85235 4.4157,15.7909 7.14649,23.47071 0.62925,1.76966 1.38883,3.70951 2.02929,5.52929 0.92304,0.20165 1.3678,0.38303 2.35157,0.58008 2.96092,0.59308 6.18681,1.15816 9.6289,1.64063 3.44209,0.48247 7.1003,0.88402 10.91992,1.15234 3.81963,0.26832 7.80099,0.4029 11.89453,0.35352 4.09355,-0.0494 8.29868,-0.28328 12.5625,-0.75391 4.26383,-0.47063 8.58748,-1.1784 12.91797,-2.17383 4.3305,-0.99543 8.66741,-2.27856 12.96094,-3.90234 2.14677,-0.81189 4.2823,-1.70887 6.40039,-2.69727 2.1181,-0.98839 4.21845,-2.06825 6.29492,-3.24609 2.07647,-1.17784 4.13046,-2.45376 6.15235,-3.83398 2.02189,-1.38023 4.01243,-2.86538 5.96679,-4.46094 1.95437,-1.59556 3.87222,-3.30116 5.7461,-5.125 1.87388,-1.82384 3.70393,-3.76502 5.48437,-5.83008 1.78044,-2.06506 3.5115,-4.255 5.18555,-6.57422 0.40976,-0.56768 0.78264,-1.21739 1.18555,-1.80078 -2.88367,-31.34739 -9.48819,-62.76053 -16.70117,-93.18555 -4.8031,-20.26231 -9.24069,-41.09932 -17.50977,-60.26172 -6.45048,-14.94791 -14.39209,-32.2037 -26.62695,-43.00586 -1.97723,-1.7458 -1.727,-4.5855 -4.08985,-6.03711 -15.05892,-9.25178 -39.62354,-10.1318 -55.72656,-3.47265 -3.63027,1.50115 -3.34038,4.16975 -5.9043,6.52148 -2.10599,1.93187 -5.99417,2.70219 -8.6875,3.46875 -10.17653,2.89694 -23.69046,0.66016 -34.2539,0.66016 v 0.002 61.5293 c 0,6.61984 2.19451,17.96935 -2.25782,23.40234 -2.88684,3.52309 -6.93626,3.23828 -11.06445,3.23828 H 453.8125 366.91016 344.07422 c -3.20653,0 -7.30407,0.67767 -10.14649,-1.10351 -6.93509,-4.34642 -4.44336,-15.98059 -4.44335,-23 v -42.5 c 0,-5.85619 1.46511,-13.95696 -0.20118,-19.57031 -0.876,-2.95 -5.69409,-1.9961 -8.04492,-1.9961 -7.85931,0 -17.04199,1.30211 -24.73828,-0.33008 -2.97879,-0.63159 -7.6741,-1.70665 -9.95703,-3.80078 -3.04995,-2.7976 -2.72202,-5.38531 -7.16992,-7.01172 -5.71227,-2.08887 -12.95368,-3.44835 -20.49414,-3.79101 z m 77.98242,14.67383 c -1.72926,-0.0314 -3.40782,0.13244 -4.36914,0.91015 -3.10948,2.51611 -1.10547,15.21594 -1.10547,19.01172 v 47.57422 c 0,5.40956 -1.3415,13.75422 3.83398,17.30078 7.16281,4.90904 23.901,1.73047 32.32422,1.73047 h 84.36524 22.83593 c 3.7736,0 8.23445,0.40019 11.34961,-2.17578 4.76319,-3.93789 3.24024,-12.02358 3.24024,-17.48828 v -46.94141 c 0,-3.6799 1.98593,-16.63266 -1.01758,-19.01172 -1.86493,-1.47704 -6.25822,-0.65234 -8.49805,-0.65234 h -23.4707 -89.43945 -25.37305 c -1.1659,0 -2.94653,-0.22638 -4.67578,-0.25781 z m -32.08789,14.51562 c 7.25606,-1.6422 7.20772,18.48497 1.84765,19.69336 -7.34359,1.65623 -7.17281,-18.4881 -1.84765,-19.69336 z m 208.69336,0 c 7.2554,-1.64209 7.2071,18.48055 1.84765,19.69336 -7.2554,1.64228 -7.2071,-18.48043 -1.84765,-19.69336 z m 55.36523,6.63281 c 16.13283,0.51867 20.62507,26.54284 2.96485,29.64649 -19.44594,3.41775 -25.82769,-25.97278 -6.3418,-29.39453 1.17588,-0.20649 2.30143,-0.28653 3.37695,-0.25196 z m -314.72461,14.41797 c 2.93313,0.14019 5.72088,0.74586 6.85156,2.39258 1.42851,2.07931 0.4948,5.67948 0.19727,7.9707 -0.77198,5.93983 -2.13832,16.86403 -10.32813,17.3125 -2.68763,0.14627 -5.29026,-2.80774 -6.89257,-4.6289 -5.16913,-5.87577 -7.09477,-21.47506 2.45312,-22.65235 1.70856,-0.21059 4.78562,-0.53471 7.71875,-0.39453 z m 279.89063,21.11914 c 16.3229,0.6017 19.84756,26.75196 1.64257,29.95313 -19.11222,3.36128 -24.33045,-26.48623 -5.07421,-29.71875 1.19931,-0.20136 2.34344,-0.27449 3.43164,-0.23438 z m 70.46093,0.0547 c 16.47575,0.95254 18.82177,27.48802 0.32422,30.00586 -18.86744,2.56842 -22.74698,-27.07359 -3.80664,-29.8418 1.22199,-0.1786 2.38404,-0.22756 3.48242,-0.16406 z m -384.17968,5.67578 c 12.19771,-0.36698 29.1107,12.53305 12.78711,19.89063 -3.24712,1.46404 -15.7612,4.18123 -18.48438,1.30078 -2.83099,-2.99467 -3.34659,-18.26687 0.86914,-20.16797 1.43937,-0.64884 3.0856,-0.97101 4.82813,-1.02344 z m 273.92968,57.12305 c 26.00709,2.04752 28.7831,44.83949 -0.43359,48.63477 -31.35538,4.07235 -36.6256,-44.4169 -5.07422,-48.47657 1.93771,-0.24929 3.77401,-0.2947 5.50781,-0.1582 z m -165.54101,0.0606 c 26.0219,2.37722 27.75766,45.74639 -1.7207,48.64843 -31.26596,3.07839 -34.94953,-44.87616 -3.80665,-48.55273 1.94862,-0.23002 3.79256,-0.25419 5.52735,-0.0957 z m 83.65234,8.94531 c 13.81502,1.27829 16.39151,24.41891 0.89649,26.37305 -18.07321,2.27913 -21.82531,-24.1694 -3.80664,-26.32422 1.01888,-0.12187 1.98915,-0.13408 2.91015,-0.0488 z m -1.03125,2.48437 c -0.79479,-0.0216 -1.6339,0.0412 -2.51367,0.20118 -13.41475,2.44025 -10.31136,23.51606 3.17188,21.58007 13.42966,-1.92795 11.26363,-21.45697 -0.65821,-21.78125 z M 278.10352,525.29883 c 9.27448,-1.1088 10.15039,2.15173 10.15039,10.60351 0,3.1431 1.05162,9.94984 -3.24024,10.68946 -6.74735,1.16273 -23.50832,-1.58242 -23.89844,-10.68946 -0.34378,-8.0293 11.4265,-9.93809 16.98829,-10.60351 z m -26.64063,20.91211 c 7.94939,1.35299 9.22089,11.35026 9.96875,17.60156 0.24801,2.07613 0.88035,6.00813 -0.47266,7.79883 -2.44852,3.24079 -13.53676,2.1624 -17.10546,1.50586 -4.56526,-0.84046 -4.03575,-4.93188 -3.53907,-8.67188 0.71679,-5.38987 2.5013,-19.70665 11.14844,-18.23437 z m 317.36914,8.04492 c 16.13284,0.5184 20.6251,26.54287 2.96485,29.64648 -19.44654,3.41779 -25.82769,-25.97491 -6.3418,-29.39648 1.17588,-0.20651 2.30143,-0.28456 3.37695,-0.25 z" />
  </g>
</svg>
