<?xml version="1.0" encoding="UTF-8" standalone="no"?>
<svg
   xmlns:dc="http://purl.org/dc/elements/1.1/"
   xmlns:cc="http://creativecommons.org/ns#"
   xmlns:rdf="http://www.w3.org/1999/02/22-rdf-syntax-ns#"
   xmlns:svg="http://www.w3.org/2000/svg"
   xmlns="http://www.w3.org/2000/svg"
   xmlns:sodipodi="http://sodipodi.sourceforge.net/DTD/sodipodi-0.dtd"
   xmlns:inkscape="http://www.inkscape.org/namespaces/inkscape"
   width="150.0mm"
   height="150.0mm"
   viewBox="0 0 150.0 150.0"
   version="1.1"
   id="svg1141"
   sodipodi:docname="PSLayers1.svg"
   inkscape:version="1.0.2 (1.0.2+r75+1)">
  <defs
     id="defs1135" />
  <sodipodi:namedview
     id="base"
     pagecolor="#ffffff"
     bordercolor="#666666"
     borderopacity="1.0"
     inkscape:pageopacity="0.0"
     inkscape:pageshadow="2"
     inkscape:zoom="1.3494444"
     inkscape:cx="254.35032"
     inkscape:cy="281.71942"
     inkscape:document-units="mm"
     inkscape:current-layer="g1715"
     inkscape:document-rotation="0"
     showgrid="false"
     inkscape:window-width="1600"
     inkscape:window-height="847"
     inkscape:window-x="0"
     inkscape:window-y="27"
     inkscape:window-maximized="1" />
  <metadata
     id="metadata1138">
    <rdf:RDF>
      <cc:Work
         rdf:about="">
        <dc:format>image/svg+xml</dc:format>
        <dc:type
           rdf:resource="http://purl.org/dc/dcmitype/StillImage" />
        <dc:title></dc:title>
      </cc:Work>
    </rdf:RDF>
  </metadata>
  <g
     inkscape:label="[fixed] BG-disabled"
     inkscape:groupmode="layer"
     sodipodi:insensitive="true"
     id="g1709">
    <rect
       x="0"
       y="0"
       width="100.0"
       height="100.0"
       style="fill:#FFFFFF;fill-opacity:1;stroke:none"
       id="rect1707" />
  </g>
  <g
     inkscape:label="Edge.Cuts"
     inkscape:groupmode="layer"
     id="g1711"
     style="display:inline">
    <path
       style="display:inline;fill:none;stroke:#000000;stroke-width:0.15;stroke-miterlimit:4;stroke-dasharray:none;stroke-opacity:1"
       d="m 36.54997,40.594907 c -3.325135,-0.15111 -6.870049,0.44498 -9.128125,2.14044 -0.433678,0.3256 -0.417372,0.84675 -0.711586,1.2609 -0.361008,0.50826 -1.025014,0.74056 -1.434021,1.22835 -4.825012,5.75348 -7.092716,13.38867 -9.007717,20.468002 -2.466835,9.119143 -4.612487,18.692686 -5.728333,28.243701 0.206026,0.338563 0.390134,0.661943 0.62425,1.017 0.4376,0.663627 0.924592,1.351461 1.463995,2.046888 0.539401,0.695417 1.131184,1.398284 1.777151,2.091848 0.64597,0.693567 1.346454,1.377984 2.10375,2.036044 0.757293,0.65807 1.571426,1.28953 2.444811,1.87844 0.873384,0.58891 1.806111,1.13497 2.800344,1.62108 0.497117,0.24306 1.009152,0.47109 1.537374,0.68213 0.528223,0.21105 1.072537,0.40498 1.632458,0.57981 0.559925,0.17484 1.135843,0.33068 1.72806,0.46509 0.59222,0.13441 1.200621,0.24766 1.825728,0.33745 0.62511,0.0898 1.26687,0.15593 1.925466,0.19689 0.658595,0.0409 1.334071,0.0565 2.026748,0.0444 0.692676,-0.0121 1.402233,-0.0516 2.129586,-0.12093 0.727353,-0.0693 1.472383,-0.16842 2.235007,-0.2992 0.762624,-0.13078 1.542968,-0.29346 2.341459,-0.48989 0.67623,-0.16636 1.372458,-0.37082 2.074807,-0.58705 0.263986,-0.82468 0.568166,-1.72326 0.816489,-2.48511 0.540591,-1.65819 1.031266,-3.347957 1.474845,-5.034828 0.219694,-0.835634 0.3057,-1.824298 1.009759,-2.411205 2.053764,-1.711557 3.299764,-0.290557 5.347993,0.586527 1.716419,0.735094 3.995849,1.294991 5.87406,1.124474 2.113513,-0.19166 4.176892,-0.765247 6.042009,-1.782311 0.943388,-0.514397 1.802106,-1.577237 2.853571,-1.828307 2.41645,-0.577017 5.568569,-0.0527 8.05584,-0.0527 5.18686,0 10.426859,-0.21891 15.60835,0.003 1.139748,0.049 1.938707,0.970133 2.853057,1.55805 1.27905,0.822194 2.71365,1.392281 4.195612,1.723908 2.547685,0.570127 5.085173,0.37243 7.552473,-0.489887 2.25936,-0.789654 3.78241,-2.707451 6.01979,-0.842834 0.77638,0.647157 0.84576,1.829051 1.1007,2.746585 0.57751,2.077588 1.16832,4.177998 1.89084,6.209938 0.16649,0.46823 0.36746,0.98148 0.53692,1.46296 0.24422,0.0533 0.3619,0.10135 0.62218,0.15348 0.78341,0.15692 1.63693,0.30643 2.54765,0.43409 0.91072,0.12765 1.87862,0.23389 2.88923,0.30489 1.01061,0.071 2.06401,0.1066 3.14709,0.0935 1.08309,-0.0131 2.1957,-0.075 3.32383,-0.19948 1.12814,-0.12452 2.27211,-0.31178 3.41788,-0.57516 1.14578,-0.26337 2.29325,-0.60286 3.42925,-1.03249 0.568,-0.21481 1.13303,-0.45214 1.69344,-0.71365 0.56041,-0.26151 1.11613,-0.54723 1.66553,-0.85886 0.5494,-0.31164 1.09285,-0.64922 1.62781,-1.01441 0.53496,-0.36518 1.06162,-0.75813 1.57871,-1.18029 0.51709,-0.42215 1.02452,-0.87343 1.52032,-1.355987 0.4958,-0.48255 0.98,-0.996157 1.45108,-1.542534 0.47107,-0.546377 0.92908,-1.125791 1.37201,-1.739418 0.10841,-0.1502 0.20707,-0.3221 0.31367,-0.476447 -0.76297,-8.293964 -2.51041,-16.605336 -4.41885,-24.65529 -1.27082,-5.361069 -2.44493,-10.874197 -4.63279,-15.944247 -1.70669,-3.95497 -3.80791,-8.52056 -7.04505,-11.37863 -0.52314,-0.46191 -0.45693,-1.21325 -1.08211,-1.59732 -3.98433,-2.44787 -10.48372,-2.68071 -14.74431,-0.91881 -0.96051,0.39718 -0.88381,1.10325 -1.56218,1.72548 -0.55721,0.51114 -1.58596,0.71495 -2.29857,0.91777 -21.514108,-1.206528 -27.301408,-3.228654 -56.35572,0.275057 -2.079443,0 -2.363399,0.244723 -4.399709,-0.187087 -0.788136,-0.1671 -2.030437,-0.45155 -2.634462,-1.00562 -0.806966,-0.7402 -0.720201,-1.42486 -1.897041,-1.85518 -1.511372,-0.55268 -3.427328,-0.91238 -5.422408,-1.00304 z"
       id="path1095"
       sodipodi:nodetypes="ccccccsssssssssscscsscccccccssccssccscsssscsssssssssccsscscccccccc" />
  </g>
  <g
     inkscape:label="F.Cu-disabled"
     inkscape:groupmode="layer"
     id="g1713"
     style="display:inline" />
  <g
     inkscape:label="Drill"
     inkscape:groupmode="layer"
     id="g1715"
     style="display:inline">
    <circle
       style="display:inline;fill:none;fill-opacity:1;stroke:#000000;stroke-width:0.15;stroke-miterlimit:4;stroke-dasharray:none;stroke-opacity:1;stop-color:#000000"
       id="path2043"
       cx="76.791534"
       cy="63.700668"
       r="7.5" />
    <text
       xml:space="preserve"
       style="font-style:normal;font-weight:normal;font-size:4.2683px;line-height:1.25;font-family:sans-serif;letter-spacing:0px;word-spacing:0px;fill:#025e02;fill-opacity:1;stroke:none;stroke-width:0.107;stroke-miterlimit:4;stroke-dasharray:none"
       x="58.212749"
       y="88.743271"
       id="text2208"><tspan
         sodipodi:role="line"
         x="58.212749"
         y="88.743271"
         style="font-style:normal;font-variant:normal;font-weight:bold;font-stretch:normal;font-family:Garamond;-inkscape-font-specification:'Garamond Bold';fill:#025e02;fill-opacity:1;stroke-width:0.107;stroke-miterlimit:4;stroke-dasharray:none"
         id="tspan2210">Interspecies Gaming</tspan></text>
  </g>
  <g
     inkscape:label="F.SilkS"
     inkscape:groupmode="layer"
     id="g2002"
     style="display:inline">
    <path
       style="fill:#025e02;fill-opacity:1;stroke:none;stroke-width:0.167832"
       d="m 118.55836,68.8707 c 4.26848,0.13716 5.45706,7.022801 0.78445,7.843965 -5.14523,0.90429 -6.83358,-6.872529 -1.67793,-7.777819 0.31111,-0.05464 0.60892,-0.07529 0.89348,-0.06615 z"
       id="path1826" />
    <path
       style="fill:#025e02;fill-opacity:1;stroke:none;stroke-width:0.167832"
       d="m 41.636481,61.209153 c 2.453873,-0.293366 2.685624,0.569312 2.685624,2.805512 0,0.831612 0.278242,2.632561 -0.857313,2.828253 -1.785236,0.307639 -6.21991,-0.418682 -6.323129,-2.828253 -0.09096,-2.124419 3.023261,-2.629453 4.494818,-2.805512 z"
       id="path1822" />
    <path
       style="fill:#025e02;fill-opacity:1;stroke:none;stroke-width:0.167832"
       d="m 49.723322,76.65063 c 6.884961,0.628973 7.344214,12.103707 -0.455269,12.871541 -8.272451,0.814487 -9.247063,-11.873461 -1.007176,-12.84622 0.515573,-0.06086 1.003448,-0.06725 1.462445,-0.02532 z"
       id="path1816" />
    <path
       style="fill:#025e02;fill-opacity:1;stroke:none;stroke-width:0.167832"
       d="m 104.10606,76.105433 c 6.88103,0.54174 7.61552,11.863757 -0.11472,12.867921 -8.296115,1.077474 -9.69053,-11.751943 -1.34256,-12.826064 0.51269,-0.06596 0.99854,-0.07797 1.45728,-0.04186 z"
       id="path1814" />
    <path
       style="fill:#025e02;fill-opacity:1;stroke:none;stroke-width:0.167832"
       d="m 26.337157,60.991627 c 3.22731,-0.0971 7.702206,3.316036 3.383256,5.262729 -0.859134,0.38736 -4.170151,1.106283 -4.890659,0.344164 -0.749033,-0.79234 -0.885452,-4.833109 0.22996,-5.336108 0.380833,-0.171675 0.816398,-0.256915 1.277443,-0.270785 z"
       id="path1812" />
    <path
       style="fill:#025e02;fill-opacity:1;stroke:none;stroke-width:0.167832"
       d="m 118.55836,50.072877 c 4.26848,0.13723 5.45705,7.0228 0.78445,7.84397 -5.14507,0.90428 -6.83358,-6.87197 -1.67793,-7.7773 0.31111,-0.0546 0.60892,-0.0758 0.89348,-0.0667 z"
       id="path1804" />
    <path
       id="path2109"
       style="fill:#025e02;fill-opacity:1;stroke:none;stroke-width:0.185384"
       d="m 55.309702,49.733651 c -0.505382,-0.0088 -0.995947,0.03866 -1.276896,0.265995 -0.908756,0.735341 -0.323077,4.44691 -0.323077,5.55624 v 13.903729 c 0,1.580964 -0.392055,4.019719 1.120497,5.056213 2.093356,1.434685 6.985146,0.505736 9.446864,0.505736 h 24.65603 6.673847 c 1.102834,0 2.406515,0.116958 3.316942,-0.635879 1.392031,-1.150862 0.946954,-3.513933 0.946954,-5.11101 V 55.555886 c 0,-1.075463 0.580397,-4.860953 -0.29739,-5.55624 -0.545037,-0.43167 -1.828978,-0.19065 -2.483565,-0.19065 H 90.230564 64.091577 56.676215 c -0.340738,0 -0.861133,-0.06618 -1.366513,-0.07534 z m 21.482342,5.628162 a 8.2843498,8.2843498 0 0 1 0.130716,0.0011 8.2843498,8.2843498 0 0 1 0.130713,0.0029 8.2843498,8.2843498 0 0 1 0.130716,0.0057 8.2843498,8.2843498 0 0 1 0.130713,0.0068 8.2843498,8.2843498 0 0 1 0.130146,0.0092 8.2843498,8.2843498 0 0 1 0.130714,0.01141 8.2843498,8.2843498 0 0 1 0.130143,0.0137 8.2843498,8.2843498 0 0 1 0.129574,0.01541 8.2843498,8.2843498 0 0 1 0.130146,0.0177 8.2843498,8.2843498 0 0 1 0.129,0.01941 8.2843498,8.2843498 0 0 1 0.129004,0.02169 8.2843498,8.2843498 0 0 1 0.129001,0.02341 8.2843498,8.2843498 0 0 1 0.128434,0.02568 8.2843498,8.2843498 0 0 1 0.127861,0.02797 8.2843498,8.2843498 0 0 1 0.127288,0.02968 8.2843498,8.2843498 0 0 1 0.126721,0.03139 8.2843498,8.2843498 0 0 1 0.126718,0.03368 8.2843498,8.2843498 0 0 1 0.125579,0.03597 8.2843498,8.2843498 0 0 1 0.125577,0.03768 8.2843498,8.2843498 0 0 1 0.124437,0.03938 8.2843498,8.2843498 0 0 1 0.123865,0.04168 8.2843498,8.2843498 0 0 1 0.123863,0.04395 8.2843498,8.2843498 0 0 1 0.122726,0.0451 8.2843498,8.2843498 0 0 1 0.121581,0.04795 8.2843498,8.2843498 0 0 1 0.12101,0.04909 8.2843498,8.2843498 0 0 1 0.12044,0.05137 8.2843498,8.2843498 0 0 1 0.119871,0.05309 8.2843498,8.2843498 0 0 1 0.118728,0.0548 8.2843498,8.2843498 0 0 1 0.117585,0.05708 8.2843498,8.2843498 0 0 1 0.117016,0.0588 8.2843498,8.2843498 0 0 1 0.115876,0.06051 8.2843498,8.2843498 0 0 1 0.114733,0.06278 8.2843498,8.2843498 0 0 1 0.114159,0.06393 8.2843498,8.2843498 0 0 1 0.113021,0.06621 8.2843498,8.2843498 0 0 1 0.111877,0.06793 8.2843498,8.2843498 0 0 1 0.110738,0.06964 8.2843498,8.2843498 0 0 1 0.109596,0.07134 8.2843498,8.2843498 0 0 1 0.108448,0.07307 8.2843498,8.2843498 0 0 1 0.107884,0.07478 8.2843498,8.2843498 0 0 1 0.106172,0.07649 8.2843498,8.2843498 0 0 1 0.105024,0.07763 8.2843498,8.2843498 0 0 1 0.103322,0.07992 8.2843498,8.2843498 0 0 1 0.102748,0.08163 8.2843498,8.2843498 0 0 1 0.101036,0.08277 8.2843498,8.2843498 0 0 1 0.0999,0.08448 8.2843498,8.2843498 0 0 1 0.09818,0.08619 8.2843498,8.2843498 0 0 1 0.0976,0.0879 8.2843498,8.2843498 0 0 1 0.09533,0.08905 8.2843498,8.2843498 0 0 1 0.09419,0.09076 8.2843498,8.2843498 0 0 1 0.09304,0.0919 8.2843498,8.2843498 0 0 1 0.09133,0.09361 8.2843498,8.2843498 0 0 1 0.09019,0.09533 8.2843498,8.2843498 0 0 1 0.08848,0.09646 8.2843498,8.2843498 0 0 1 0.08676,0.09761 8.2843498,8.2843498 0 0 1 0.08505,0.09932 8.2843498,8.2843498 0 0 1 0.0839,0.100462 8.2843498,8.2843498 0 0 1 0.08219,0.102173 8.2843498,8.2843498 0 0 1 0.08049,0.103323 8.2843498,8.2843498 0 0 1 0.07877,0.10446 8.2843498,8.2843498 0 0 1 0.07706,0.105598 8.2843498,8.2843498 0 0 1 0.07534,0.106735 8.2843498,8.2843498 0 0 1 0.07421,0.107885 8.2843498,8.2843498 0 0 1 0.07192,0.109022 8.2843498,8.2843498 0 0 1 0.07021,0.110734 8.2843498,8.2843498 0 0 1 0.06849,0.111308 8.2843498,8.2843498 0 0 1 0.06736,0.11245 8.2843498,8.2843498 0 0 1 0.06507,0.11359 8.2843498,8.2843498 0 0 1 0.06279,0.114163 8.2843498,8.2843498 0 0 1 0.06165,0.115873 8.2843498,8.2843498 0 0 1 0.05994,0.116446 8.2843498,8.2843498 0 0 1 0.05765,0.117015 8.2843498,8.2843498 0 0 1 0.05594,0.118728 8.2843498,8.2843498 0 0 1 0.05365,0.118728 8.2843498,8.2843498 0 0 1 0.05251,0.120441 8.2843498,8.2843498 0 0 1 0.05023,0.12044 8.2843498,8.2843498 0 0 1 0.04795,0.12158 8.2843498,8.2843498 0 0 1 0.0468,0.122723 8.2843498,8.2843498 0 0 1 0.04453,0.122727 8.2843498,8.2843498 0 0 1 0.04224,0.123865 8.2843498,8.2843498 0 0 1 0.04053,0.124435 8.2843498,8.2843498 0 0 1 0.03881,0.125007 8.2843498,8.2843498 0 0 1 0.03653,0.125577 8.2843498,8.2843498 0 0 1 0.03482,0.126149 8.2843498,8.2843498 0 0 1 0.03254,0.126718 8.2843498,8.2843498 0 0 1 0.03025,0.127291 8.2843498,8.2843498 0 0 1 0.02854,0.127861 8.2843498,8.2843498 0 0 1 0.02683,0.12786 8.2843498,8.2843498 0 0 1 0.02454,0.128432 8.2843498,8.2843498 0 0 1 0.02226,0.129003 8.2843498,8.2843498 0 0 1 0.02056,0.129 8.2843498,8.2843498 0 0 1 0.01883,0.129574 8.2843498,8.2843498 0 0 1 0.01598,0.130146 8.2843498,8.2843498 0 0 1 0.01485,0.130144 8.2843498,8.2843498 0 0 1 0.01199,0.130144 8.2843498,8.2843498 0 0 1 0.01027,0.130143 8.2843498,8.2843498 0 0 1 0.008,0.130716 8.2843498,8.2843498 0 0 1 0.0063,0.130716 8.2843498,8.2843498 0 0 1 0.004,0.130714 8.2843498,8.2843498 0 0 1 0.0023,0.130716 8.2843498,8.2843498 0 0 1 0,0.05993 8.2843498,8.2843498 0 0 1 -0.0011,0.130714 8.2843498,8.2843498 0 0 1 -0.0029,0.130716 8.2843498,8.2843498 0 0 1 -0.0052,0.130712 8.2843498,8.2843498 0 0 1 -0.0074,0.130716 8.2843498,8.2843498 0 0 1 -0.0092,0.130714 8.2843498,8.2843498 0 0 1 -0.01141,0.130146 8.2843498,8.2843498 0 0 1 -0.0137,0.130144 8.2843498,8.2843498 0 0 1 -0.01541,0.130143 8.2843498,8.2843498 0 0 1 -0.01712,0.129574 8.2843498,8.2843498 0 0 1 -0.01998,0.129004 8.2843498,8.2843498 0 0 1 -0.02169,0.129 8.2843498,8.2843498 0 0 1 -0.02341,0.129004 8.2843498,8.2843498 0 0 1 -0.02568,0.128431 8.2843498,8.2843498 0 0 1 -0.0274,0.12786 8.2843498,8.2843498 0 0 1 -0.02968,0.127291 8.2843498,8.2843498 0 0 1 -0.03197,0.126719 8.2843498,8.2843498 0 0 1 -0.03368,0.12672 8.2843498,8.2843498 0 0 1 -0.03597,0.125576 8.2843498,8.2843498 0 0 1 -0.03767,0.125578 8.2843498,8.2843498 0 0 1 -0.03939,0.124437 8.2843498,8.2843498 0 0 1 -0.04167,0.124435 8.2843498,8.2843498 0 0 1 -0.04339,0.123295 8.2843498,8.2843498 0 0 1 -0.04566,0.122724 8.2843498,8.2843498 0 0 1 -0.04738,0.121583 8.2843498,8.2843498 0 0 1 -0.04966,0.12158 8.2843498,8.2843498 0 0 1 -0.05137,0.119871 8.2843498,8.2843498 0 0 1 -0.05309,0.119868 8.2843498,8.2843498 0 0 1 -0.0548,0.118728 8.2843498,8.2843498 0 0 1 -0.05709,0.117588 8.2843498,8.2843498 0 0 1 -0.0588,0.117015 8.2843498,8.2843498 0 0 1 -0.06051,0.115873 8.2843498,8.2843498 0 0 1 -0.06278,0.115302 8.2843498,8.2843498 0 0 1 -0.06393,0.113594 8.2843498,8.2843498 0 0 1 -0.06621,0.11302 8.2843498,8.2843498 0 0 1 -0.06792,0.111877 8.2843498,8.2843498 0 0 1 -0.06963,0.110735 8.2843498,8.2843498 0 0 1 -0.07135,0.109597 8.2843498,8.2843498 0 0 1 -0.07249,0.109022 8.2843498,8.2843498 0 0 1 -0.07478,0.10731 8.2843498,8.2843498 0 0 1 -0.07649,0.106172 8.2843498,8.2843498 0 0 1 -0.0782,0.105023 8.2843498,8.2843498 0 0 1 -0.07992,0.103323 8.2843498,8.2843498 0 0 1 -0.08105,0.102748 8.2843498,8.2843498 0 0 1 -0.08334,0.101036 8.2843498,8.2843498 0 0 1 -0.08448,0.09989 8.2843498,8.2843498 0 0 1 -0.08619,0.09875 8.2843498,8.2843498 0 0 1 -0.0879,0.09704 8.2843498,8.2843498 0 0 1 -0.08905,0.09532 8.2843498,8.2843498 0 0 1 -0.09076,0.09475 8.2843498,8.2843498 0 0 1 -0.0919,0.09246 8.2843498,8.2843498 0 0 1 -0.09361,0.09133 8.2843498,8.2843498 0 0 1 -0.09533,0.09019 8.2843498,8.2843498 0 0 1 -0.09646,0.08848 8.2843498,8.2843498 0 0 1 -0.09761,0.08676 8.2843498,8.2843498 0 0 1 -0.09932,0.08505 8.2843498,8.2843498 0 0 1 -0.100462,0.0839 8.2843498,8.2843498 0 0 1 -0.102173,0.08219 8.2843498,8.2843498 0 0 1 -0.102748,0.08048 8.2843498,8.2843498 0 0 1 -0.104461,0.07877 8.2843498,8.2843498 0 0 1 -0.105597,0.07706 8.2843498,8.2843498 0 0 1 -0.10731,0.07534 8.2843498,8.2843498 0 0 1 -0.107885,0.07421 8.2843498,8.2843498 0 0 1 -0.109022,0.07192 8.2843498,8.2843498 0 0 1 -0.110159,0.07021 8.2843498,8.2843498 0 0 1 -0.111879,0.06907 8.2843498,8.2843498 0 0 1 -0.112449,0.06678 8.2843498,8.2843498 0 0 1 -0.113591,0.06507 8.2843498,8.2843498 0 0 1 -0.11416,0.06336 8.2843498,8.2843498 0 0 1 -0.115875,0.06107 8.2843498,8.2843498 0 0 1 -0.116446,0.05993 8.2843498,8.2843498 0 0 1 -0.117015,0.05765 8.2843498,8.2843498 0 0 1 -0.118156,0.05594 8.2843498,8.2843498 0 0 1 -0.1193,0.05365 8.2843498,8.2843498 0 0 1 -0.119868,0.05251 8.2843498,8.2843498 0 0 1 -0.12101,0.05024 8.2843498,8.2843498 0 0 1 -0.121583,0.04851 8.2843498,8.2843498 0 0 1 -0.122154,0.04624 8.2843498,8.2843498 0 0 1 -0.123293,0.04453 8.2843498,8.2843498 0 0 1 -0.123865,0.04224 8.2843498,8.2843498 0 0 1 -0.124437,0.04053 8.2843498,8.2843498 0 0 1 -0.125008,0.03881 8.2843498,8.2843498 0 0 1 -0.125578,0.03653 8.2843498,8.2843498 0 0 1 -0.126148,0.03482 8.2843498,8.2843498 0 0 1 -0.126719,0.03253 8.2843498,8.2843498 0 0 1 -0.127291,0.03025 8.2843498,8.2843498 0 0 1 -0.127288,0.02912 8.2843498,8.2843498 0 0 1 -0.128433,0.02626 8.2843498,8.2843498 0 0 1 -0.128432,0.02454 8.2843498,8.2843498 0 0 1 -0.129003,0.02283 8.2843498,8.2843498 0 0 1 -0.129,0.02054 8.2843498,8.2843498 0 0 1 -0.129574,0.01827 8.2843498,8.2843498 0 0 1 -0.130144,0.01656 8.2843498,8.2843498 0 0 1 -0.129573,0.01427 8.2843498,8.2843498 0 0 1 -0.130717,0.01198 8.2843498,8.2843498 0 0 1 -0.130142,0.01027 8.2843498,8.2843498 0 0 1 -0.130716,0.008 8.2843498,8.2843498 0 0 1 -0.130714,0.0063 8.2843498,8.2843498 0 0 1 -0.130716,0.004 8.2843498,8.2843498 0 0 1 -0.130714,0.0023 8.2843498,8.2843498 0 0 1 -0.05936,0 8.2843498,8.2843498 0 0 1 -0.131287,-0.0011 8.2843498,8.2843498 0 0 1 -0.130713,-0.0029 8.2843498,8.2843498 0 0 1 -0.130716,-0.0052 8.2843498,8.2843498 0 0 1 -0.130716,-0.0074 8.2843498,8.2843498 0 0 1 -0.130144,-0.0092 8.2843498,8.2843498 0 0 1 -0.130713,-0.01142 8.2843498,8.2843498 0 0 1 -0.130146,-0.0137 8.2843498,8.2843498 0 0 1 -0.129571,-0.01541 8.2843498,8.2843498 0 0 1 -0.130146,-0.01713 8.2843498,8.2843498 0 0 1 -0.129001,-0.01998 8.2843498,8.2843498 0 0 1 -0.129003,-0.02112 8.2843498,8.2843498 0 0 1 -0.129004,-0.02397 8.2843498,8.2843498 0 0 1 -0.128431,-0.02568 8.2843498,8.2843498 0 0 1 -0.127861,-0.02741 8.2843498,8.2843498 0 0 1 -0.12729,-0.02968 8.2843498,8.2843498 0 0 1 -0.126719,-0.03197 8.2843498,8.2843498 0 0 1 -0.126718,-0.03368 8.2843498,8.2843498 0 0 1 -0.125578,-0.03595 8.2843498,8.2843498 0 0 1 -0.125578,-0.03768 8.2843498,8.2843498 0 0 1 -0.124437,-0.03939 8.2843498,8.2843498 0 0 1 -0.123865,-0.04166 8.2843498,8.2843498 0 0 1 -0.123866,-0.04339 8.2843498,8.2843498 0 0 1 -0.122151,-0.04566 8.2843498,8.2843498 0 0 1 -0.122152,-0.04738 8.2843498,8.2843498 0 0 1 -0.121013,-0.04966 8.2843498,8.2843498 0 0 1 -0.120442,-0.05137 8.2843498,8.2843498 0 0 1 -0.119867,-0.05309 8.2843498,8.2843498 0 0 1 -0.118728,-0.0548 8.2843498,8.2843498 0 0 1 -0.117588,-0.05709 8.2843498,8.2843498 0 0 1 -0.117015,-0.0588 8.2843498,8.2843498 0 0 1 -0.115873,-0.06051 8.2843498,8.2843498 0 0 1 -0.114733,-0.06222 8.2843498,8.2843498 0 0 1 -0.11416,-0.0645 8.2843498,8.2843498 0 0 1 -0.113021,-0.06622 8.2843498,8.2843498 0 0 1 -0.111877,-0.06792 8.2843498,8.2843498 0 0 1 -0.110738,-0.06907 8.2843498,8.2843498 0 0 1 -0.109596,-0.07134 8.2843498,8.2843498 0 0 1 -0.108448,-0.07307 8.2843498,8.2843498 0 0 1 -0.107884,-0.07478 8.2843498,8.2843498 0 0 1 -0.106172,-0.07648 8.2843498,8.2843498 0 0 1 -0.105024,-0.0782 8.2843498,8.2843498 0 0 1 -0.103322,-0.07992 8.2843498,8.2843498 0 0 1 -0.102748,-0.08105 8.2843498,8.2843498 0 0 1 -0.101036,-0.08334 8.2843498,8.2843498 0 0 1 -0.0999,-0.08448 8.2843498,8.2843498 0 0 1 -0.09817,-0.08619 8.2843498,8.2843498 0 0 1 -0.0976,-0.08733 8.2843498,8.2843498 0 0 1 -0.09533,-0.08961 8.2843498,8.2843498 0 0 1 -0.09419,-0.09076 8.2843498,8.2843498 0 0 1 -0.09304,-0.0919 8.2843498,8.2843498 0 0 1 -0.09133,-0.09361 8.2843498,8.2843498 0 0 1 -0.09019,-0.09533 8.2843498,8.2843498 0 0 1 -0.0879,-0.09646 8.2843498,8.2843498 0 0 1 -0.08733,-0.09761 8.2843498,8.2843498 0 0 1 -0.08505,-0.09932 8.2843498,8.2843498 0 0 1 -0.0839,-0.100462 8.2843498,8.2843498 0 0 1 -0.08219,-0.102174 8.2843498,8.2843498 0 0 1 -0.08048,-0.102748 8.2843498,8.2843498 0 0 1 -0.07877,-0.10446 8.2843498,8.2843498 0 0 1 -0.07706,-0.105598 8.2843498,8.2843498 0 0 1 -0.07534,-0.10731 8.2843498,8.2843498 0 0 1 -0.07421,-0.107884 8.2843498,8.2843498 0 0 1 -0.07192,-0.109022 8.2843498,8.2843498 0 0 1 -0.07021,-0.11016 8.2843498,8.2843498 0 0 1 -0.06849,-0.111307 8.2843498,8.2843498 0 0 1 -0.06736,-0.113021 8.2843498,8.2843498 0 0 1 -0.06507,-0.11302 8.2843498,8.2843498 0 0 1 -0.06279,-0.114733 8.2843498,8.2843498 0 0 1 -0.06165,-0.115303 8.2843498,8.2843498 0 0 1 -0.05936,-0.116445 8.2843498,8.2843498 0 0 1 -0.05822,-0.117585 8.2843498,8.2843498 0 0 1 -0.05594,-0.118158 8.2843498,8.2843498 0 0 1 -0.05365,-0.119298 8.2843498,8.2843498 0 0 1 -0.05251,-0.119871 8.2843498,8.2843498 0 0 1 -0.05022,-0.121011 8.2843498,8.2843498 0 0 1 -0.04795,-0.121583 8.2843498,8.2843498 0 0 1 -0.0468,-0.122153 8.2843498,8.2843498 0 0 1 -0.04453,-0.123292 8.2843498,8.2843498 0 0 1 -0.04224,-0.123867 8.2843498,8.2843498 0 0 1 -0.04053,-0.124435 8.2843498,8.2843498 0 0 1 -0.03881,-0.125006 8.2843498,8.2843498 0 0 1 -0.03653,-0.125578 8.2843498,8.2843498 0 0 1 -0.03425,-0.126149 8.2843498,8.2843498 0 0 1 -0.03311,-0.12672 8.2843498,8.2843498 0 0 1 -0.03025,-0.127289 8.2843498,8.2843498 0 0 1 -0.02854,-0.127291 8.2843498,8.2843498 0 0 1 -0.02683,-0.12843 8.2843498,8.2843498 0 0 1 -0.02454,-0.128434 8.2843498,8.2843498 0 0 1 -0.02227,-0.129001 8.2843498,8.2843498 0 0 1 -0.02054,-0.129004 8.2843498,8.2843498 0 0 1 -0.01883,-0.129572 8.2843498,8.2843498 0 0 1 -0.01598,-0.129574 8.2843498,8.2843498 0 0 1 -0.01427,-0.130144 8.2843498,8.2843498 0 0 1 -0.01256,-0.130143 8.2843498,8.2843498 0 0 1 -0.01027,-0.130716 8.2843498,8.2843498 0 0 1 -0.008,-0.130714 8.2843498,8.2843498 0 0 1 -0.0063,-0.130716 8.2843498,8.2843498 0 0 1 -0.004,-0.130713 8.2843498,8.2843498 0 0 1 -0.0017,-0.130716 8.2843498,8.2843498 0 0 1 -5.73e-4,-0.05936 8.2843498,8.2843498 0 0 1 0.0011,-0.131285 8.2843498,8.2843498 0 0 1 0.0029,-0.130716 8.2843498,8.2843498 0 0 1 0.0051,-0.130718 8.2843498,8.2843498 0 0 1 0.0074,-0.130712 8.2843498,8.2843498 0 0 1 0.0092,-0.130144 8.2843498,8.2843498 0 0 1 0.01141,-0.130716 8.2843498,8.2843498 0 0 1 0.0137,-0.130143 8.2843498,8.2843498 0 0 1 0.01541,-0.129574 8.2843498,8.2843498 0 0 1 0.0177,-0.129574 8.2843498,8.2843498 0 0 1 0.01941,-0.129572 8.2843498,8.2843498 0 0 1 0.02169,-0.129004 8.2843498,8.2843498 0 0 1 0.02341,-0.129001 8.2843498,8.2843498 0 0 1 0.02568,-0.12786 8.2843498,8.2843498 0 0 1 0.0274,-0.127862 8.2843498,8.2843498 0 0 1 0.03025,-0.127861 8.2843498,8.2843498 0 0 1 0.03139,-0.126721 8.2843498,8.2843498 0 0 1 0.03368,-0.126718 8.2843498,8.2843498 0 0 1 0.03596,-0.125579 8.2843498,8.2843498 0 0 1 0.03767,-0.125575 8.2843498,8.2843498 0 0 1 0.03939,-0.124439 8.2843498,8.2843498 0 0 1 0.04167,-0.123863 8.2843498,8.2843498 0 0 1 0.04338,-0.123295 8.2843498,8.2843498 0 0 1 0.04566,-0.122723 8.2843498,8.2843498 0 0 1 0.04738,-0.122154 8.2843498,8.2843498 0 0 1 0.04966,-0.12101 8.2843498,8.2843498 0 0 1 0.05137,-0.12044 8.2843498,8.2843498 0 0 1 0.05309,-0.119871 8.2843498,8.2843498 0 0 1 0.0548,-0.118155 8.2843498,8.2843498 0 0 1 0.05708,-0.118158 8.2843498,8.2843498 0 0 1 0.0588,-0.117016 8.2843498,8.2843498 0 0 1 0.06051,-0.115876 8.2843498,8.2843498 0 0 1 0.0628,-0.114729 8.2843498,8.2843498 0 0 1 0.06393,-0.114163 8.2843498,8.2843498 0 0 1 0.06621,-0.11302 8.2843498,8.2843498 0 0 1 0.06792,-0.111878 8.2843498,8.2843498 0 0 1 0.06964,-0.110737 8.2843498,8.2843498 0 0 1 0.07134,-0.109597 8.2843498,8.2843498 0 0 1 0.07307,-0.108447 8.2843498,8.2843498 0 0 1 0.07421,-0.10731 8.2843498,8.2843498 0 0 1 0.07649,-0.106173 8.2843498,8.2843498 0 0 1 0.0782,-0.105023 8.2843498,8.2843498 0 0 1 0.07991,-0.103886 8.2843498,8.2843498 0 0 1 0.08163,-0.102748 8.2843498,8.2843498 0 0 1 0.08277,-0.101036 8.2843498,8.2843498 0 0 1 0.08448,-0.09989 8.2843498,8.2843498 0 0 1 0.08619,-0.09817 8.2843498,8.2843498 0 0 1 0.0879,-0.09704 8.2843498,8.2843498 0 0 1 0.08905,-0.0959 8.2843498,8.2843498 0 0 1 0.09075,-0.09418 8.2843498,8.2843498 0 0 1 0.0919,-0.09304 8.2843498,8.2843498 0 0 1 0.09361,-0.09133 8.2843498,8.2843498 0 0 1 0.09533,-0.09019 8.2843498,8.2843498 0 0 1 0.09646,-0.0879 8.2843498,8.2843498 0 0 1 0.0976,-0.08676 8.2843498,8.2843498 0 0 1 0.09932,-0.08563 8.2843498,8.2843498 0 0 1 0.100462,-0.0839 8.2843498,8.2843498 0 0 1 0.102173,-0.08163 8.2843498,8.2843498 0 0 1 0.103312,-0.08048 8.2843498,8.2843498 0 0 1 0.103885,-0.07934 8.2843498,8.2843498 0 0 1 0.106173,-0.07707 8.2843498,8.2843498 0 0 1 0.106746,-0.07534 8.2843498,8.2843498 0 0 1 0.107884,-0.07363 8.2843498,8.2843498 0 0 1 0.109023,-0.07249 8.2843498,8.2843498 0 0 1 0.11017,-0.07021 8.2843498,8.2843498 0 0 1 0.111878,-0.06849 8.2843498,8.2843498 0 0 1 0.112447,-0.06678 8.2843498,8.2843498 0 0 1 0.113593,-0.06507 8.2843498,8.2843498 0 0 1 0.11416,-0.06336 8.2843498,8.2843498 0 0 1 0.115875,-0.06165 8.2843498,8.2843498 0 0 1 0.116443,-0.05936 8.2843498,8.2843498 0 0 1 0.117016,-0.05822 8.2843498,8.2843498 0 0 1 0.118728,-0.05594 8.2843498,8.2843498 0 0 1 0.118728,-0.05366 8.2843498,8.2843498 0 0 1 0.12044,-0.05251 8.2843498,8.2843498 0 0 1 0.120441,-0.05022 8.2843498,8.2843498 0 0 1 0.121583,-0.04795 8.2843498,8.2843498 0 0 1 0.122722,-0.04681 8.2843498,8.2843498 0 0 1 0.122724,-0.04395 8.2843498,8.2843498 0 0 1 0.123866,-0.04281 8.2843498,8.2843498 0 0 1 0.124436,-0.04053 8.2843498,8.2843498 0 0 1 0.125008,-0.03881 8.2843498,8.2843498 0 0 1 0.125575,-0.03653 8.2843498,8.2843498 0 0 1 0.126149,-0.03425 8.2843498,8.2843498 0 0 1 0.126721,-0.03311 8.2843498,8.2843498 0 0 1 0.127288,-0.03025 8.2843498,8.2843498 0 0 1 0.127291,-0.02854 8.2843498,8.2843498 0 0 1 0.128431,-0.02683 8.2843498,8.2843498 0 0 1 0.128434,-0.02454 8.2843498,8.2843498 0 0 1 0.129,-0.02226 8.2843498,8.2843498 0 0 1 0.129004,-0.02056 8.2843498,8.2843498 0 0 1 0.129573,-0.01883 8.2843498,8.2843498 0 0 1 0.130144,-0.01598 8.2843498,8.2843498 0 0 1 0.129573,-0.01427 8.2843498,8.2843498 0 0 1 0.130716,-0.01256 8.2843498,8.2843498 0 0 1 0.130143,-0.01027 8.2843498,8.2843498 0 0 1 0.130717,-0.008 8.2843498,8.2843498 0 0 1 0.130713,-0.0063 8.2843498,8.2843498 0 0 1 0.130716,-0.004 8.2843498,8.2843498 0 0 1 0.130714,-0.0018 8.2843498,8.2843498 0 0 1 0.05993,-5.7e-4 z" />
  </g>
</svg>
