<?xml version="1.0" encoding="UTF-8" standalone="no"?>
<svg
   xmlns:dc="http://purl.org/dc/elements/1.1/"
   xmlns:cc="http://creativecommons.org/ns#"
   xmlns:rdf="http://www.w3.org/1999/02/22-rdf-syntax-ns#"
   xmlns:svg="http://www.w3.org/2000/svg"
   xmlns="http://www.w3.org/2000/svg"
   xmlns:sodipodi="http://sodipodi.sourceforge.net/DTD/sodipodi-0.dtd"
   xmlns:inkscape="http://www.inkscape.org/namespaces/inkscape"
   width="170.0mm"
   height="135.0mm"
   viewBox="0 0 170.0 135.0"
   version="1.1"
   id="svg7327"
   inkscape:version="1.0.2 (1.0.2+r75+1)"
   sodipodi:docname="PSLayers2.svg">
  <defs
     id="defs7321" />
  <sodipodi:namedview
     id="base"
     pagecolor="#ffffff"
     bordercolor="#666666"
     borderopacity="1.0"
     inkscape:pageopacity="0.0"
     inkscape:pageshadow="2"
     inkscape:zoom="1.3494444"
     inkscape:cx="336.46125"
     inkscape:cy="273.73502"
     inkscape:document-units="mm"
     inkscape:current-layer="g8010"
     inkscape:document-rotation="0"
     showgrid="false"
     inkscape:window-width="1600"
     inkscape:window-height="847"
     inkscape:window-x="0"
     inkscape:window-y="27"
     inkscape:window-maximized="1" />
  <metadata
     id="metadata7324">
    <rdf:RDF>
      <cc:Work
         rdf:about="">
        <dc:format>image/svg+xml</dc:format>
        <dc:type
           rdf:resource="http://purl.org/dc/dcmitype/StillImage" />
        <dc:title />
      </cc:Work>
    </rdf:RDF>
  </metadata>
  <g
     inkscape:label="[fixed] BG-disabled"
     inkscape:groupmode="layer"
     sodipodi:insensitive="true"
     id="g8006">
    <rect
       x="0"
       y="0"
       width="170.0"
       height="135.0"
       style="fill:#FFFFFF;fill-opacity:1;stroke:none"
       id="rect8004" />
  </g>
  <g
     inkscape:label="Edge.Cuts"
     inkscape:groupmode="layer"
     id="g8008">
    <path
       style="display:inline;fill:none;stroke:#000000;stroke-width:0.15;stroke-miterlimit:4;stroke-dasharray:none;stroke-opacity:1"
       d="m 45.870262,29.585408 c -3.32513,-0.15111 -6.87005,0.44498 -9.12812,2.14044 -0.43368,0.3256 -0.41738,0.84675 -0.71159,1.2609 -0.36101,0.50826 -1.02501,0.74056 -1.43402,1.22835 -4.82501,5.75348 -7.09272,13.38867 -9.00772,20.468 -2.46683,9.11914 -4.61249,18.69268 -5.72833,28.2437 0.20602,0.33856 0.39013,0.66194 0.62425,1.017 0.4376,0.66363 0.92459,1.35146 1.46399,2.04689 0.5394,0.69541 1.13119,1.39828 1.77715,2.09185 0.64597,0.69356 1.34646,1.37798 2.10376,2.03604 0.75729,0.65807 1.57142,1.28953 2.44481,1.87844 0.87338,0.58891 1.80611,1.13497 2.80034,1.62108 0.49712,0.24306 1.00915,0.47109 1.53737,0.68213 0.52823,0.21105 1.07254,0.40498 1.63246,0.57981 0.55993,0.17484 1.13584,0.33068 1.72806,0.46509 0.59222,0.13441 1.20062,0.24766 1.82573,0.33745 0.62511,0.0898 1.26687,0.15593 1.92547,0.19689 0.65859,0.0409 1.33407,0.0565 2.02674,0.0444 0.69268,-0.0121 1.40224,-0.0516 2.12959,-0.12093 0.72735,-0.0693 1.47238,-0.16842 2.23501,-0.2992 0.76262,-0.13078 1.54297,-0.29346 2.34146,-0.48989 0.67623,-0.16636 1.37245,-0.37082 2.0748,-0.58705 0.26399,-0.82468 0.56817,-1.72326 0.81649,-2.48511 0.54059,-1.65819 1.03127,-3.34796 1.47485,-5.03483 0.21969,-0.83563 0.3057,-1.8243 1.00976,-2.4112 2.05376,-1.71156 3.29976,-0.29056 5.34799,0.58652 1.71642,0.7351 3.99585,1.29499 5.87406,1.12448 2.11351,-0.19166 4.17689,-0.76525 6.04201,-1.78231 0.94339,-0.5144 1.8021,-1.57724 2.85357,-1.82831 2.41645,-0.57702 5.56857,-0.0527 8.05584,-0.0527 5.18686,0 10.42686,-0.21891 15.60835,0.003 1.13975,0.049 1.93871,0.97013 2.853058,1.55805 1.27905,0.82219 2.71365,1.39228 4.19561,1.72391 2.54768,0.57012 5.08517,0.37243 7.55247,-0.48989 2.25936,-0.78965 3.78241,-2.70745 6.01979,-0.84283 0.77638,0.64715 0.84576,1.82905 1.1007,2.74658 0.57751,2.07759 1.16832,4.178 1.89084,6.20994 0.16649,0.46823 0.36746,0.98148 0.53692,1.46296 0.24422,0.0533 0.3619,0.10135 0.62218,0.15348 0.78341,0.15692 1.63693,0.30643 2.54765,0.43409 0.91072,0.12765 1.87862,0.23389 2.88923,0.30489 1.01061,0.071 2.06401,0.1066 3.14709,0.0935 1.08309,-0.0131 2.1957,-0.075 3.32383,-0.19948 1.12814,-0.12452 2.27211,-0.31178 3.41788,-0.57516 1.14578,-0.26337 2.29325,-0.60286 3.42925,-1.03249 0.568,-0.21481 1.13303,-0.45214 1.69344,-0.71365 0.56041,-0.26151 1.11613,-0.54723 1.66553,-0.85886 0.5494,-0.31164 1.09285,-0.64922 1.62781,-1.01441 0.53496,-0.36518 1.06162,-0.75813 1.57871,-1.18029 0.51709,-0.42215 1.02452,-0.87343 1.52032,-1.35599 0.4958,-0.48255 0.98,-0.99616 1.45108,-1.54253 0.47107,-0.54638 0.92908,-1.12579 1.37201,-1.73942 0.10841,-0.1502 0.20707,-0.3221 0.31367,-0.47645 -0.76297,-8.29396 -2.51041,-16.60533 -4.41885,-24.65529 -1.27082,-5.36107 -2.44493,-10.87419 -4.63279,-15.94424 -1.70669,-3.95497 -3.80791,-8.52056 -7.04505,-11.37863 -0.52314,-0.46191 -0.45693,-1.21325 -1.08211,-1.59732 -3.98433,-2.44787 -10.48372,-2.68071 -14.74431,-0.91881 -0.96051,0.39718 -0.88381,1.10325 -1.56218,1.72548 -0.55721,0.51114 -1.58596,0.71495 -2.29857,0.91777 -21.514108,-1.20653 -27.301408,-3.22866 -56.355718,0.27505 -2.07944,0 -2.3634,0.24473 -4.39971,-0.18708 -0.78813,-0.1671 -2.03043,-0.45155 -2.63446,-1.00562 -0.80697,-0.7402 -0.7202,-1.42486 -1.89704,-1.85518 -1.51137,-0.55268 -3.42733,-0.91238 -5.42241,-1.00304 z"
       id="path1095"
       sodipodi:nodetypes="ccccccsssssssssscscsscccccccssccssccscsssscsssssssssccsscscccccccc" />
  </g>
  <g
     inkscape:label="B.SilkS"
     inkscape:groupmode="layer"
     id="g8010"
     style="display:inline">
    <path
       style="display:inline;color:#000000;font-style:normal;font-variant:normal;font-weight:normal;font-stretch:normal;font-size:medium;line-height:normal;font-family:sans-serif;font-variant-ligatures:normal;font-variant-position:normal;font-variant-caps:normal;font-variant-numeric:normal;font-variant-alternates:normal;font-variant-east-asian:normal;font-feature-settings:normal;font-variation-settings:normal;text-indent:0;text-align:start;text-decoration:none;text-decoration-line:none;text-decoration-style:solid;text-decoration-color:#000000;letter-spacing:normal;word-spacing:normal;text-transform:none;writing-mode:lr-tb;direction:ltr;text-orientation:mixed;dominant-baseline:auto;baseline-shift:baseline;text-anchor:start;white-space:normal;shape-padding:0;shape-margin:0;inline-size:0;clip-rule:nonzero;overflow:visible;visibility:visible;isolation:auto;mix-blend-mode:normal;color-interpolation:sRGB;color-interpolation-filters:linearRGB;solid-color:#000000;solid-opacity:1;vector-effect:none;fill:#ffffff;fill-opacity:1;fill-rule:nonzero;stroke:none;stroke-linecap:butt;stroke-linejoin:miter;stroke-miterlimit:4;stroke-dasharray:2.4, 0.80000000000000004;stroke-dashoffset:1.2;stroke-opacity:1;color-rendering:auto;image-rendering:auto;shape-rendering:auto;text-rendering:auto;enable-background:accumulate;stop-color:#000000;stop-opacity:1;opacity:1"
       d="M 50.679688 39.9375 L 50.566406 39.939453 L 50.488281 39.945312 L 50.546875 40.744141 L 50.607422 40.740234 L 50.689453 40.736328 L 50.701172 40.736328 L 51.890625 40.736328 L 51.890625 39.9375 L 50.689453 39.9375 L 50.689453 40.300781 L 50.679688 39.9375 z M 52.689453 39.9375 L 52.689453 40.736328 L 55.089844 40.736328 L 55.089844 39.9375 L 52.689453 39.9375 z M 55.890625 39.9375 L 55.890625 40.736328 L 58.291016 40.736328 L 58.291016 39.9375 L 55.890625 39.9375 z M 59.089844 39.9375 L 59.089844 40.736328 L 61.490234 40.736328 L 61.490234 39.9375 L 59.089844 39.9375 z M 62.291016 39.9375 L 62.291016 40.736328 L 64.689453 40.736328 L 64.689453 39.9375 L 62.291016 39.9375 z M 65.490234 39.9375 L 65.490234 40.736328 L 67.890625 40.736328 L 67.890625 39.9375 L 65.490234 39.9375 z M 68.689453 39.9375 L 68.689453 40.736328 L 71.089844 40.736328 L 71.089844 39.9375 L 68.689453 39.9375 z M 71.890625 39.9375 L 71.890625 40.736328 L 74.291016 40.736328 L 74.291016 39.9375 L 71.890625 39.9375 z M 75.089844 39.9375 L 75.089844 40.736328 L 77.490234 40.736328 L 77.490234 39.9375 L 75.089844 39.9375 z M 78.291016 39.9375 L 78.291016 40.736328 L 80.689453 40.736328 L 80.689453 39.9375 L 78.291016 39.9375 z M 81.490234 39.9375 L 81.490234 40.736328 L 83.890625 40.736328 L 83.890625 39.9375 L 81.490234 39.9375 z M 84.689453 39.9375 L 84.689453 40.736328 L 87.089844 40.736328 L 87.089844 39.9375 L 84.689453 39.9375 z M 87.890625 39.9375 L 87.890625 40.736328 L 90.291016 40.736328 L 90.291016 39.9375 L 87.890625 39.9375 z M 91.089844 39.9375 L 91.089844 40.736328 L 93.490234 40.736328 L 93.490234 39.9375 L 91.089844 39.9375 z M 94.291016 39.9375 L 94.291016 40.736328 L 96.689453 40.736328 L 96.689453 39.9375 L 94.291016 39.9375 z M 97.490234 39.9375 L 97.490234 40.736328 L 99.890625 40.736328 L 99.890625 39.9375 L 97.490234 39.9375 z M 100.68945 39.9375 L 100.68945 40.736328 L 103.08984 40.736328 L 103.08984 39.9375 L 100.68945 39.9375 z M 103.89062 39.9375 L 103.89062 40.736328 L 106.29102 40.736328 L 106.29102 39.9375 L 103.89062 39.9375 z M 107.08984 39.9375 L 107.08984 40.736328 L 109.49023 40.736328 L 109.49023 39.9375 L 107.08984 39.9375 z M 110.29102 39.9375 L 110.29102 40.736328 L 112.68945 40.736328 L 112.68945 39.9375 L 110.29102 39.9375 z M 113.49023 39.9375 L 113.49023 40.736328 L 115.89062 40.736328 L 115.89062 39.9375 L 113.49023 39.9375 z M 116.68945 39.9375 L 116.68945 40.736328 L 119.08984 40.736328 L 119.08984 39.9375 L 116.68945 39.9375 z M 119.89062 39.9375 L 119.89062 40.736328 L 121.68945 40.736328 C 121.85039 40.736311 122.01252 40.759836 122.16406 40.806641 L 122.40039 40.042969 C 122.16964 39.971701 121.92851 39.937475 121.68945 39.9375 L 119.89062 39.9375 z M 49.570312 40.212891 C 49.42356 40.288855 49.288829 40.380117 49.166016 40.480469 C 49.165276 40.481061 49.164801 40.481829 49.164062 40.482422 C 49.163377 40.482983 49.162794 40.483813 49.162109 40.484375 C 48.522282 40.998955 48.227062 41.814556 48.291016 42.599609 L 49.089844 42.535156 C 49.045958 41.996445 49.258479 41.431533 49.666016 41.105469 L 49.667969 41.103516 L 49.669922 41.101562 C 49.755653 41.031219 49.846883 40.971746 49.939453 40.923828 L 49.570312 40.212891 z M 123.23438 40.498047 L 122.72461 41.113281 C 123.07649 41.404949 123.29433 41.875872 123.29102 42.333984 L 123.29102 42.335938 L 123.29102 42.994141 L 124.08984 42.994141 L 124.08984 42.339844 L 124.08984 42.337891 C 124.0944 41.632162 123.77899 40.949465 123.23438 40.498047 z M 48.291016 43.367188 L 48.291016 45.767578 L 49.089844 45.767578 L 49.089844 43.367188 L 48.291016 43.367188 z M 123.29102 43.792969 L 123.29102 46.193359 L 124.08984 46.193359 L 124.08984 43.792969 L 123.29102 43.792969 z M 48.291016 46.566406 L 48.291016 48.966797 L 49.089844 48.966797 L 49.089844 46.566406 L 48.291016 46.566406 z M 123.29102 46.994141 L 123.29102 49.394531 L 124.08984 49.394531 L 124.08984 46.994141 L 123.29102 46.994141 z M 48.291016 49.767578 L 48.291016 52.166016 L 49.089844 52.166016 L 49.089844 49.767578 L 48.291016 49.767578 z M 123.29102 50.193359 L 123.29102 52.59375 L 124.08984 52.59375 L 124.08984 50.193359 L 123.29102 50.193359 z M 48.291016 52.966797 L 48.291016 55.367188 L 49.089844 55.367188 L 49.089844 52.966797 L 48.291016 52.966797 z M 123.29102 53.394531 L 123.29102 55.792969 L 124.08984 55.792969 L 124.08984 53.394531 L 123.29102 53.394531 z M 48.291016 56.166016 L 48.291016 58.566406 L 49.089844 58.566406 L 49.089844 56.166016 L 48.291016 56.166016 z M 123.29102 56.59375 L 123.29102 58.994141 L 124.08984 58.994141 L 124.08984 56.59375 L 123.29102 56.59375 z M 48.291016 59.367188 L 48.291016 61.767578 L 49.089844 61.767578 L 49.089844 59.367188 L 48.291016 59.367188 z M 123.29102 59.792969 L 123.29102 62.193359 L 124.08984 62.193359 L 124.08984 59.792969 L 123.29102 59.792969 z M 48.291016 62.566406 L 48.291016 64.966797 L 49.089844 64.966797 L 49.089844 62.566406 L 48.291016 62.566406 z M 123.29102 62.994141 L 123.29102 65.332031 L 123.28906 65.384766 L 124.08789 65.404297 L 124.08984 65.341797 L 124.08984 62.994141 L 123.29102 62.994141 z M 49.126953 65.683594 L 48.34375 65.84375 C 48.366687 65.955501 48.399101 66.061493 48.435547 66.162109 C 48.726429 66.978508 49.461198 67.584343 50.320312 67.708984 L 50.435547 66.917969 C 49.885775 66.838208 49.373516 66.416671 49.1875 65.892578 L 49.1875 65.890625 C 49.161862 65.819848 49.140683 65.750488 49.126953 65.683594 z M 123.14453 66.005859 C 122.9144 66.527339 122.34728 66.913415 121.77734 66.935547 L 121.68555 66.9375 L 121.57617 66.9375 L 121.57617 67.736328 L 121.69531 67.736328 L 121.80664 67.734375 L 121.80859 67.734375 C 122.70034 67.699747 123.51647 67.146961 123.87695 66.330078 L 123.14453 66.005859 z M 51.175781 66.9375 L 51.175781 67.736328 L 53.576172 67.736328 L 53.576172 66.9375 L 51.175781 66.9375 z M 54.376953 66.9375 L 54.376953 67.736328 L 56.777344 67.736328 L 56.777344 66.9375 L 54.376953 66.9375 z M 57.576172 66.9375 L 57.576172 67.736328 L 59.976562 67.736328 L 59.976562 66.9375 L 57.576172 66.9375 z M 60.777344 66.9375 L 60.777344 67.736328 L 63.175781 67.736328 L 63.175781 66.9375 L 60.777344 66.9375 z M 63.976562 66.9375 L 63.976562 67.736328 L 66.376953 67.736328 L 66.376953 66.9375 L 63.976562 66.9375 z M 67.175781 66.9375 L 67.175781 67.736328 L 69.576172 67.736328 L 69.576172 66.9375 L 67.175781 66.9375 z M 70.376953 66.9375 L 70.376953 67.736328 L 72.777344 67.736328 L 72.777344 66.9375 L 70.376953 66.9375 z M 73.576172 66.9375 L 73.576172 67.736328 L 75.976562 67.736328 L 75.976562 66.9375 L 73.576172 66.9375 z M 76.777344 66.9375 L 76.777344 67.736328 L 79.175781 67.736328 L 79.175781 66.9375 L 76.777344 66.9375 z M 79.976562 66.9375 L 79.976562 67.736328 L 82.376953 67.736328 L 82.376953 66.9375 L 79.976562 66.9375 z M 83.175781 66.9375 L 83.175781 67.736328 L 85.576172 67.736328 L 85.576172 66.9375 L 83.175781 66.9375 z M 86.376953 66.9375 L 86.376953 67.736328 L 88.777344 67.736328 L 88.777344 66.9375 L 86.376953 66.9375 z M 89.576172 66.9375 L 89.576172 67.736328 L 91.976562 67.736328 L 91.976562 66.9375 L 89.576172 66.9375 z M 92.777344 66.9375 L 92.777344 67.736328 L 95.175781 67.736328 L 95.175781 66.9375 L 92.777344 66.9375 z M 95.976562 66.9375 L 95.976562 67.736328 L 98.376953 67.736328 L 98.376953 66.9375 L 95.976562 66.9375 z M 99.175781 66.9375 L 99.175781 67.736328 L 101.57617 67.736328 L 101.57617 66.9375 L 99.175781 66.9375 z M 102.37695 66.9375 L 102.37695 67.736328 L 104.77734 67.736328 L 104.77734 66.9375 L 102.37695 66.9375 z M 105.57617 66.9375 L 105.57617 67.736328 L 107.97656 67.736328 L 107.97656 66.9375 L 105.57617 66.9375 z M 108.77734 66.9375 L 108.77734 67.736328 L 111.17578 67.736328 L 111.17578 66.9375 L 108.77734 66.9375 z M 111.97656 66.9375 L 111.97656 67.736328 L 114.37695 67.736328 L 114.37695 66.9375 L 111.97656 66.9375 z M 115.17578 66.9375 L 115.17578 67.736328 L 117.57617 67.736328 L 117.57617 66.9375 L 115.17578 66.9375 z M 118.37695 66.9375 L 118.37695 67.736328 L 120.77734 67.736328 L 120.77734 66.9375 L 118.37695 66.9375 z "
       id="rect8090" />
  </g>
  <g
     inkscape:label="F.SilkS"
     inkscape:groupmode="layer"
     id="g8012"
     style="display:inline">
    <path
       style="display:inline;fill:#025e02;fill-opacity:1;stroke:none;stroke-width:0.167832"
       d="m 127.87865,57.861198 c 4.26848,0.13716 5.45706,7.0228 0.78445,7.84396 -5.14523,0.90429 -6.83358,-6.87253 -1.67793,-7.77782 0.31111,-0.0546 0.60892,-0.0753 0.89348,-0.0661 z"
       id="path1826" />
    <path
       style="display:inline;fill:#025e02;fill-opacity:1;stroke:none;stroke-width:0.167832"
       d="m 50.956772,50.199648 c 2.45387,-0.29336 2.68563,0.56931 2.68563,2.80551 0,0.83162 0.27824,2.63256 -0.85732,2.82826 -1.78523,0.30764 -6.21991,-0.41869 -6.32313,-2.82826 -0.091,-2.12442 3.02326,-2.62945 4.49482,-2.80551 z"
       id="path1822" />
    <path
       style="display:inline;fill:#025e02;fill-opacity:1;stroke:none;stroke-width:0.167832"
       d="m 59.043612,65.641128 c 6.88496,0.62897 7.34422,12.10371 -0.45527,12.87154 -8.27245,0.81449 -9.24706,-11.87346 -1.00717,-12.84622 0.51557,-0.0609 1.00345,-0.0673 1.46244,-0.0253 z"
       id="path1816" />
    <path
       style="display:inline;fill:#025e02;fill-opacity:1;stroke:none;stroke-width:0.167832"
       d="m 113.42635,65.095928 c 6.88103,0.54174 7.61552,11.86376 -0.11472,12.86792 -8.29611,1.07748 -9.69053,-11.75194 -1.34256,-12.82606 0.51269,-0.066 0.99854,-0.078 1.45728,-0.0419 z"
       id="path1814" />
    <path
       style="display:inline;fill:#025e02;fill-opacity:1;stroke:none;stroke-width:0.167832"
       d="m 35.657452,49.982128 c 3.22731,-0.0971 7.7022,3.31603 3.38325,5.26272 -0.85913,0.38736 -4.17015,1.10629 -4.89066,0.34417 -0.74903,-0.79234 -0.88545,-4.83311 0.22996,-5.33611 0.38084,-0.17167 0.8164,-0.25691 1.27745,-0.27078 z"
       id="path1812" />
    <path
       style="display:inline;fill:#025e02;fill-opacity:1;stroke:none;stroke-width:0.167832"
       d="m 127.87865,39.063378 c 4.26848,0.13723 5.45705,7.0228 0.78445,7.84397 -5.14507,0.90428 -6.83358,-6.87197 -1.67793,-7.7773 0.31111,-0.0546 0.60892,-0.0758 0.89348,-0.0667 z"
       id="path1804" />
    <path
       id="path2109"
       style="display:inline;fill:#025e02;fill-opacity:1;stroke:none;stroke-width:0.185384"
       d="m 64.629992,38.724148 c -0.50538,-0.009 -0.99594,0.0387 -1.27689,0.266 -0.90876,0.73534 -0.32308,4.44691 -0.32308,5.55624 v 13.90372 c 0,1.58097 -0.39206,4.01972 1.1205,5.05622 2.09335,1.43468 6.98514,0.50573 9.44686,0.50573 h 24.65603 6.673848 c 1.10283,0 2.40651,0.11696 3.31694,-0.63588 1.39203,-1.15086 0.94695,-3.51393 0.94695,-5.11101 v -13.71879 c 0,-1.07546 0.5804,-4.86095 -0.29739,-5.55624 -0.54503,-0.43167 -1.82897,-0.19065 -2.48356,-0.19065 h -6.859348 -26.13898 -7.41536 c -0.34074,0 -0.86114,-0.0662 -1.36652,-0.0753 z m 21.48234,5.62816 a 8.2843498,8.2843498 0 0 1 0.13072,10e-4 8.2843498,8.2843498 0 0 1 0.13071,0.003 8.2843498,8.2843498 0 0 1 0.13072,0.006 8.2843498,8.2843498 0 0 1 0.13071,0.007 8.2843498,8.2843498 0 0 1 0.13015,0.009 8.2843498,8.2843498 0 0 1 0.13071,0.0114 8.2843498,8.2843498 0 0 1 0.13015,0.0137 8.2843498,8.2843498 0 0 1 0.12957,0.0154 8.2843498,8.2843498 0 0 1 0.13015,0.0177 8.2843498,8.2843498 0 0 1 0.129,0.0194 8.2843498,8.2843498 0 0 1 0.129,0.0217 8.2843498,8.2843498 0 0 1 0.129,0.0234 8.2843498,8.2843498 0 0 1 0.12843,0.0257 8.2843498,8.2843498 0 0 1 0.12787,0.028 8.2843498,8.2843498 0 0 1 0.12728,0.0297 8.2843498,8.2843498 0 0 1 0.12672,0.0314 8.2843498,8.2843498 0 0 1 0.12672,0.0337 8.2843498,8.2843498 0 0 1 0.12558,0.036 8.2843498,8.2843498 0 0 1 0.12558,0.0377 8.2843498,8.2843498 0 0 1 0.12444,0.0394 8.2843498,8.2843498 0 0 1 0.12386,0.0417 8.2843498,8.2843498 0 0 1 0.12386,0.0439 8.2843498,8.2843498 0 0 1 0.12273,0.0451 8.2843498,8.2843498 0 0 1 0.12158,0.048 8.2843498,8.2843498 0 0 1 0.12101,0.0491 8.2843498,8.2843498 0 0 1 0.12044,0.0514 8.2843498,8.2843498 0 0 1 0.11987,0.0531 8.2843498,8.2843498 0 0 1 0.11873,0.0548 8.2843498,8.2843498 0 0 1 0.11758,0.0571 8.2843498,8.2843498 0 0 1 0.11702,0.0588 8.2843498,8.2843498 0 0 1 0.11588,0.0605 8.2843498,8.2843498 0 0 1 0.11473,0.0628 8.2843498,8.2843498 0 0 1 0.11416,0.0639 8.2843498,8.2843498 0 0 1 0.11302,0.0662 8.2843498,8.2843498 0 0 1 0.11188,0.0679 8.2843498,8.2843498 0 0 1 0.11074,0.0696 8.2843498,8.2843498 0 0 1 0.10959,0.0713 8.2843498,8.2843498 0 0 1 0.10845,0.0731 8.2843498,8.2843498 0 0 1 0.10788,0.0748 8.2843498,8.2843498 0 0 1 0.10618,0.0765 8.2843498,8.2843498 0 0 1 0.10502,0.0776 8.2843498,8.2843498 0 0 1 0.10332,0.0799 8.2843498,8.2843498 0 0 1 0.10275,0.0816 8.2843498,8.2843498 0 0 1 0.10104,0.0828 8.2843498,8.2843498 0 0 1 0.0999,0.0845 8.2843498,8.2843498 0 0 1 0.0982,0.0862 8.2843498,8.2843498 0 0 1 0.0976,0.0879 8.2843498,8.2843498 0 0 1 0.0953,0.089 8.2843498,8.2843498 0 0 1 0.0942,0.0908 8.2843498,8.2843498 0 0 1 0.093,0.0919 8.2843498,8.2843498 0 0 1 0.0913,0.0936 8.2843498,8.2843498 0 0 1 0.0902,0.0953 8.2843498,8.2843498 0 0 1 0.0885,0.0965 8.2843498,8.2843498 0 0 1 0.0868,0.0976 8.2843498,8.2843498 0 0 1 0.085,0.0993 8.2843498,8.2843498 0 0 1 0.0839,0.10046 8.2843498,8.2843498 0 0 1 0.0822,0.10218 8.2843498,8.2843498 0 0 1 0.0805,0.10332 8.2843498,8.2843498 0 0 1 0.0788,0.10446 8.2843498,8.2843498 0 0 1 0.0771,0.1056 8.2843498,8.2843498 0 0 1 0.0753,0.10673 8.2843498,8.2843498 0 0 1 0.0742,0.10789 8.2843498,8.2843498 0 0 1 0.0719,0.10902 8.2843498,8.2843498 0 0 1 0.0702,0.11073 8.2843498,8.2843498 0 0 1 0.0685,0.11131 8.2843498,8.2843498 0 0 1 0.0674,0.11245 8.2843498,8.2843498 0 0 1 0.0651,0.11359 8.2843498,8.2843498 0 0 1 0.0628,0.11417 8.2843498,8.2843498 0 0 1 0.0616,0.11587 8.2843498,8.2843498 0 0 1 0.0599,0.11644 8.2843498,8.2843498 0 0 1 0.0576,0.11702 8.2843498,8.2843498 0 0 1 0.0559,0.11873 8.2843498,8.2843498 0 0 1 0.0537,0.11872 8.2843498,8.2843498 0 0 1 0.0525,0.12045 8.2843498,8.2843498 0 0 1 0.0502,0.12044 8.2843498,8.2843498 0 0 1 0.048,0.12158 8.2843498,8.2843498 0 0 1 0.0468,0.12272 8.2843498,8.2843498 0 0 1 0.0445,0.12273 8.2843498,8.2843498 0 0 1 0.0422,0.12386 8.2843498,8.2843498 0 0 1 0.0405,0.12444 8.2843498,8.2843498 0 0 1 0.0388,0.125 8.2843498,8.2843498 0 0 1 0.0365,0.12558 8.2843498,8.2843498 0 0 1 0.0348,0.12615 8.2843498,8.2843498 0 0 1 0.0325,0.12672 8.2843498,8.2843498 0 0 1 0.0302,0.12729 8.2843498,8.2843498 0 0 1 0.0285,0.12786 8.2843498,8.2843498 0 0 1 0.0268,0.12786 8.2843498,8.2843498 0 0 1 0.0245,0.12843 8.2843498,8.2843498 0 0 1 0.0223,0.129 8.2843498,8.2843498 0 0 1 0.0206,0.129 8.2843498,8.2843498 0 0 1 0.0188,0.12958 8.2843498,8.2843498 0 0 1 0.016,0.13014 8.2843498,8.2843498 0 0 1 0.0148,0.13015 8.2843498,8.2843498 0 0 1 0.012,0.13014 8.2843498,8.2843498 0 0 1 0.0103,0.13014 8.2843498,8.2843498 0 0 1 0.008,0.13072 8.2843498,8.2843498 0 0 1 0.006,0.13072 8.2843498,8.2843498 0 0 1 0.004,0.13071 8.2843498,8.2843498 0 0 1 0.002,0.13072 8.2843498,8.2843498 0 0 1 0,0.0599 8.2843498,8.2843498 0 0 1 -0.001,0.13071 8.2843498,8.2843498 0 0 1 -0.003,0.13072 8.2843498,8.2843498 0 0 1 -0.005,0.13071 8.2843498,8.2843498 0 0 1 -0.007,0.13072 8.2843498,8.2843498 0 0 1 -0.009,0.13071 8.2843498,8.2843498 0 0 1 -0.0114,0.13014 8.2843498,8.2843498 0 0 1 -0.0137,0.13015 8.2843498,8.2843498 0 0 1 -0.0154,0.13014 8.2843498,8.2843498 0 0 1 -0.0171,0.12958 8.2843498,8.2843498 0 0 1 -0.02,0.129 8.2843498,8.2843498 0 0 1 -0.0217,0.129 8.2843498,8.2843498 0 0 1 -0.0234,0.129 8.2843498,8.2843498 0 0 1 -0.0257,0.12844 8.2843498,8.2843498 0 0 1 -0.0274,0.12786 8.2843498,8.2843498 0 0 1 -0.0297,0.12729 8.2843498,8.2843498 0 0 1 -0.032,0.12671 8.2843498,8.2843498 0 0 1 -0.0337,0.12673 8.2843498,8.2843498 0 0 1 -0.036,0.12557 8.2843498,8.2843498 0 0 1 -0.0377,0.12558 8.2843498,8.2843498 0 0 1 -0.0394,0.12444 8.2843498,8.2843498 0 0 1 -0.0417,0.12443 8.2843498,8.2843498 0 0 1 -0.0434,0.1233 8.2843498,8.2843498 0 0 1 -0.0457,0.12272 8.2843498,8.2843498 0 0 1 -0.0474,0.12158 8.2843498,8.2843498 0 0 1 -0.0497,0.12158 8.2843498,8.2843498 0 0 1 -0.0514,0.11987 8.2843498,8.2843498 0 0 1 -0.0531,0.11987 8.2843498,8.2843498 0 0 1 -0.0548,0.11873 8.2843498,8.2843498 0 0 1 -0.0571,0.11759 8.2843498,8.2843498 0 0 1 -0.0588,0.11701 8.2843498,8.2843498 0 0 1 -0.0605,0.11588 8.2843498,8.2843498 0 0 1 -0.0628,0.1153 8.2843498,8.2843498 0 0 1 -0.0639,0.11359 8.2843498,8.2843498 0 0 1 -0.0662,0.11302 8.2843498,8.2843498 0 0 1 -0.0679,0.11188 8.2843498,8.2843498 0 0 1 -0.0696,0.11073 8.2843498,8.2843498 0 0 1 -0.0714,0.1096 8.2843498,8.2843498 0 0 1 -0.0725,0.10902 8.2843498,8.2843498 0 0 1 -0.0748,0.10731 8.2843498,8.2843498 0 0 1 -0.0765,0.10618 8.2843498,8.2843498 0 0 1 -0.0782,0.10502 8.2843498,8.2843498 0 0 1 -0.0799,0.10332 8.2843498,8.2843498 0 0 1 -0.081,0.10275 8.2843498,8.2843498 0 0 1 -0.0833,0.10104 8.2843498,8.2843498 0 0 1 -0.0845,0.0999 8.2843498,8.2843498 0 0 1 -0.0862,0.0987 8.2843498,8.2843498 0 0 1 -0.0879,0.097 8.2843498,8.2843498 0 0 1 -0.0891,0.0953 8.2843498,8.2843498 0 0 1 -0.0908,0.0947 8.2843498,8.2843498 0 0 1 -0.0919,0.0925 8.2843498,8.2843498 0 0 1 -0.0936,0.0913 8.2843498,8.2843498 0 0 1 -0.0953,0.0902 8.2843498,8.2843498 0 0 1 -0.0965,0.0885 8.2843498,8.2843498 0 0 1 -0.0976,0.0868 8.2843498,8.2843498 0 0 1 -0.0993,0.085 8.2843498,8.2843498 0 0 1 -0.10046,0.0839 8.2843498,8.2843498 0 0 1 -0.10217,0.0822 8.2843498,8.2843498 0 0 1 -0.10275,0.0805 8.2843498,8.2843498 0 0 1 -0.10446,0.0788 8.2843498,8.2843498 0 0 1 -0.1056,0.0771 8.2843498,8.2843498 0 0 1 -0.10731,0.0753 8.2843498,8.2843498 0 0 1 -0.10788,0.0742 8.2843498,8.2843498 0 0 1 -0.10902,0.0719 8.2843498,8.2843498 0 0 1 -0.11016,0.0702 8.2843498,8.2843498 0 0 1 -0.11188,0.0691 8.2843498,8.2843498 0 0 1 -0.11245,0.0668 8.2843498,8.2843498 0 0 1 -0.11359,0.0651 8.2843498,8.2843498 0 0 1 -0.11416,0.0634 8.2843498,8.2843498 0 0 1 -0.11588,0.0611 8.2843498,8.2843498 0 0 1 -0.11644,0.0599 8.2843498,8.2843498 0 0 1 -0.11702,0.0577 8.2843498,8.2843498 0 0 1 -0.11815,0.0559 8.2843498,8.2843498 0 0 1 -0.1193,0.0537 8.2843498,8.2843498 0 0 1 -0.11987,0.0525 8.2843498,8.2843498 0 0 1 -0.12101,0.0502 8.2843498,8.2843498 0 0 1 -0.12158,0.0485 8.2843498,8.2843498 0 0 1 -0.12216,0.0462 8.2843498,8.2843498 0 0 1 -0.12329,0.0445 8.2843498,8.2843498 0 0 1 -0.12387,0.0422 8.2843498,8.2843498 0 0 1 -0.12443,0.0405 8.2843498,8.2843498 0 0 1 -0.12501,0.0388 8.2843498,8.2843498 0 0 1 -0.12558,0.0365 8.2843498,8.2843498 0 0 1 -0.12615,0.0348 8.2843498,8.2843498 0 0 1 -0.12672,0.0325 8.2843498,8.2843498 0 0 1 -0.12729,0.0303 8.2843498,8.2843498 0 0 1 -0.12728,0.0291 8.2843498,8.2843498 0 0 1 -0.12844,0.0263 8.2843498,8.2843498 0 0 1 -0.12843,0.0245 8.2843498,8.2843498 0 0 1 -0.129,0.0228 8.2843498,8.2843498 0 0 1 -0.129,0.0205 8.2843498,8.2843498 0 0 1 -0.12958,0.0183 8.2843498,8.2843498 0 0 1 -0.13014,0.0166 8.2843498,8.2843498 0 0 1 -0.12957,0.0143 8.2843498,8.2843498 0 0 1 -0.13072,0.012 8.2843498,8.2843498 0 0 1 -0.13014,0.0103 8.2843498,8.2843498 0 0 1 -0.13072,0.008 8.2843498,8.2843498 0 0 1 -0.13071,0.006 8.2843498,8.2843498 0 0 1 -0.13072,0.004 8.2843498,8.2843498 0 0 1 -0.13071,0.002 8.2843498,8.2843498 0 0 1 -0.0594,0 8.2843498,8.2843498 0 0 1 -0.13129,-10e-4 8.2843498,8.2843498 0 0 1 -0.13071,-0.003 8.2843498,8.2843498 0 0 1 -0.13072,-0.005 8.2843498,8.2843498 0 0 1 -0.13071,-0.007 8.2843498,8.2843498 0 0 1 -0.13015,-0.009 8.2843498,8.2843498 0 0 1 -0.13071,-0.0114 8.2843498,8.2843498 0 0 1 -0.13015,-0.0137 8.2843498,8.2843498 0 0 1 -0.12957,-0.0154 8.2843498,8.2843498 0 0 1 -0.13014,-0.0171 8.2843498,8.2843498 0 0 1 -0.12901,-0.02 8.2843498,8.2843498 0 0 1 -0.129,-0.0211 8.2843498,8.2843498 0 0 1 -0.129,-0.024 8.2843498,8.2843498 0 0 1 -0.12843,-0.0257 8.2843498,8.2843498 0 0 1 -0.12786,-0.0274 8.2843498,8.2843498 0 0 1 -0.12729,-0.0297 8.2843498,8.2843498 0 0 1 -0.12672,-0.032 8.2843498,8.2843498 0 0 1 -0.12672,-0.0337 8.2843498,8.2843498 0 0 1 -0.12558,-0.036 8.2843498,8.2843498 0 0 1 -0.12558,-0.0377 8.2843498,8.2843498 0 0 1 -0.12443,-0.0394 8.2843498,8.2843498 0 0 1 -0.12387,-0.0417 8.2843498,8.2843498 0 0 1 -0.12387,-0.0434 8.2843498,8.2843498 0 0 1 -0.12215,-0.0457 8.2843498,8.2843498 0 0 1 -0.12215,-0.0474 8.2843498,8.2843498 0 0 1 -0.12101,-0.0497 8.2843498,8.2843498 0 0 1 -0.12044,-0.0514 8.2843498,8.2843498 0 0 1 -0.11987,-0.0531 8.2843498,8.2843498 0 0 1 -0.11873,-0.0548 8.2843498,8.2843498 0 0 1 -0.11759,-0.0571 8.2843498,8.2843498 0 0 1 -0.11701,-0.0588 8.2843498,8.2843498 0 0 1 -0.11587,-0.0605 8.2843498,8.2843498 0 0 1 -0.11474,-0.0622 8.2843498,8.2843498 0 0 1 -0.11416,-0.0645 8.2843498,8.2843498 0 0 1 -0.11302,-0.0662 8.2843498,8.2843498 0 0 1 -0.11188,-0.0679 8.2843498,8.2843498 0 0 1 -0.11073,-0.0691 8.2843498,8.2843498 0 0 1 -0.1096,-0.0713 8.2843498,8.2843498 0 0 1 -0.10845,-0.0731 8.2843498,8.2843498 0 0 1 -0.10788,-0.0748 8.2843498,8.2843498 0 0 1 -0.10617,-0.0765 8.2843498,8.2843498 0 0 1 -0.10503,-0.0782 8.2843498,8.2843498 0 0 1 -0.10332,-0.0799 8.2843498,8.2843498 0 0 1 -0.10275,-0.0811 8.2843498,8.2843498 0 0 1 -0.10103,-0.0833 8.2843498,8.2843498 0 0 1 -0.0999,-0.0845 8.2843498,8.2843498 0 0 1 -0.0982,-0.0862 8.2843498,8.2843498 0 0 1 -0.0976,-0.0873 8.2843498,8.2843498 0 0 1 -0.0953,-0.0896 8.2843498,8.2843498 0 0 1 -0.0942,-0.0908 8.2843498,8.2843498 0 0 1 -0.093,-0.0919 8.2843498,8.2843498 0 0 1 -0.0913,-0.0936 8.2843498,8.2843498 0 0 1 -0.0902,-0.0953 8.2843498,8.2843498 0 0 1 -0.0879,-0.0965 8.2843498,8.2843498 0 0 1 -0.0873,-0.0976 8.2843498,8.2843498 0 0 1 -0.085,-0.0993 8.2843498,8.2843498 0 0 1 -0.0839,-0.10046 8.2843498,8.2843498 0 0 1 -0.0822,-0.10217 8.2843498,8.2843498 0 0 1 -0.0805,-0.10275 8.2843498,8.2843498 0 0 1 -0.0788,-0.10446 8.2843498,8.2843498 0 0 1 -0.0771,-0.1056 8.2843498,8.2843498 0 0 1 -0.0753,-0.10731 8.2843498,8.2843498 0 0 1 -0.0742,-0.10788 8.2843498,8.2843498 0 0 1 -0.0719,-0.10902 8.2843498,8.2843498 0 0 1 -0.0702,-0.11016 8.2843498,8.2843498 0 0 1 -0.0685,-0.11131 8.2843498,8.2843498 0 0 1 -0.0674,-0.11302 8.2843498,8.2843498 0 0 1 -0.0651,-0.11302 8.2843498,8.2843498 0 0 1 -0.0628,-0.11473 8.2843498,8.2843498 0 0 1 -0.0616,-0.11531 8.2843498,8.2843498 0 0 1 -0.0594,-0.11644 8.2843498,8.2843498 0 0 1 -0.0582,-0.11759 8.2843498,8.2843498 0 0 1 -0.0559,-0.11815 8.2843498,8.2843498 0 0 1 -0.0537,-0.1193 8.2843498,8.2843498 0 0 1 -0.0525,-0.11987 8.2843498,8.2843498 0 0 1 -0.0502,-0.12101 8.2843498,8.2843498 0 0 1 -0.0479,-0.12159 8.2843498,8.2843498 0 0 1 -0.0468,-0.12215 8.2843498,8.2843498 0 0 1 -0.0445,-0.12329 8.2843498,8.2843498 0 0 1 -0.0422,-0.12387 8.2843498,8.2843498 0 0 1 -0.0405,-0.12444 8.2843498,8.2843498 0 0 1 -0.0388,-0.125 8.2843498,8.2843498 0 0 1 -0.0365,-0.12558 8.2843498,8.2843498 0 0 1 -0.0342,-0.12615 8.2843498,8.2843498 0 0 1 -0.0331,-0.12672 8.2843498,8.2843498 0 0 1 -0.0303,-0.12729 8.2843498,8.2843498 0 0 1 -0.0285,-0.12729 8.2843498,8.2843498 0 0 1 -0.0268,-0.12843 8.2843498,8.2843498 0 0 1 -0.0245,-0.12843 8.2843498,8.2843498 0 0 1 -0.0223,-0.129 8.2843498,8.2843498 0 0 1 -0.0205,-0.12901 8.2843498,8.2843498 0 0 1 -0.0188,-0.12957 8.2843498,8.2843498 0 0 1 -0.016,-0.12957 8.2843498,8.2843498 0 0 1 -0.0143,-0.13015 8.2843498,8.2843498 0 0 1 -0.0126,-0.13014 8.2843498,8.2843498 0 0 1 -0.0103,-0.13072 8.2843498,8.2843498 0 0 1 -0.008,-0.13071 8.2843498,8.2843498 0 0 1 -0.006,-0.13072 8.2843498,8.2843498 0 0 1 -0.004,-0.13071 8.2843498,8.2843498 0 0 1 -0.002,-0.13072 8.2843498,8.2843498 0 0 1 -5.8e-4,-0.0594 8.2843498,8.2843498 0 0 1 10e-4,-0.13128 8.2843498,8.2843498 0 0 1 0.003,-0.13072 8.2843498,8.2843498 0 0 1 0.005,-0.13071 8.2843498,8.2843498 0 0 1 0.007,-0.13072 8.2843498,8.2843498 0 0 1 0.009,-0.13014 8.2843498,8.2843498 0 0 1 0.0114,-0.13072 8.2843498,8.2843498 0 0 1 0.0137,-0.13014 8.2843498,8.2843498 0 0 1 0.0154,-0.12957 8.2843498,8.2843498 0 0 1 0.0177,-0.12958 8.2843498,8.2843498 0 0 1 0.0194,-0.12957 8.2843498,8.2843498 0 0 1 0.0217,-0.129 8.2843498,8.2843498 0 0 1 0.0234,-0.129 8.2843498,8.2843498 0 0 1 0.0257,-0.12786 8.2843498,8.2843498 0 0 1 0.0274,-0.12787 8.2843498,8.2843498 0 0 1 0.0303,-0.12786 8.2843498,8.2843498 0 0 1 0.0314,-0.12672 8.2843498,8.2843498 0 0 1 0.0337,-0.12672 8.2843498,8.2843498 0 0 1 0.036,-0.12558 8.2843498,8.2843498 0 0 1 0.0377,-0.12557 8.2843498,8.2843498 0 0 1 0.0394,-0.12444 8.2843498,8.2843498 0 0 1 0.0417,-0.12386 8.2843498,8.2843498 0 0 1 0.0434,-0.1233 8.2843498,8.2843498 0 0 1 0.0457,-0.12272 8.2843498,8.2843498 0 0 1 0.0474,-0.12215 8.2843498,8.2843498 0 0 1 0.0497,-0.12101 8.2843498,8.2843498 0 0 1 0.0514,-0.12044 8.2843498,8.2843498 0 0 1 0.0531,-0.11988 8.2843498,8.2843498 0 0 1 0.0548,-0.11815 8.2843498,8.2843498 0 0 1 0.0571,-0.11816 8.2843498,8.2843498 0 0 1 0.0588,-0.11701 8.2843498,8.2843498 0 0 1 0.0605,-0.11588 8.2843498,8.2843498 0 0 1 0.0628,-0.11473 8.2843498,8.2843498 0 0 1 0.0639,-0.11416 8.2843498,8.2843498 0 0 1 0.0662,-0.11302 8.2843498,8.2843498 0 0 1 0.0679,-0.11188 8.2843498,8.2843498 0 0 1 0.0696,-0.11074 8.2843498,8.2843498 0 0 1 0.0713,-0.10959 8.2843498,8.2843498 0 0 1 0.0731,-0.10845 8.2843498,8.2843498 0 0 1 0.0742,-0.10731 8.2843498,8.2843498 0 0 1 0.0765,-0.10617 8.2843498,8.2843498 0 0 1 0.0782,-0.10503 8.2843498,8.2843498 0 0 1 0.0799,-0.10388 8.2843498,8.2843498 0 0 1 0.0816,-0.10275 8.2843498,8.2843498 0 0 1 0.0828,-0.10104 8.2843498,8.2843498 0 0 1 0.0845,-0.0999 8.2843498,8.2843498 0 0 1 0.0862,-0.0982 8.2843498,8.2843498 0 0 1 0.0879,-0.097 8.2843498,8.2843498 0 0 1 0.0891,-0.0959 8.2843498,8.2843498 0 0 1 0.0907,-0.0942 8.2843498,8.2843498 0 0 1 0.0919,-0.093 8.2843498,8.2843498 0 0 1 0.0936,-0.0913 8.2843498,8.2843498 0 0 1 0.0953,-0.0902 8.2843498,8.2843498 0 0 1 0.0965,-0.0879 8.2843498,8.2843498 0 0 1 0.0976,-0.0868 8.2843498,8.2843498 0 0 1 0.0993,-0.0856 8.2843498,8.2843498 0 0 1 0.10047,-0.0839 8.2843498,8.2843498 0 0 1 0.10217,-0.0816 8.2843498,8.2843498 0 0 1 0.10331,-0.0805 8.2843498,8.2843498 0 0 1 0.10389,-0.0793 8.2843498,8.2843498 0 0 1 0.10617,-0.0771 8.2843498,8.2843498 0 0 1 0.10674,-0.0753 8.2843498,8.2843498 0 0 1 0.10789,-0.0736 8.2843498,8.2843498 0 0 1 0.10902,-0.0725 8.2843498,8.2843498 0 0 1 0.11017,-0.0702 8.2843498,8.2843498 0 0 1 0.11188,-0.0685 8.2843498,8.2843498 0 0 1 0.11245,-0.0668 8.2843498,8.2843498 0 0 1 0.11359,-0.0651 8.2843498,8.2843498 0 0 1 0.11416,-0.0634 8.2843498,8.2843498 0 0 1 0.11587,-0.0616 8.2843498,8.2843498 0 0 1 0.11645,-0.0594 8.2843498,8.2843498 0 0 1 0.11701,-0.0582 8.2843498,8.2843498 0 0 1 0.11873,-0.0559 8.2843498,8.2843498 0 0 1 0.11873,-0.0537 8.2843498,8.2843498 0 0 1 0.12044,-0.0525 8.2843498,8.2843498 0 0 1 0.12044,-0.0502 8.2843498,8.2843498 0 0 1 0.12158,-0.048 8.2843498,8.2843498 0 0 1 0.12273,-0.0468 8.2843498,8.2843498 0 0 1 0.12272,-0.0439 8.2843498,8.2843498 0 0 1 0.12387,-0.0428 8.2843498,8.2843498 0 0 1 0.12443,-0.0405 8.2843498,8.2843498 0 0 1 0.12501,-0.0388 8.2843498,8.2843498 0 0 1 0.12557,-0.0365 8.2843498,8.2843498 0 0 1 0.12615,-0.0342 8.2843498,8.2843498 0 0 1 0.12672,-0.0331 8.2843498,8.2843498 0 0 1 0.12729,-0.0302 8.2843498,8.2843498 0 0 1 0.12729,-0.0285 8.2843498,8.2843498 0 0 1 0.12843,-0.0268 8.2843498,8.2843498 0 0 1 0.12844,-0.0245 8.2843498,8.2843498 0 0 1 0.129,-0.0223 8.2843498,8.2843498 0 0 1 0.129,-0.0206 8.2843498,8.2843498 0 0 1 0.12958,-0.0188 8.2843498,8.2843498 0 0 1 0.13014,-0.016 8.2843498,8.2843498 0 0 1 0.12957,-0.0143 8.2843498,8.2843498 0 0 1 0.13072,-0.0126 8.2843498,8.2843498 0 0 1 0.13014,-0.0103 8.2843498,8.2843498 0 0 1 0.13072,-0.008 8.2843498,8.2843498 0 0 1 0.13071,-0.006 8.2843498,8.2843498 0 0 1 0.13072,-0.004 8.2843498,8.2843498 0 0 1 0.13071,-0.002 8.2843498,8.2843498 0 0 1 0.0599,-5.7e-4 z" />
    <g
       aria-label="Interspecies Gaming"
       id="text2208"
       style="font-style:normal;font-weight:normal;font-size:4.2683px;line-height:1.25;font-family:sans-serif;letter-spacing:0px;word-spacing:0px;display:inline;fill:#025e02;fill-opacity:1;stroke:none;stroke-width:0.107;stroke-miterlimit:4;stroke-dasharray:none"
       transform="translate(8.7911223,-16.830342)">
      <path
         d="m 58.383648,88.730766 v -0.150057 q 0.04168,-0.01251 0.137553,-0.03543 0.135468,-0.03335 0.202161,-0.06878 0.03751,-0.06461 0.03751,-0.179235 l -0.0021,-0.245928 0.0042,-0.475181 -0.0021,-0.112543 q 0.01459,-0.412658 0.01459,-0.425163 l -0.0042,-0.27719 0.0063,-0.112543 -0.01042,-0.237591 -0.0021,-0.08962 q -0.0021,-0.02084 -0.01459,-0.06669 -0.08545,-0.0396 -0.277189,-0.05002 -0.04585,-0.0021 -0.07295,-0.0063 l -0.0063,-0.183403 0.596061,0.02501 q 0.110459,0.0042 0.137553,0.0042 0.122964,0 0.393901,-0.01667 0.152141,-0.01042 0.19174,-0.0125 0.0021,0.0396 0.0021,0.06669 0,0.03543 -0.0042,0.0917 -0.08337,0.02918 -0.19174,0.05627 -0.106291,0.02501 -0.175067,0.0521 -0.01251,0.05419 -0.01251,0.15631 0,0.08962 0.0063,0.145889 -0.0063,0.352218 -0.0063,0.541874 l 0.0021,0.550211 -0.0063,0.279273 0.0042,0.416827 -0.0021,0.0792 q 0,0.01667 0.0083,0.04793 0.127132,0.02709 0.231339,0.03751 0.01876,0.0021 0.127132,0.01667 0.0083,0.06252 0.0083,0.104207 0,0.02293 -0.0021,0.07086 -0.02709,0 -0.04168,0.0021 -0.06669,0.0042 -0.07711,0.0042 -0.01459,0 -0.05419,-0.0063 -0.02918,-0.0042 -0.277189,-0.02918 l -0.368891,-0.0042 q -0.110459,0 -0.320957,0.02084 -0.137552,0.01251 -0.179235,0.01459 z"
         style="font-style:normal;font-variant:normal;font-weight:bold;font-stretch:normal;font-family:Garamond;-inkscape-font-specification:'Garamond Bold';fill:#025e02;fill-opacity:1;stroke-width:0.107;stroke-miterlimit:4;stroke-dasharray:none"
         id="path2214" />
      <path
         d="m 59.990513,88.624475 q 0.05419,-0.02501 0.100038,-0.03335 0.114628,-0.01876 0.133385,-0.03126 0.03126,-0.01876 0.04168,-0.04585 0.0125,-0.04168 0.0125,-0.183403 v -0.181319 l 0.0021,-0.147974 -0.0063,-0.218833 v -0.131301 q 0,-0.1313 -0.02084,-0.214665 -0.0083,-0.03126 -0.0521,-0.06252 -0.05835,-0.04168 -0.197992,-0.08128 l -0.0021,-0.100039 q 0.02709,-0.0083 0.04794,-0.01042 0.02292,-0.0042 0.168814,-0.04168 0.114628,-0.04168 0.147974,-0.05836 0.01042,-0.0063 0.03335,-0.01876 0.02501,-0.02084 0.05627,-0.04168 0.06252,-0.04377 0.150058,-0.152142 l 0.110459,-0.0083 -0.0042,0.235506 q -0.0021,0.03543 -0.0021,0.05627 0,0.01667 0.0021,0.09587 0.172983,-0.150057 0.314704,-0.208413 0.185488,-0.07711 0.352218,-0.07711 0.195909,0 0.343882,0.09795 0.147973,0.09587 0.193824,0.223002 0.04585,0.127132 0.04585,0.512696 l -0.0083,0.679427 q 0,0.04794 0.01667,0.0792 0.02084,0.01667 0.114628,0.03126 l 0.102122,0.01876 q 0.01876,0.02709 0.01876,0.06669 0,0.02501 -0.0021,0.06878 l -0.40849,-0.02918 -0.120879,0.0042 h -0.09587 l -0.275105,0.02084 h -0.07086 q -0.0021,-0.02709 -0.0021,-0.04168 0,-0.03751 0.0042,-0.08128 0.02918,-0.0063 0.145889,-0.02084 0.03126,-0.0042 0.06878,-0.01459 0.04168,-0.01667 0.04794,-0.03335 0.01667,-0.03543 0.01667,-0.135468 0,-0.175067 -0.0042,-0.268853 l 0.0021,-0.241759 q 0.0021,-0.439752 -0.05419,-0.548127 -0.0792,-0.156309 -0.237591,-0.156309 -0.116711,0 -0.241759,0.06044 -0.125048,0.05836 -0.258432,0.179236 l -0.0042,0.03543 0.0042,0.1313 -0.0021,0.139637 0.0083,0.333461 -0.0042,0.0521 q 0,0.339713 0.02709,0.38348 0.02709,0.04377 0.206329,0.09587 0.0063,0.03543 0.0063,0.0521 0,0.02501 -0.01459,0.07711 -0.06461,0.0021 -0.108375,0.0021 -0.04377,0 -0.137552,-0.0125 l -0.223002,-0.0042 q -0.166731,0 -0.481434,0.01459 -0.0083,-0.02084 -0.0083,-0.04377 0,-0.01667 0.0021,-0.06669 z"
         style="font-style:normal;font-variant:normal;font-weight:bold;font-stretch:normal;font-family:Garamond;-inkscape-font-specification:'Garamond Bold';fill:#025e02;fill-opacity:1;stroke-width:0.107;stroke-miterlimit:4;stroke-dasharray:none"
         id="path2216" />
      <path
         d="m 62.387264,87.150995 q 0.245927,-0.104207 0.354302,-0.204245 0.110459,-0.100038 0.235507,-0.325124 h 0.116711 q 0.01876,0.05419 0.01876,0.114627 0,0.108375 -0.0021,0.168814 l -0.0063,0.122964 q 0,0.01042 0.0021,0.04793 l 0.04794,0.0021 q 0.01042,0 0.195908,-0.0083 0.01459,0 0.15631,-0.0042 0.0125,0.05627 0.0125,0.100038 0,0.04794 -0.01459,0.112543 -0.06878,0.0083 -0.104207,0.0083 -0.01667,0 -0.06669,-0.0042 H 63.22504 l -0.03751,-0.0021 -0.100038,0.0042 -0.0042,0.796138 q -0.0021,0.231339 0.0083,0.289694 0.0125,0.05627 0.05002,0.108375 0.04793,0.02293 0.106291,0.02293 0.05627,0 0.08337,-0.01042 0.02709,-0.01042 0.0917,-0.06044 0.0125,-0.01042 0.0396,-0.02918 0.05002,0.0396 0.08128,0.0792 l 0.0083,0.02501 q -0.07294,0.114627 -0.206329,0.181319 -0.1313,0.06461 -0.281358,0.06461 -0.193824,0 -0.314704,-0.122963 -0.120879,-0.122964 -0.120879,-0.381396 l 0.0083,-0.366807 v -0.593978 l -0.06461,-0.0021 -0.150057,0.0021 -0.02709,-0.0063 q -0.01251,-0.01876 -0.01251,-0.03543 0,-0.01251 0.0042,-0.09379 z"
         style="font-style:normal;font-variant:normal;font-weight:bold;font-stretch:normal;font-family:Garamond;-inkscape-font-specification:'Garamond Bold';fill:#025e02;fill-opacity:1;stroke-width:0.107;stroke-miterlimit:4;stroke-dasharray:none"
         id="path2218" />
      <path
         d="m 63.777379,87.626177 q 0.05419,-0.177151 0.09587,-0.235507 0.116711,-0.170899 0.248011,-0.266769 0.133385,-0.09587 0.239675,-0.127132 0.137553,-0.0396 0.223002,-0.0396 0.195909,0 0.316788,0.03126 0.12088,0.02918 0.202161,0.08545 0.116711,0.08128 0.187572,0.164646 0.07086,0.08337 0.114627,0.195909 0.04585,0.112543 0.05002,0.273021 l -0.231338,-0.0042 q -0.09587,0 -0.420995,-0.01876 -0.120879,-0.0083 -0.16673,-0.0083 -0.01459,0 -0.225086,0.0021 H 64.23172 q -0.0042,0.02918 -0.0042,0.05002 0,0.110459 0.02709,0.233423 0.02709,0.120879 0.08128,0.214665 0.05419,0.0917 0.133384,0.158394 0.08128,0.06669 0.166731,0.09587 l 0.120879,0.0396 q 0.160478,0 0.214666,-0.01042 0.100038,-0.02084 0.175067,-0.0521 0.07711,-0.03335 0.185487,-0.110459 0.07503,0.05419 0.125048,0.09795 -0.183403,0.202161 -0.381396,0.293862 -0.195908,0.08962 -0.439751,0.08962 -0.164647,0 -0.268853,-0.02918 -0.139637,-0.03751 -0.25218,-0.114627 -0.112543,-0.07711 -0.193824,-0.19174 -0.08128,-0.114627 -0.12088,-0.235507 -0.0521,-0.158394 -0.0521,-0.254264 0,-0.181319 0.02918,-0.327208 z m 1.21088,-0.08962 q -0.0021,-0.116711 -0.04585,-0.223002 -0.04377,-0.106291 -0.135469,-0.164646 -0.0917,-0.06044 -0.185487,-0.06044 -0.139637,0 -0.25218,0.122964 -0.112543,0.122963 -0.127132,0.333461 l 0.475182,0.0021 q 0.04585,0 0.129216,-0.0063 0.06044,-0.0063 0.08545,-0.0063 0.01876,0 0.05627,0.0021 z"
         style="font-style:normal;font-variant:normal;font-weight:bold;font-stretch:normal;font-family:Garamond;-inkscape-font-specification:'Garamond Bold';fill:#025e02;fill-opacity:1;stroke-width:0.107;stroke-miterlimit:4;stroke-dasharray:none"
         id="path2220" />
      <path
         d="m 65.68019,88.628644 q 0.02709,-0.02293 0.07086,-0.03335 0.106291,-0.02293 0.202161,-0.08337 0.01876,-0.05002 0.01876,-0.337629 0,-0.527285 -0.02293,-0.712773 -0.0042,-0.03335 -0.03335,-0.05835 -0.0521,-0.02709 -0.141721,-0.04794 -0.04168,-0.01042 -0.05002,-0.04585 l -0.0063,-0.07711 q 0.154226,-0.02084 0.279273,-0.104207 0.125048,-0.08545 0.187572,-0.172982 0.03335,-0.04794 0.05836,-0.07295 l 0.145889,-0.0063 q 0.01042,0.04793 0.01042,0.0792 0,0.02293 -0.0021,0.05627 -0.0021,0.07295 -0.0021,0.12088 0,0.02293 0.0021,0.172983 0.08545,-0.14589 0.125047,-0.195909 0.01876,-0.02293 0.110459,-0.102122 0.07086,-0.0521 0.160478,-0.0521 0.110459,0 0.19174,0.07503 0.08128,0.07503 0.08128,0.172983 0,0.09795 -0.06252,0.177151 -0.06044,0.07711 -0.162563,0.07711 -0.08962,0 -0.187571,-0.07503 -0.05836,-0.04585 -0.09379,-0.04585 l -0.01459,0.0021 q -0.04377,0.01459 -0.0792,0.0792 -0.05836,0.104206 -0.05836,0.216749 l 0.0042,0.05627 q 0.0083,0.154225 0.01251,0.723193 0.0063,0.0521 0.0396,0.104207 0.03751,0.02918 0.07503,0.04168 0.0396,0.01251 0.135469,0.02084 0.09587,0.0083 0.116711,0.02709 0.02084,0.01667 0.02084,0.05627 0,0.02293 -0.01251,0.06044 H 66.60346 l -0.398069,-0.02084 q -0.150057,0 -0.273021,0.01251 h -0.03543 q -0.01459,0 -0.21675,0.01042 -0.0063,-0.03335 -0.0063,-0.05002 0,-0.01667 0.0063,-0.04794 z"
         style="font-style:normal;font-variant:normal;font-weight:bold;font-stretch:normal;font-family:Garamond;-inkscape-font-specification:'Garamond Bold';fill:#025e02;fill-opacity:1;stroke-width:0.107;stroke-miterlimit:4;stroke-dasharray:none"
         id="path2222" />
      <path
         d="m 67.332907,88.147209 q 0.06252,-0.0125 0.0917,-0.0125 0.01459,0 0.04377,0.0021 l 0.01876,0.02084 q 0.112543,0.197993 0.147973,0.239675 0.07295,0.08545 0.143805,0.137553 0.04794,0.03335 0.150057,0.06878 0.06878,0.02501 0.14589,0.02501 0.1313,0 0.225086,-0.08337 0.09379,-0.08545 0.09379,-0.183403 0,-0.06669 -0.03543,-0.112543 -0.03543,-0.04793 -0.141721,-0.09379 -0.0521,-0.02293 -0.2626,-0.07503 -0.208413,-0.0521 -0.25218,-0.06878 -0.09795,-0.03751 -0.175067,-0.104207 -0.07503,-0.06669 -0.114627,-0.150057 -0.05419,-0.118795 -0.05419,-0.204245 0,-0.158394 0.04585,-0.258432 0.04585,-0.102123 0.129217,-0.179235 0.06044,-0.05836 0.181319,-0.106291 0.122964,-0.04794 0.2626,-0.04794 0.197993,0 0.34805,0.02709 0.150058,0.02709 0.254264,0.08128 0.01251,0.04793 0.03543,0.220918 0.02293,0.172983 0.02293,0.204244 0,0.01459 -0.0063,0.03126 -0.05419,0.01667 -0.08962,0.01667 -0.02084,0 -0.06044,-0.0042 -0.01876,-0.02918 -0.05002,-0.08753 -0.100038,-0.185488 -0.206329,-0.260517 -0.104207,-0.07711 -0.241759,-0.07711 -0.143805,0 -0.241759,0.08337 -0.07086,0.06044 -0.07086,0.164646 0,0.06878 0.07503,0.139637 0.07294,0.07294 0.254264,0.110459 0.273021,0.06044 0.402237,0.120879 0.187572,0.08753 0.262601,0.206329 0.07711,0.118796 0.07711,0.275106 0,0.241759 -0.183403,0.404321 -0.181319,0.160478 -0.531453,0.160478 -0.04585,0 -0.239675,-0.02084 -0.08753,-0.01042 -0.206329,-0.04168 -0.02918,-0.0083 -0.152142,-0.06044 -0.02293,-0.0125 -0.03335,-0.02918 -0.0083,-0.01876 -0.02709,-0.175067 -0.03335,-0.254264 -0.03543,-0.304284 z"
         style="font-style:normal;font-variant:normal;font-weight:bold;font-stretch:normal;font-family:Garamond;-inkscape-font-specification:'Garamond Bold';fill:#025e02;fill-opacity:1;stroke-width:0.107;stroke-miterlimit:4;stroke-dasharray:none"
         id="path2224" />
      <path
         d="m 68.91893,89.789505 v -0.09379 q 0.03751,-0.02293 0.05419,-0.03126 l 0.160478,-0.05836 q 0.100039,-0.0396 0.112543,-0.06252 0.03335,-0.06252 0.02918,-0.220918 l -0.01459,-0.829484 -0.02084,-1.031645 q -0.0063,-0.112543 -0.04793,-0.160478 -0.04168,-0.04793 -0.220918,-0.100038 l -0.0021,-0.108375 q 0.204245,-0.0396 0.343882,-0.09795 0.102122,-0.04168 0.277189,-0.158394 l 0.106291,-0.0021 0.0021,0.05836 -0.0021,0.225086 q 0,0.01251 0.0021,0.06252 0.181319,-0.110459 0.298031,-0.145889 0.170898,-0.05002 0.377227,-0.05002 0.212582,0 0.377228,0.108375 0.0125,0.0083 0.03543,0.02293 0.104207,0.07503 0.152142,0.143805 0.104206,0.147973 0.150057,0.291778 0.03543,0.108375 0.03543,0.270937 0,0.21675 -0.05627,0.366807 -0.05627,0.150057 -0.193824,0.302199 -0.137553,0.152142 -0.295947,0.21675 -0.15631,0.06461 -0.329293,0.06461 -0.170898,0 -0.243843,-0.02084 -0.139637,-0.0396 -0.277189,-0.116711 -0.0063,0.03335 -0.0063,0.04585 l 0.0063,0.05627 q 0.0021,0.02293 0.0021,0.05627 0,0.01459 -0.0042,0.164646 l 0.0063,0.379312 q 0,0.01251 -0.0021,0.08337 v 0.02293 q 0,0.07711 0.01042,0.112543 0.0083,0.02084 0.03543,0.04585 0.02084,0.0083 0.0396,0.01876 0.06461,0.01251 0.112543,0.02501 0.05002,0.0125 0.104207,0.02084 0.01876,0.02293 0.01876,0.06044 0,0.02293 -0.0021,0.06669 h -0.03751 q -0.12088,0 -0.168815,-0.0042 l -0.314704,-0.02709 h -0.07711 l -0.07294,-0.0021 -0.07294,0.0063 -0.112543,0.0063 q -0.06252,0.0021 -0.137553,0.01042 -0.07503,0.0083 -0.108374,0.0083 z m 0.789886,-1.490154 q 0.0083,0.02501 0.01042,0.03751 0.02293,0.09587 0.05836,0.135469 0.06461,0.07503 0.147973,0.100038 0.125048,0.03543 0.218834,0.03543 0.108375,0 0.210497,-0.04585 0.104207,-0.04585 0.166731,-0.122963 0.0083,-0.01042 0.02501,-0.02918 0.01459,-0.03335 0.02293,-0.05002 0.08337,-0.162562 0.08337,-0.345966 0,-0.337629 -0.200077,-0.568968 -0.139636,-0.164646 -0.395985,-0.164646 -0.152141,0 -0.345965,0.0792 -0.0063,0.08128 -0.0063,0.456425 l 0.0063,0.402237 q 0,0.01459 -0.0021,0.08128 z"
         style="font-style:normal;font-variant:normal;font-weight:bold;font-stretch:normal;font-family:Garamond;-inkscape-font-specification:'Garamond Bold';fill:#025e02;fill-opacity:1;stroke-width:0.107;stroke-miterlimit:4;stroke-dasharray:none"
         id="path2226" />
      <path
         d="m 71.463653,87.626177 q 0.05419,-0.177151 0.09587,-0.235507 0.116712,-0.170899 0.248012,-0.266769 0.133384,-0.09587 0.239675,-0.127132 0.137553,-0.0396 0.223002,-0.0396 0.195908,0 0.316788,0.03126 0.12088,0.02918 0.202161,0.08545 0.116711,0.08128 0.187571,0.164646 0.07086,0.08337 0.114628,0.195909 0.04585,0.112543 0.05002,0.273021 l -0.231339,-0.0042 q -0.09587,0 -0.420994,-0.01876 -0.12088,-0.0083 -0.166731,-0.0083 -0.01459,0 -0.225086,0.0021 h -0.179235 q -0.0042,0.02918 -0.0042,0.05002 0,0.110459 0.02709,0.233423 0.02709,0.120879 0.08128,0.214665 0.05419,0.0917 0.133385,0.158394 0.08128,0.06669 0.16673,0.09587 l 0.12088,0.0396 q 0.160478,0 0.214665,-0.01042 0.100039,-0.02084 0.175067,-0.0521 0.07711,-0.03335 0.185488,-0.110459 0.07503,0.05419 0.125048,0.09795 -0.183404,0.202161 -0.381396,0.293862 -0.195908,0.08962 -0.439752,0.08962 -0.164646,0 -0.268853,-0.02918 -0.139636,-0.03751 -0.252179,-0.114627 -0.112544,-0.07711 -0.193825,-0.19174 -0.08128,-0.114627 -0.120879,-0.235507 -0.0521,-0.158394 -0.0521,-0.254264 0,-0.181319 0.02918,-0.327208 z m 1.21088,-0.08962 q -0.0021,-0.116711 -0.04585,-0.223002 -0.04377,-0.106291 -0.135469,-0.164646 -0.0917,-0.06044 -0.185488,-0.06044 -0.139636,0 -0.252179,0.122964 -0.112544,0.122963 -0.127132,0.333461 l 0.475181,0.0021 q 0.04585,0 0.129217,-0.0063 0.06044,-0.0063 0.08545,-0.0063 0.01876,0 0.05627,0.0021 z"
         style="font-style:normal;font-variant:normal;font-weight:bold;font-stretch:normal;font-family:Garamond;-inkscape-font-specification:'Garamond Bold';fill:#025e02;fill-opacity:1;stroke-width:0.107;stroke-miterlimit:4;stroke-dasharray:none"
         id="path2228" />
      <path
         d="m 75.0692,88.186808 q 0.03335,0.01876 0.05002,0.02501 0.04793,0.02084 0.07711,0.0521 -0.05627,0.208413 -0.273021,0.360554 -0.21675,0.152142 -0.548127,0.152142 -0.208413,0 -0.412658,-0.08753 -0.204244,-0.08753 -0.325124,-0.231338 -0.09379,-0.110459 -0.141721,-0.270937 -0.04585,-0.160478 -0.04585,-0.273021 0,-0.135469 0.05836,-0.306367 0.05836,-0.172983 0.195908,-0.325125 0.137553,-0.152141 0.345966,-0.241759 0.210497,-0.08962 0.473098,-0.08962 0.360554,0 0.502275,0.112543 0.141721,0.112543 0.141721,0.225087 0,0.110458 -0.05836,0.175067 -0.05627,0.06252 -0.156309,0.06252 -0.08545,0 -0.158394,-0.05627 -0.07086,-0.05627 -0.118796,-0.189656 -0.03751,-0.09587 -0.09587,-0.139637 -0.05836,-0.04168 -0.139637,-0.04168 -0.195908,0 -0.350134,0.168814 -0.154225,0.166731 -0.154225,0.456425 0,0.34805 0.187572,0.554379 0.189655,0.204245 0.42933,0.204245 0.118796,0 0.202161,-0.02709 0.0521,-0.01876 0.141721,-0.08128 0.02293,-0.01667 0.08545,-0.08962 0.06461,-0.07295 0.08753,-0.09795 z"
         style="font-style:normal;font-variant:normal;font-weight:bold;font-stretch:normal;font-family:Garamond;-inkscape-font-specification:'Garamond Bold';fill:#025e02;fill-opacity:1;stroke-width:0.107;stroke-miterlimit:4;stroke-dasharray:none"
         id="path2230" />
      <path
         d="m 75.64442,86.244398 q 0,-0.112543 0.07295,-0.183404 0.07294,-0.07294 0.187572,-0.07294 0.122963,0 0.204244,0.07711 0.08128,0.07503 0.08128,0.170898 0,0.07086 -0.03335,0.141721 -0.03126,0.07086 -0.102122,0.114628 -0.06878,0.04168 -0.141721,0.04168 -0.100038,0 -0.185488,-0.08545 -0.08337,-0.08545 -0.08337,-0.204245 z m -0.291778,2.486368 -0.0042,-0.135468 0.235506,-0.03126 q 0.0521,-0.01459 0.07086,-0.04168 0.02084,-0.02918 0.02084,-0.127132 v -0.02293 q 0,-0.02501 0.0021,-0.08962 0.0042,-0.06669 0.0042,-0.116711 0,-0.0396 -0.0063,-0.152142 l 0.0021,-0.104206 -0.0021,-0.09796 0.0042,-0.339713 q 0,-0.06461 -0.0125,-0.133384 -0.02293,-0.03126 -0.08337,-0.05419 -0.06044,-0.02293 -0.210497,-0.03335 v -0.116711 q 0.214666,-0.01251 0.377228,-0.08962 0.110459,-0.05002 0.239675,-0.177151 h 0.139637 q 0.0083,0.258432 0.0083,0.67109 l -0.01459,0.850326 q 0,0.08753 0.0083,0.158394 0.06461,0.02293 0.210497,0.04585 0.05627,0.0083 0.08962,0.02084 l -0.0021,0.114627 q -0.05627,0.0021 -0.08337,0.0021 -0.03126,0 -0.09587,-0.0042 -0.212581,-0.01042 -0.568967,-0.01042 -0.102123,0 -0.197993,0.0083 -0.09587,0.0063 -0.1313,0.0063 z"
         style="font-style:normal;font-variant:normal;font-weight:bold;font-stretch:normal;font-family:Garamond;-inkscape-font-specification:'Garamond Bold';fill:#025e02;fill-opacity:1;stroke-width:0.107;stroke-miterlimit:4;stroke-dasharray:none"
         id="path2232" />
      <path
         d="m 76.665643,87.626177 q 0.05419,-0.177151 0.09587,-0.235507 0.116711,-0.170899 0.248011,-0.266769 0.133384,-0.09587 0.239675,-0.127132 0.137553,-0.0396 0.223002,-0.0396 0.195908,0 0.316788,0.03126 0.12088,0.02918 0.202161,0.08545 0.116711,0.08128 0.187572,0.164646 0.07086,0.08337 0.114627,0.195909 0.04585,0.112543 0.05002,0.273021 l -0.231339,-0.0042 q -0.09587,0 -0.420994,-0.01876 -0.12088,-0.0083 -0.166731,-0.0083 -0.01459,0 -0.225086,0.0021 h -0.179235 q -0.0042,0.02918 -0.0042,0.05002 0,0.110459 0.02709,0.233423 0.02709,0.120879 0.08128,0.214665 0.05419,0.0917 0.133384,0.158394 0.08128,0.06669 0.16673,0.09587 l 0.12088,0.0396 q 0.160478,0 0.214665,-0.01042 0.100039,-0.02084 0.175067,-0.0521 0.07711,-0.03335 0.185488,-0.110459 0.07503,0.05419 0.125048,0.09795 -0.183404,0.202161 -0.381396,0.293862 -0.195908,0.08962 -0.439752,0.08962 -0.164646,0 -0.268852,-0.02918 -0.139637,-0.03751 -0.25218,-0.114627 -0.112543,-0.07711 -0.193824,-0.19174 -0.08128,-0.114627 -0.12088,-0.235507 -0.0521,-0.158394 -0.0521,-0.254264 0,-0.181319 0.02918,-0.327208 z m 1.210881,-0.08962 q -0.0021,-0.116711 -0.04585,-0.223002 -0.04377,-0.106291 -0.135469,-0.164646 -0.0917,-0.06044 -0.185488,-0.06044 -0.139636,0 -0.252179,0.122964 -0.112543,0.122963 -0.127132,0.333461 l 0.475182,0.0021 q 0.04585,0 0.129216,-0.0063 0.06044,-0.0063 0.08545,-0.0063 0.01876,0 0.05627,0.0021 z"
         style="font-style:normal;font-variant:normal;font-weight:bold;font-stretch:normal;font-family:Garamond;-inkscape-font-specification:'Garamond Bold';fill:#025e02;fill-opacity:1;stroke-width:0.107;stroke-miterlimit:4;stroke-dasharray:none"
         id="path2234" />
      <path
         d="m 78.674747,88.147209 q 0.06252,-0.0125 0.0917,-0.0125 0.01459,0 0.04377,0.0021 l 0.01876,0.02084 q 0.112544,0.197993 0.147974,0.239675 0.07294,0.08545 0.143805,0.137553 0.04793,0.03335 0.150057,0.06878 0.06878,0.02501 0.145889,0.02501 0.131301,0 0.225086,-0.08337 0.09379,-0.08545 0.09379,-0.183403 0,-0.06669 -0.03543,-0.112543 -0.03543,-0.04793 -0.141721,-0.09379 -0.0521,-0.02293 -0.2626,-0.07503 -0.208413,-0.0521 -0.25218,-0.06878 -0.09795,-0.03751 -0.175067,-0.104207 -0.07503,-0.06669 -0.114627,-0.150057 -0.05419,-0.118795 -0.05419,-0.204245 0,-0.158394 0.04585,-0.258432 0.04585,-0.102123 0.129216,-0.179235 0.06044,-0.05836 0.18132,-0.106291 0.122963,-0.04794 0.2626,-0.04794 0.197993,0 0.34805,0.02709 0.150057,0.02709 0.254264,0.08128 0.0125,0.04793 0.03543,0.220918 0.02293,0.172983 0.02293,0.204244 0,0.01459 -0.0063,0.03126 -0.05419,0.01667 -0.08962,0.01667 -0.02084,0 -0.06044,-0.0042 -0.01876,-0.02918 -0.05002,-0.08753 -0.100039,-0.185488 -0.206329,-0.260517 -0.104207,-0.07711 -0.241759,-0.07711 -0.143805,0 -0.24176,0.08337 -0.07086,0.06044 -0.07086,0.164646 0,0.06878 0.07503,0.139637 0.07294,0.07294 0.254264,0.110459 0.273021,0.06044 0.402237,0.120879 0.187572,0.08753 0.2626,0.206329 0.07711,0.118796 0.07711,0.275106 0,0.241759 -0.183403,0.404321 -0.18132,0.160478 -0.531454,0.160478 -0.04585,0 -0.239675,-0.02084 -0.08753,-0.01042 -0.206329,-0.04168 -0.02918,-0.0083 -0.152141,-0.06044 -0.02293,-0.0125 -0.03335,-0.02918 -0.0083,-0.01876 -0.02709,-0.175067 -0.03335,-0.254264 -0.03543,-0.304284 z"
         style="font-style:normal;font-variant:normal;font-weight:bold;font-stretch:normal;font-family:Garamond;-inkscape-font-specification:'Garamond Bold';fill:#025e02;fill-opacity:1;stroke-width:0.107;stroke-miterlimit:4;stroke-dasharray:none"
         id="path2236" />
      <path
         d="m 84.026795,86.206884 q 0.01459,0.06044 0.03335,0.239675 0.01876,0.177151 0.01876,0.258432 0,0.03126 -0.01459,0.07711 -0.08962,-0.0021 -0.152141,-0.01667 -0.158394,-0.243844 -0.223002,-0.306368 -0.12088,-0.116711 -0.310536,-0.197992 -0.139637,-0.06044 -0.320956,-0.06044 -0.34805,0 -0.612735,0.31262 -0.264684,0.312619 -0.264684,0.929522 0,0.289694 0.102122,0.562716 0.104207,0.273021 0.310536,0.429331 0.206329,0.154225 0.485602,0.154225 0.135469,0 0.28761,-0.03543 0.07711,-0.01667 0.125048,-0.06669 0.03335,-0.03335 0.04377,-0.100039 0.01667,-0.120879 0.01667,-0.343881 0,-0.21675 -0.0063,-0.298031 -0.01459,-0.03126 -0.02918,-0.0396 -0.01251,-0.01042 -0.08337,-0.03126 l -0.185487,-0.05002 q -0.06044,-0.01459 -0.07503,-0.03543 -0.0042,-0.02709 -0.0042,-0.0396 0,-0.02918 0.01459,-0.08128 0.03751,-0.0125 0.0521,-0.0125 0.22717,0 0.393901,0.01667 0.05836,0.0042 0.127132,0.0042 l 0.329292,-0.0042 0.139637,-0.0042 q 0.02501,-0.0021 0.139637,0.0042 0.0021,0.05419 0.0021,0.0917 0,0.02293 -0.01459,0.0521 -0.03543,0.02084 -0.120879,0.0521 -0.08545,0.03126 -0.09587,0.04168 -0.01667,0.01667 -0.02293,0.0521 -0.0063,0.03543 -0.0063,0.248012 0,0.245927 -0.0021,0.293862 -0.0083,0.154226 -0.0083,0.175067 0,0.07711 -0.02084,0.09587 -0.05836,0.05836 -0.362639,0.133385 -0.302199,0.07294 -0.704436,0.07294 -0.281358,0 -0.489771,-0.04377 -0.206329,-0.04585 -0.352218,-0.133384 -0.195908,-0.116711 -0.335545,-0.283442 -0.139637,-0.16673 -0.208413,-0.360554 -0.09587,-0.275106 -0.09587,-0.548127 0,-0.306367 0.141721,-0.621071 0.104206,-0.22717 0.291778,-0.408489 0.189656,-0.183404 0.473098,-0.291779 0.283441,-0.108375 0.616902,-0.108375 0.04168,0 0.135469,0.01042 0.254264,0 0.475182,0.06461 0.220918,0.06252 0.366807,0.150058 z"
         style="font-style:normal;font-variant:normal;font-weight:bold;font-stretch:normal;font-family:Garamond;-inkscape-font-specification:'Garamond Bold';fill:#025e02;fill-opacity:1;stroke-width:0.107;stroke-miterlimit:4;stroke-dasharray:none"
         id="path2238" />
      <path
         d="m 86.367274,88.338949 0.04794,0.03126 q 0.01876,0.01459 0.02293,0.03543 l 0.0021,0.01042 q -0.05002,0.185488 -0.1313,0.256348 -0.08128,0.06878 -0.202161,0.06878 -0.122964,0 -0.212582,-0.06669 -0.08753,-0.06878 -0.160478,-0.239675 -0.08962,0.158393 -0.252179,0.239675 -0.162563,0.0792 -0.398069,0.0792 -0.21675,0 -0.318872,-0.08962 -0.102123,-0.0917 -0.102123,-0.239675 0,-0.06878 0.02918,-0.139637 0.03126,-0.07086 0.09795,-0.139637 0.06878,-0.07086 0.218834,-0.154225 0.02293,-0.0125 0.158394,-0.07086 l 0.518948,-0.208413 q 0.0063,-0.0792 0.0063,-0.160478 0,-0.281358 -0.06878,-0.38348 -0.04168,-0.06252 -0.145889,-0.06252 -0.104206,0 -0.19174,0.0396 -0.08753,0.0396 -0.127132,0.102123 -0.02918,0.04585 -0.05002,0.172983 -0.01459,0.0917 -0.02709,0.10629 -0.03126,0.0396 -0.114627,0.07294 -0.08128,0.03126 -0.110459,0.04585 -0.112543,0.05419 -0.179235,0.05419 -0.02918,-0.02501 -0.02918,-0.07086 0,-0.118796 0.05002,-0.204245 0.07503,-0.12088 0.225086,-0.233423 0.152142,-0.114627 0.283442,-0.160478 0.179236,-0.05835 0.437668,-0.05835 0.16673,0 0.285526,0.06252 0.120879,0.06044 0.16673,0.181319 0.04793,0.12088 0.04793,0.435583 l -0.0063,0.343882 0.0042,0.25218 v 0.06461 q 0,0.08753 0.02293,0.120879 0.02501,0.03126 0.06252,0.03126 0.02293,0 0.0396,-0.0125 l 0.06252,-0.09795 z m -0.683595,-0.483518 q -0.118795,0.0396 -0.268853,0.133384 -0.147973,0.0917 -0.206329,0.185488 -0.04168,0.06878 -0.04168,0.168815 0,0.08962 0.05419,0.147973 0.05419,0.05836 0.125048,0.05836 0.116711,0 0.197992,-0.06669 0.110459,-0.08962 0.129217,-0.141721 0.01876,-0.05419 0.01876,-0.302199 0,-0.0917 -0.0083,-0.183404 z"
         style="font-style:normal;font-variant:normal;font-weight:bold;font-stretch:normal;font-family:Garamond;-inkscape-font-specification:'Garamond Bold';fill:#025e02;fill-opacity:1;stroke-width:0.107;stroke-miterlimit:4;stroke-dasharray:none"
         id="path2240" />
      <path
         d="m 86.579855,88.593213 q 0.01667,-0.0083 0.04585,-0.01042 0.122964,-0.0083 0.195909,-0.04377 0.01459,-0.0063 0.01667,-0.02709 0.0042,-0.02084 0.0125,-0.379311 v -0.12088 l 0.0021,-0.214666 -0.0021,-0.223002 v -0.05002 q 0,-0.09795 -0.04585,-0.143805 -0.04377,-0.04794 -0.233422,-0.102122 v -0.08545 q 0.0396,-0.01042 0.09379,-0.02293 0.19174,-0.0396 0.316788,-0.112543 0.09587,-0.05627 0.189655,-0.168815 h 0.114628 v 0.03335 l 0.0063,0.166731 -0.0021,0.07711 0.0042,0.03751 q 0.197993,-0.15631 0.329293,-0.206329 0.133384,-0.05002 0.304283,-0.05002 0.164646,0 0.316788,0.07086 0.154226,0.07086 0.256348,0.237591 0.147973,-0.143805 0.248012,-0.20216 0.06878,-0.0396 0.187571,-0.06878 0.12088,-0.03126 0.227171,-0.03126 0.289694,0 0.458508,0.175067 0.168815,0.177152 0.168815,0.479351 v 0.331376 q 0,0.102123 -0.0063,0.352218 v 0.160479 q 0,0.04168 0.02501,0.08128 0.08128,0.03543 0.139637,0.04585 0.04168,0.0063 0.0792,0.02918 0.0042,0.03751 0.01042,0.06252 l -0.0021,0.04168 q -0.05836,0.01042 -0.08337,0.01042 -0.01667,0 -0.102122,-0.0083 -0.08337,-0.01042 -0.212582,-0.01042 -0.314703,0 -0.500191,0.02084 -0.01459,-0.0521 -0.01459,-0.08337 l 0.0021,-0.02918 q 0.02709,-0.01459 0.179236,-0.07294 0.02709,-0.02709 0.03126,-0.04794 0.01042,-0.0521 0.01042,-0.223002 l -0.01042,-0.587725 q -0.0021,-0.147973 -0.02293,-0.243843 -0.02084,-0.09795 -0.06252,-0.152142 -0.0396,-0.05627 -0.108375,-0.0917 -0.06878,-0.03543 -0.143805,-0.03543 -0.116711,0 -0.237591,0.06669 -0.120879,0.06461 -0.214665,0.197993 l -0.0021,0.06044 0.0042,0.266768 -0.0042,0.218834 v 0.208413 l -0.0021,0.185488 q 0,0.137553 0.02709,0.162562 0.04168,0.0396 0.204245,0.05627 l 0.06461,0.02293 q 0.01667,0.04793 0.01667,0.07503 0,0.01459 -0.0083,0.05002 l -0.06044,-0.0021 h -0.08337 l -0.04377,-0.0021 q -0.147973,-0.01459 -0.306367,-0.01667 l -0.223002,-0.0042 q -0.08128,0 -0.281358,0.01876 l -0.03751,-0.0063 -0.0021,-0.122964 q 0.06252,-0.01876 0.225086,-0.03126 0.01042,-0.0021 0.02709,-0.0083 0.02293,-0.02709 0.02709,-0.04585 0.01042,-0.04168 0.01042,-0.168815 l -0.0021,-0.423078 0.0042,-0.112543 q 0,-0.325125 -0.02293,-0.402237 -0.02918,-0.100039 -0.122963,-0.162563 -0.0917,-0.06461 -0.220918,-0.06461 -0.168815,0 -0.293863,0.08128 -0.125047,0.0792 -0.143805,0.141721 -0.0021,0.02501 -0.0021,0.03751 l 0.0021,0.02084 v 0.02084 q 0,0.01876 -0.01042,0.05836 l 0.0063,0.598146 0.0021,0.312619 q 0,0.01667 0.0042,0.05419 l 0.01042,0.03126 q 0.05836,0.01876 0.100038,0.02709 0.07711,0.01667 0.116712,0.03751 0.0063,0.03543 0.0063,0.05002 0,0.02709 -0.01667,0.07711 -0.03335,0.0021 -0.04793,0.0021 -0.02293,0 -0.208413,-0.01876 l -0.22717,-0.0021 q -0.162562,0 -0.393901,0.02293 l -0.06044,-0.0021 q -0.0042,-0.03335 -0.0083,-0.07711 0,-0.01876 0.01042,-0.05419 z"
         style="font-style:normal;font-variant:normal;font-weight:bold;font-stretch:normal;font-family:Garamond;-inkscape-font-specification:'Garamond Bold';fill:#025e02;fill-opacity:1;stroke-width:0.107;stroke-miterlimit:4;stroke-dasharray:none"
         id="path2242" />
      <path
         d="m 90.441749,86.244398 q 0,-0.112543 0.07295,-0.183404 0.07294,-0.07294 0.187572,-0.07294 0.122963,0 0.204244,0.07711 0.08128,0.07503 0.08128,0.170898 0,0.07086 -0.03335,0.141721 -0.03126,0.07086 -0.102122,0.114628 -0.06878,0.04168 -0.141721,0.04168 -0.100038,0 -0.185488,-0.08545 -0.08337,-0.08545 -0.08337,-0.204245 z m -0.291778,2.486368 -0.0042,-0.135468 0.235506,-0.03126 q 0.0521,-0.01459 0.07086,-0.04168 0.02084,-0.02918 0.02084,-0.127132 v -0.02293 q 0,-0.02501 0.0021,-0.08962 0.0042,-0.06669 0.0042,-0.116711 0,-0.0396 -0.0063,-0.152142 l 0.0021,-0.104206 -0.0021,-0.09796 0.0042,-0.339713 q 0,-0.06461 -0.0125,-0.133384 -0.02293,-0.03126 -0.08337,-0.05419 -0.06044,-0.02293 -0.210497,-0.03335 v -0.116711 q 0.214666,-0.01251 0.377228,-0.08962 0.110459,-0.05002 0.239675,-0.177151 h 0.139637 q 0.0083,0.258432 0.0083,0.67109 l -0.01459,0.850326 q 0,0.08753 0.0083,0.158394 0.06461,0.02293 0.210497,0.04585 0.05627,0.0083 0.08962,0.02084 l -0.0021,0.114627 q -0.05627,0.0021 -0.08337,0.0021 -0.03126,0 -0.09587,-0.0042 -0.212581,-0.01042 -0.568967,-0.01042 -0.102123,0 -0.197993,0.0083 -0.09587,0.0063 -0.1313,0.0063 z"
         style="font-style:normal;font-variant:normal;font-weight:bold;font-stretch:normal;font-family:Garamond;-inkscape-font-specification:'Garamond Bold';fill:#025e02;fill-opacity:1;stroke-width:0.107;stroke-miterlimit:4;stroke-dasharray:none"
         id="path2244" />
      <path
         d="m 91.369187,88.624475 q 0.05419,-0.02501 0.100038,-0.03335 0.114627,-0.01876 0.133384,-0.03126 0.03126,-0.01876 0.04168,-0.04585 0.01251,-0.04168 0.01251,-0.183403 v -0.181319 l 0.0021,-0.147974 -0.0063,-0.218833 v -0.131301 q 0,-0.1313 -0.02084,-0.214665 -0.0083,-0.03126 -0.0521,-0.06252 -0.05836,-0.04168 -0.197993,-0.08128 l -0.0021,-0.100039 q 0.02709,-0.0083 0.04794,-0.01042 0.02293,-0.0042 0.168815,-0.04168 0.114627,-0.04168 0.147973,-0.05836 0.01042,-0.0063 0.03335,-0.01876 0.02501,-0.02084 0.05627,-0.04168 0.06252,-0.04377 0.150057,-0.152142 l 0.110459,-0.0083 -0.0042,0.235506 q -0.0021,0.03543 -0.0021,0.05627 0,0.01667 0.0021,0.09587 0.172983,-0.150057 0.314704,-0.208413 0.185487,-0.07711 0.352218,-0.07711 0.195908,0 0.343881,0.09795 0.147974,0.09587 0.193824,0.223002 0.04585,0.127132 0.04585,0.512696 l -0.0083,0.679427 q 0,0.04794 0.01667,0.0792 0.02084,0.01667 0.114627,0.03126 l 0.102123,0.01876 q 0.01876,0.02709 0.01876,0.06669 0,0.02501 -0.0021,0.06878 l -0.40849,-0.02918 -0.12088,0.0042 h -0.09587 l -0.275105,0.02084 h -0.07086 q -0.0021,-0.02709 -0.0021,-0.04168 0,-0.03751 0.0042,-0.08128 0.02918,-0.0063 0.145889,-0.02084 0.03126,-0.0042 0.06878,-0.01459 0.04168,-0.01667 0.04793,-0.03335 0.01667,-0.03543 0.01667,-0.135468 0,-0.175067 -0.0042,-0.268853 l 0.0021,-0.241759 q 0.0021,-0.439752 -0.05419,-0.548127 -0.0792,-0.156309 -0.237591,-0.156309 -0.116712,0 -0.241759,0.06044 -0.125048,0.05836 -0.258433,0.179236 l -0.0042,0.03543 0.0042,0.1313 -0.0021,0.139637 0.0083,0.333461 -0.0042,0.0521 q 0,0.339713 0.02709,0.38348 0.02709,0.04377 0.206329,0.09587 0.0063,0.03543 0.0063,0.0521 0,0.02501 -0.01459,0.07711 -0.06461,0.0021 -0.108375,0.0021 -0.04377,0 -0.137553,-0.0125 l -0.223002,-0.0042 q -0.16673,0 -0.481434,0.01459 -0.0083,-0.02084 -0.0083,-0.04377 0,-0.01667 0.0021,-0.06669 z"
         style="font-style:normal;font-variant:normal;font-weight:bold;font-stretch:normal;font-family:Garamond;-inkscape-font-specification:'Garamond Bold';fill:#025e02;fill-opacity:1;stroke-width:0.107;stroke-miterlimit:4;stroke-dasharray:none"
         id="path2246" />
      <path
         d="m 94.245289,89.01004 q -0.281358,-0.07086 -0.375144,-0.166731 -0.09379,-0.09379 -0.09379,-0.210497 0,-0.09379 0.05002,-0.143805 0.05002,-0.05002 0.456425,-0.281358 -0.206329,-0.122963 -0.283442,-0.237591 -0.100038,-0.150057 -0.100038,-0.295946 0,-0.131301 0.05419,-0.279274 0.116712,-0.212581 0.318872,-0.316788 0.204245,-0.10629 0.525201,-0.10629 0.129216,0 0.223002,0.01667 0.04377,0.0083 0.14589,0.04585 l 0.0792,0.02918 q 0.10629,0.06669 0.185487,0.137553 0.179235,-0.03543 0.289694,-0.07295 0.07711,-0.02293 0.133385,-0.02293 0.04168,0 0.06669,0.03543 0.02501,0.03543 0.02501,0.166731 0,0.114627 -0.03126,0.160478 -0.03126,0.04377 -0.06461,0.04377 -0.0125,0 -0.07294,-0.02918 -0.141721,-0.06461 -0.22717,-0.06878 0.05002,0.143805 0.05002,0.273022 0,0.152141 -0.08962,0.291778 -0.08753,0.137552 -0.241759,0.218834 -0.214666,0.114627 -0.429331,0.114627 -0.137553,0 -0.187572,-0.0063 -0.07294,-0.0083 -0.204245,-0.03751 -0.177151,0.09795 -0.248011,0.166731 -0.03543,0.03335 -0.03543,0.0792 0,0.04168 0.03543,0.07503 0.03751,0.03335 0.122964,0.04585 0.01667,0.0021 0.04585,0.0083 0.110459,0.0083 0.293863,0.0083 0.02293,0 0.147973,-0.0063 0.03543,-0.0021 0.06044,-0.0021 0.498107,0 0.698184,0.158394 0.197992,0.158393 0.197992,0.387648 0,0.122964 -0.07086,0.239675 -0.06878,0.118795 -0.187572,0.19174 -0.118795,0.07503 -0.343882,0.133384 -0.223002,0.05836 -0.47935,0.05836 -0.277189,0 -0.498107,-0.05419 -0.218834,-0.05419 -0.343882,-0.177152 -0.09587,-0.0917 -0.09587,-0.195908 0,-0.102122 0.0792,-0.183403 0.08128,-0.0792 0.418911,-0.19174 z m 0.521032,-0.837821 q 0.139637,0 0.237591,-0.118795 0.100039,-0.12088 0.100039,-0.37306 0,-0.333461 -0.08962,-0.448088 -0.08753,-0.114627 -0.248012,-0.114627 -0.02084,0 -0.110459,0.01042 -0.100038,0.01876 -0.183403,0.141721 -0.08128,0.122964 -0.08128,0.329293 0,0.05627 0.01459,0.223002 0.0063,0.07086 0.03126,0.122964 0.03543,0.08128 0.07711,0.127132 0.04168,0.04377 0.110459,0.07294 0.07086,0.02709 0.14172,0.02709 z m 0.118796,1.49849 q 0.308451,-0.03543 0.47935,-0.16673 0.108375,-0.08545 0.108375,-0.168815 0,-0.04585 -0.02293,-0.08962 -0.02293,-0.04377 -0.08337,-0.08753 -0.05836,-0.04168 -0.133384,-0.05836 -0.106291,-0.02084 -0.281358,-0.02084 l -0.256348,-0.0042 q -0.337629,0 -0.454341,0.08337 -0.114627,0.08337 -0.114627,0.220918 0,0.07294 0.06461,0.143805 0.06461,0.07294 0.21675,0.114627 0.152141,0.04168 0.327208,0.04168 0.05002,0 0.150058,-0.0083 z"
         style="font-style:normal;font-variant:normal;font-weight:bold;font-stretch:normal;font-family:Garamond;-inkscape-font-specification:'Garamond Bold';fill:#025e02;fill-opacity:1;stroke-width:0.107;stroke-miterlimit:4;stroke-dasharray:none"
         id="path2248" />
    </g>
  </g>
  <g
     inkscape:label="Drill"
     inkscape:groupmode="layer"
     id="g8014">
    <circle
       style="display:inline;fill:none;fill-opacity:1;stroke:#000000;stroke-width:0.15;stroke-miterlimit:4;stroke-dasharray:none;stroke-opacity:1;stop-color:#000000"
       id="path2043"
       cx="86.111832"
       cy="52.691162"
       r="7.5" />
  </g>
</svg>
